<svg width="11" height="11" viewBox="0 0 11 11" fill="none" xmlns="http://www.w3.org/2000/svg">
<path d="M6 0.75C6 0.551088 5.92098 0.360322 5.78033 0.21967C5.63968 0.0790178 5.44891 0 5.25 0C5.05109 0 4.86032 0.0790178 4.71967 0.21967C4.57902 0.360322 4.5 0.551088 4.5 0.75V4.5H0.75C0.551088 4.5 0.360322 4.57902 0.21967 4.71967C0.0790178 4.86032 0 5.05109 0 5.25C0 5.44891 0.0790178 5.63968 0.21967 5.78033C0.360322 5.92098 0.551088 6 0.75 6H4.5V9.75C4.5 9.94891 4.57902 10.1397 4.71967 10.2803C4.86032 10.421 5.05109 10.5 5.25 10.5C5.44891 10.5 5.63968 10.421 5.78033 10.2803C5.92098 10.1397 6 9.94891 6 9.75V6H9.75C9.94891 6 10.1397 5.92098 10.2803 5.78033C10.421 5.63968 10.5 5.44891 10.5 5.25C10.5 5.05109 10.421 4.86032 10.2803 4.71967C10.1397 4.57902 9.94891 4.5 9.75 4.5H6V0.75Z" fill="#717171"/>
</svg>
