<svg width="320" height="350" viewBox="0 0 320 350" fill="none" xmlns="http://www.w3.org/2000/svg">
<rect width="294.94" height="350" rx="20" fill="#FFD4CF"/>
<rect x="11.7976" width="275.277" height="350" rx="20" fill="white"/>
<rect x="14.9436" width="272.131" height="350" rx="20" fill="#E8E8E8"/>
<rect x="20.241" width="299.759" height="350" rx="20" fill="white"/>
<path d="M19.9809 309.882L64.5043 349.217H27.3653C22.9597 348.497 21.5121 346.928 19.9809 342.938V309.882Z" fill="#E8E8E8" stroke="#E8E8E8"/>
<path d="M275.557 345.012L314.332 300L314.797 337.136C314.132 341.55 312.581 343.017 308.611 344.598L275.557 345.012Z" fill="#E8E8E8" stroke="#E8E8E8"/>
<path d="M39.9623 345.325C39.9623 345.325 41.5013 341.19 39.9623 342.015C38.4234 342.841 30.7611 342.43 25.1936 339.43L25.1938 339.263C27.1726 336.954 28.6368 336.592 35.836 334.444V337.029L42.1344 333.52L35.836 329.273V332.597C25.5765 334.652 24.8695 335.445 25.1938 339.263L25.1936 339.43C27.7911 343.035 27.9806 344.131 39.9623 345.325Z" fill="#9B9B9B"/>
<path d="M25.1936 339.43C27.7911 343.035 27.9806 344.131 39.9623 345.325C39.9623 345.325 41.5013 341.19 39.9623 342.015C38.4234 342.841 30.7611 342.43 25.1936 339.43ZM25.1936 339.43L25.1938 339.263M35.836 334.444V337.029L42.1344 333.52L35.836 329.273V332.597M35.836 334.444V332.597M35.836 334.444C28.6368 336.592 27.1726 336.954 25.1938 339.263M35.836 332.597C25.5765 334.652 24.8695 335.445 25.1938 339.263" stroke="#9B9B9B"/>
<path fill-rule="evenodd" clip-rule="evenodd" d="M296.25 335.761C297.779 333.895 299.137 332.835 300.324 332.584C301.51 332.332 302.64 332.294 303.713 332.47V335.812L308.75 330.358L303.713 325.188V328.365C301.729 328.38 300.042 329.092 298.653 330.5C297.264 331.908 296.463 333.662 296.25 335.761Z" fill="#ACACAC" stroke="#ACACAC" stroke-width="2" stroke-linejoin="round"/>
</svg>
