<svg width="320" height="350" viewBox="0 0 320 350" fill="none" xmlns="http://www.w3.org/2000/svg">
<rect width="294.94" height="350" rx="20" fill="#FFD4CF"/>
<rect x="11.7976" width="275.277" height="350" rx="20" fill="white"/>
<rect x="14.9436" width="272.131" height="350" rx="20" fill="#E8E8E8"/>
<rect x="20.241" width="299.759" height="350" rx="20" fill="white"/>
<path d="M19.9809 309.882L64.5043 349.218H27.3653C22.9597 348.498 21.5121 346.928 19.9809 342.939V309.882Z" fill="#E8E8E8" stroke="#E8E8E8"/>
<path d="M274.557 345.012L313.332 300L313.797 337.136C313.132 341.551 311.581 343.018 307.611 344.599L274.557 345.012Z" fill="#E8E8E8" stroke="#E8E8E8"/>
<path d="M48.9146 40.6979L54.5073 32.2571C54.741 31.9043 55.2589 31.9043 55.4926 32.2571L61.0853 40.6979C61.6088 41.4881 62.8394 41.1174 62.8394 40.1696V1.3668C62.8394 0.838441 62.4111 0.410156 61.8827 0.410156H48.1171C47.5887 0.410156 47.1604 0.838441 47.1604 1.3668V40.1696C47.1605 41.1174 48.3911 41.4881 48.9146 40.6979Z" fill="#FF473E"/>
</svg>
