<svg width="18" height="18" viewBox="0 0 18 18" fill="none" xmlns="http://www.w3.org/2000/svg">
<path d="M3.09166 17.0798C3.09166 17.0798 1.60962 12.9371 3.09166 13.7643C4.5737 14.5914 11.9525 14.1796 17.3139 11.1744L17.3137 11.0072C15.4081 8.69462 13.9981 8.33183 7.06536 6.1797V8.76956L1 5.25476L7.06536 1V4.32981C16.9452 6.38833 17.626 7.18286 17.3137 11.0072L17.3139 11.1744C14.8125 14.786 14.6301 15.884 3.09166 17.0798Z" fill="white"/>
<path d="M17.3139 11.1744C14.8125 14.786 14.6301 15.884 3.09166 17.0798C3.09166 17.0798 1.60962 12.9371 3.09166 13.7643C4.5737 14.5914 11.9525 14.1796 17.3139 11.1744ZM17.3139 11.1744L17.3137 11.0072M7.06536 6.1797V8.76956L1 5.25476L7.06536 1V4.32981M7.06536 6.1797V4.32981M7.06536 6.1797C13.9981 8.33183 15.4081 8.69462 17.3137 11.0072M7.06536 4.32981C16.9452 6.38833 17.626 7.18286 17.3137 11.0072" stroke="white"/>
</svg>
