<svg width="350" height="381" viewBox="0 0 350 381" fill="none" xmlns="http://www.w3.org/2000/svg">
<g filter="url(#filter0_d_30_153)">
<path d="M53.4 358.755L319.858 13.5645" stroke="black"/>
<rect x="53.0653" y="14.4395" width="281.935" height="343.34" rx="20" fill="white"/>
<rect x="53.0653" y="14.4395" width="273.569" height="341.491" rx="20" fill="#E8E8E8"/>
<rect x="38.4249" y="10" width="284.026" height="350" rx="20" fill="#FFEFED"/>
<path d="M323.718 349.81V15.6315L322.457 13.6172L320.776 11.9692L46.7949 356.585H316.574L319.096 356.219L321.827 354.388L323.298 352.19L323.718 349.81Z" fill="#FFE4E1"/>
<path d="M15 40C15 23.4315 28.4315 10 45 10H47.6667C53.1895 10 57.6667 14.4772 57.6667 20V350C57.6667 355.523 53.1895 360 47.6667 360H45C28.4315 360 15 346.569 15 330V40Z" fill="#FFD4CF"/>
<path d="M322.451 320.597L279.575 360H315.34C319.582 359.279 320.977 357.707 322.451 353.71V320.597Z" fill="#FF6D6D" stroke="#FF6D6D"/>
</g>
<defs>
<filter id="filter0_d_30_153" x="0" y="0" width="350" height="380.5" filterUnits="userSpaceOnUse" color-interpolation-filters="sRGB">
<feFlood flood-opacity="0" result="BackgroundImageFix"/>
<feColorMatrix in="SourceAlpha" type="matrix" values="0 0 0 0 0 0 0 0 0 0 0 0 0 0 0 0 0 0 127 0" result="hardAlpha"/>
<feOffset dy="5"/>
<feGaussianBlur stdDeviation="7.5"/>
<feComposite in2="hardAlpha" operator="out"/>
<feColorMatrix type="matrix" values="0 0 0 0 0 0 0 0 0 0 0 0 0 0 0 0 0 0 0.1 0"/>
<feBlend mode="normal" in2="BackgroundImageFix" result="effect1_dropShadow_30_153"/>
<feBlend mode="normal" in="SourceGraphic" in2="effect1_dropShadow_30_153" result="shape"/>
</filter>
</defs>
</svg>
