<svg width="326" height="351" viewBox="0 0 326 351" fill="none" xmlns="http://www.w3.org/2000/svg">
<rect y="1" width="294.94" height="350" rx="20" fill="#FFD4CF"/>
<rect x="11.7976" y="1" width="275.277" height="350" rx="20" fill="white"/>
<rect x="14.9437" y="1" width="272.131" height="350" rx="20" fill="#E8E8E8"/>
<rect x="20.241" y="1" width="299.759" height="350" rx="20" fill="white"/>
<path d="M19.9813 310.882L64.5046 350.217H27.3656C22.96 349.498 21.5124 347.928 19.9813 343.939V310.882Z" fill="#E8E8E8" stroke="#E8E8E8"/>
<path d="M39.9623 346.325C39.9623 346.325 41.5013 342.19 39.9623 343.015C38.4233 343.841 30.761 343.43 25.1936 340.43L25.1938 340.263C27.1726 337.954 28.6368 337.592 35.8359 335.444V338.029L42.1343 334.52L35.8359 330.273V333.597C25.5765 335.652 24.8695 336.445 25.1938 340.263L25.1936 340.43C27.7911 344.035 27.9805 345.131 39.9623 346.325Z" fill="#9B9B9B"/>
<path d="M25.1936 340.43C27.7911 344.035 27.9805 345.131 39.9623 346.325C39.9623 346.325 41.5013 342.19 39.9623 343.015C38.4233 343.841 30.761 343.43 25.1936 340.43ZM25.1936 340.43L25.1938 340.263M35.8359 335.444V338.029L42.1343 334.52L35.8359 330.273V333.597M35.8359 335.444V333.597M35.8359 335.444C28.6368 337.592 27.1726 337.954 25.1938 340.263M35.8359 333.597C25.5765 335.652 24.8695 336.445 25.1938 340.263" stroke="#9B9B9B"/>
<path d="M39.5941 47.5376V1H60.0097V47.5376L50.2363 41.9307L39.5941 47.5376Z" fill="#DB3131" stroke="#DB3131"/>
<path d="M50.0192 1L50.2318 42.1367L60.0098 47.907V1H50.0192Z" fill="#E94343" stroke="#E94343"/>
<path d="M101.145 30.7175H103.325V31.8775C103.325 33.0508 103.132 34.1575 102.745 35.1975C102.372 36.2375 101.798 37.1508 101.025 37.9375C100.265 38.7108 99.2983 39.2908 98.1249 39.6775L96.7449 37.6175C97.7716 37.2708 98.6049 36.7975 99.2449 36.1975C99.8983 35.5975 100.378 34.9242 100.685 34.1775C100.992 33.4175 101.145 32.6508 101.145 31.8775V30.7175ZM101.665 30.7175H103.825V31.8775C103.825 32.5975 103.972 33.3175 104.265 34.0375C104.558 34.7442 105.018 35.3842 105.645 35.9575C106.285 36.5175 107.098 36.9575 108.085 37.2775L106.745 39.3575C105.585 38.9842 104.632 38.4175 103.885 37.6575C103.138 36.8975 102.578 36.0242 102.205 35.0375C101.845 34.0375 101.665 32.9842 101.665 31.8775V30.7175ZM97.4449 29.9175H107.465V32.0375H97.4449V29.9175ZM108.925 28.8375H111.585V39.9775H108.925V28.8375ZM110.865 33.2975H114.045V35.4975H110.865V33.2975ZM99.2249 40.7975H111.585V47.3575H108.925V42.9175H99.2249V40.7975ZM115.403 38.2775H132.163V40.3775H115.403V38.2775ZM117.443 44.8975H130.283V47.0375H117.443V44.8975ZM117.443 41.6175H120.103V45.5775H117.443V41.6175ZM123.783 29.3775C125.13 29.3775 126.303 29.5308 127.303 29.8375C128.317 30.1442 129.103 30.5842 129.663 31.1575C130.223 31.7308 130.503 32.4042 130.503 33.1775C130.503 33.9642 130.223 34.6442 129.663 35.2175C129.103 35.7908 128.317 36.2308 127.303 36.5375C126.303 36.8442 125.13 36.9975 123.783 36.9975C122.45 36.9975 121.277 36.8442 120.263 36.5375C119.263 36.2308 118.483 35.7908 117.923 35.2175C117.363 34.6442 117.083 33.9642 117.083 33.1775C117.083 32.4042 117.363 31.7308 117.923 31.1575C118.483 30.5842 119.263 30.1442 120.263 29.8375C121.277 29.5308 122.45 29.3775 123.783 29.3775ZM123.783 31.4775C122.97 31.4775 122.263 31.5442 121.663 31.6775C121.063 31.8108 120.61 32.0042 120.303 32.2575C119.997 32.4975 119.843 32.8042 119.843 33.1775C119.843 33.5508 119.997 33.8642 120.303 34.1175C120.61 34.3708 121.063 34.5642 121.663 34.6975C122.263 34.8308 122.97 34.8975 123.783 34.8975C124.623 34.8975 125.337 34.8308 125.923 34.6975C126.51 34.5642 126.957 34.3708 127.263 34.1175C127.583 33.8642 127.743 33.5508 127.743 33.1775C127.743 32.8042 127.583 32.4975 127.263 32.2575C126.957 32.0042 126.51 31.8108 125.923 31.6775C125.337 31.5442 124.623 31.4775 123.783 31.4775ZM141.075 37.9975H154.095V40.0975H141.075V37.9975ZM139.115 43.1775H155.895V45.3175H139.115V43.1775ZM146.155 39.0575H148.815V44.1175H146.155V39.0575ZM141.075 30.0775H153.955V32.2175H143.775V38.7775H141.075V30.0775ZM142.955 34.0175H153.535V36.0775H142.955V34.0175ZM170.233 28.8175H172.913V47.3375H170.233V28.8175ZM160.793 30.7175H163.293C163.293 31.9708 163.24 33.1642 163.133 34.2975C163.027 35.4308 162.833 36.5175 162.553 37.5575C162.287 38.5842 161.893 39.5775 161.373 40.5375C160.867 41.4842 160.213 42.4042 159.413 43.2975L157.393 41.7575C158.073 40.9975 158.633 40.2308 159.073 39.4575C159.513 38.6708 159.86 37.8508 160.113 36.9975C160.367 36.1442 160.54 35.2308 160.633 34.2575C160.74 33.2708 160.793 32.1975 160.793 31.0375V30.7175ZM158.253 30.7175H161.813V32.8575H158.253V30.7175ZM165.933 30.7175H168.433C168.433 32.0375 168.387 33.3175 168.293 34.5575C168.2 35.7842 168.027 36.9708 167.773 38.1175C167.52 39.2508 167.153 40.3508 166.673 41.4175C166.193 42.4842 165.573 43.5042 164.813 44.4775L162.673 43.0375C163.34 42.1708 163.88 41.2908 164.293 40.3975C164.72 39.5042 165.053 38.5775 165.293 37.6175C165.533 36.6442 165.7 35.6175 165.793 34.5375C165.887 33.4442 165.933 32.2642 165.933 30.9975V30.7175ZM163.933 30.7175H166.993V32.8575H163.933V30.7175ZM181.872 30.0575C182.832 30.0575 183.698 30.2508 184.472 30.6375C185.245 31.0242 185.852 31.5642 186.292 32.2575C186.732 32.9375 186.952 33.7242 186.952 34.6175C186.952 35.4975 186.732 36.2842 186.292 36.9775C185.852 37.6708 185.245 38.2108 184.472 38.5975C183.698 38.9842 182.832 39.1775 181.872 39.1775C180.898 39.1775 180.025 38.9842 179.252 38.5975C178.478 38.2108 177.865 37.6708 177.412 36.9775C176.972 36.2842 176.752 35.4975 176.752 34.6175C176.752 33.7242 176.972 32.9375 177.412 32.2575C177.865 31.5642 178.478 31.0242 179.252 30.6375C180.025 30.2508 180.898 30.0575 181.872 30.0575ZM181.872 32.3375C181.392 32.3375 180.958 32.4308 180.572 32.6175C180.198 32.7908 179.898 33.0508 179.672 33.3975C179.458 33.7308 179.352 34.1375 179.352 34.6175C179.352 35.0975 179.458 35.5108 179.672 35.8575C179.898 36.2042 180.198 36.4708 180.572 36.6575C180.958 36.8308 181.392 36.9175 181.872 36.9175C182.338 36.9175 182.758 36.8308 183.132 36.6575C183.505 36.4708 183.798 36.2042 184.012 35.8575C184.238 35.5108 184.352 35.0975 184.352 34.6175C184.352 34.1375 184.238 33.7308 184.012 33.3975C183.798 33.0508 183.505 32.7908 183.132 32.6175C182.758 32.4308 182.338 32.3375 181.872 32.3375ZM188.692 28.7975H191.352V47.3775H188.692V28.7975ZM176.292 43.6375L175.992 41.4775C177.072 41.4775 178.265 41.4708 179.572 41.4575C180.892 41.4308 182.245 41.3775 183.632 41.2975C185.032 41.2042 186.385 41.0642 187.692 40.8775L187.872 42.7975C186.538 43.0642 185.185 43.2575 183.812 43.3775C182.438 43.4842 181.112 43.5575 179.832 43.5975C178.552 43.6242 177.372 43.6375 176.292 43.6375ZM199.603 43.0375H216.383V45.1975H199.603V43.0375ZM206.643 38.9575H209.283V43.5575H206.643V38.9575ZM201.363 30.1975H214.543V39.2975H201.363V30.1975ZM211.923 32.2975H203.983V37.1775H211.923V32.2975ZM230.821 28.8375H233.501V40.0175H230.821V28.8375ZM228.521 34.2375H231.901V36.3975H228.521V34.2375ZM221.141 40.7975H233.501V47.1575H221.141V40.7975ZM230.881 42.8775H223.761V45.0575H230.881V42.8775ZM218.041 30.4375H228.861V32.5375H218.041V30.4375ZM223.461 33.1375C224.328 33.1375 225.095 33.2775 225.761 33.5575C226.428 33.8375 226.948 34.2308 227.321 34.7375C227.708 35.2308 227.901 35.8108 227.901 36.4775C227.901 37.1308 227.708 37.7108 227.321 38.2175C226.948 38.7108 226.428 39.0975 225.761 39.3775C225.095 39.6575 224.328 39.7975 223.461 39.7975C222.608 39.7975 221.841 39.6575 221.161 39.3775C220.495 39.0975 219.968 38.7108 219.581 38.2175C219.208 37.7108 219.021 37.1308 219.021 36.4775C219.021 35.8108 219.208 35.2308 219.581 34.7375C219.968 34.2308 220.495 33.8375 221.161 33.5575C221.841 33.2775 222.608 33.1375 223.461 33.1375ZM223.481 35.0975C223.095 35.0975 222.755 35.1508 222.461 35.2575C222.181 35.3642 221.961 35.5175 221.801 35.7175C221.641 35.9175 221.561 36.1642 221.561 36.4575C221.561 36.7642 221.641 37.0242 221.801 37.2375C221.961 37.4375 222.188 37.5908 222.481 37.6975C222.775 37.8042 223.101 37.8575 223.461 37.8575C223.848 37.8575 224.181 37.8042 224.461 37.6975C224.741 37.5908 224.961 37.4375 225.121 37.2375C225.281 37.0242 225.361 36.7642 225.361 36.4575C225.361 36.1642 225.281 35.9175 225.121 35.7175C224.961 35.5175 224.741 35.3642 224.461 35.2575C224.181 35.1508 223.855 35.0975 223.481 35.0975ZM222.141 28.6775H224.781V31.9175H222.141V28.6775Z" fill="#5A5A5A"/>
<path d="M33.783 122.159C34.355 122.159 34.862 122.328 35.304 122.666C35.746 122.995 36.0883 123.468 36.331 124.083C36.5823 124.698 36.708 125.422 36.708 126.254C36.708 127.086 36.5823 127.81 36.331 128.425C36.0883 129.04 35.746 129.517 35.304 129.855C34.862 130.193 34.355 130.362 33.783 130.362C33.2197 130.362 32.7127 130.193 32.262 129.855C31.82 129.517 31.4733 129.04 31.222 128.425C30.9793 127.81 30.858 127.086 30.858 126.254C30.858 125.422 30.9793 124.698 31.222 124.083C31.4733 123.468 31.82 122.995 32.262 122.666C32.7127 122.328 33.2197 122.159 33.783 122.159ZM33.783 123.121C33.4103 123.121 33.081 123.251 32.795 123.511C32.509 123.762 32.2837 124.126 32.119 124.603C31.963 125.071 31.885 125.621 31.885 126.254C31.885 126.887 31.963 127.441 32.119 127.918C32.2837 128.386 32.509 128.75 32.795 129.01C33.081 129.27 33.4103 129.4 33.783 129.4C34.1643 129.4 34.498 129.27 34.784 129.01C35.07 128.75 35.291 128.386 35.447 127.918C35.6117 127.441 35.694 126.887 35.694 126.254C35.694 125.621 35.6117 125.071 35.447 124.603C35.291 124.126 35.07 123.762 34.784 123.511C34.498 123.251 34.1643 123.121 33.783 123.121ZM39.256 121.249H40.322V133.027H39.256V121.249ZM36.357 125.734H39.737V126.605H36.357V125.734ZM43.909 126.566H52.047V127.463H43.909V126.566ZM42.609 130.492H53.269V131.402H42.609V130.492ZM43.909 122.276H44.988V126.969H43.909V122.276ZM60.7043 122.458H61.5883V123.407C61.5883 124.126 61.4496 124.798 61.1723 125.422C60.9036 126.037 60.5266 126.575 60.0413 127.034C59.5559 127.485 58.9839 127.827 58.3253 128.061L57.7533 127.229C58.3426 127.021 58.8583 126.722 59.3003 126.332C59.7423 125.942 60.0846 125.5 60.3273 125.006C60.5786 124.503 60.7043 123.97 60.7043 123.407V122.458ZM60.8993 122.458H61.7833V123.407C61.7833 123.918 61.9003 124.412 62.1343 124.889C62.3683 125.366 62.6976 125.786 63.1223 126.15C63.5556 126.514 64.0583 126.796 64.6303 126.995L64.0843 127.84C63.4429 127.606 62.8796 127.272 62.3943 126.839C61.9176 126.397 61.5493 125.881 61.2893 125.292C61.0293 124.703 60.8993 124.074 60.8993 123.407V122.458ZM58.0783 122.068H64.3703V122.952H58.0783V122.068ZM65.8523 121.249H66.9313V128.334H65.8523V121.249ZM66.6323 124.343H68.6603V125.253H66.6323V124.343ZM59.2873 128.958H66.9313V133.014H65.8523V129.842H59.2873V128.958ZM69.7643 127.437H80.3853V128.308H69.7643V127.437ZM71.1293 131.87H79.2023V132.754H71.1293V131.87ZM71.1293 129.348H72.2083V132.13H71.1293V129.348ZM75.0683 121.652C75.9089 121.652 76.6369 121.747 77.2523 121.938C77.8763 122.12 78.3573 122.389 78.6953 122.744C79.0333 123.091 79.2023 123.507 79.2023 123.992C79.2023 124.477 79.0333 124.898 78.6953 125.253C78.3573 125.608 77.8763 125.881 77.2523 126.072C76.6369 126.254 75.9089 126.345 75.0683 126.345C74.2276 126.345 73.4953 126.254 72.8713 126.072C72.2559 125.881 71.7793 125.608 71.4413 125.253C71.1033 124.898 70.9343 124.477 70.9343 123.992C70.9343 123.507 71.1033 123.091 71.4413 122.744C71.7793 122.389 72.2559 122.12 72.8713 121.938C73.4953 121.747 74.2276 121.652 75.0683 121.652ZM75.0683 122.523C74.4616 122.523 73.9286 122.584 73.4693 122.705C73.0186 122.818 72.6676 122.987 72.4163 123.212C72.1649 123.429 72.0393 123.689 72.0393 123.992C72.0393 124.295 72.1649 124.56 72.4163 124.785C72.6676 125.002 73.0186 125.171 73.4693 125.292C73.9286 125.405 74.4616 125.461 75.0683 125.461C75.6923 125.461 76.2296 125.405 76.6803 125.292C77.1309 125.171 77.4776 125.002 77.7203 124.785C77.9716 124.56 78.0973 124.295 78.0973 123.992C78.0973 123.689 77.9716 123.429 77.7203 123.212C77.4776 122.987 77.1309 122.818 76.6803 122.705C76.2296 122.584 75.6923 122.523 75.0683 122.523ZM85.4285 122.432H90.8235V130.024H85.4285V122.432ZM89.7575 123.29H86.4815V129.153H89.7575V123.29ZM92.9165 121.249H93.9955V133.014H92.9165V121.249ZM93.7485 125.942H95.9195V126.852H93.7485V125.942ZM102.224 121.457C103.524 121.457 104.538 121.635 105.266 121.99C105.994 122.337 106.358 122.835 106.358 123.485C106.358 124.144 105.994 124.651 105.266 125.006C104.538 125.353 103.524 125.526 102.224 125.526C100.932 125.526 99.9182 125.353 99.1815 125.006C98.4535 124.651 98.0895 124.144 98.0895 123.485C98.0895 122.835 98.4535 122.337 99.1815 121.99C99.9182 121.635 100.932 121.457 102.224 121.457ZM102.224 122.263C101.591 122.263 101.049 122.311 100.599 122.406C100.148 122.501 99.8012 122.64 99.5585 122.822C99.3245 123.004 99.2075 123.225 99.2075 123.485C99.2075 123.745 99.3245 123.97 99.5585 124.161C99.8012 124.343 100.148 124.482 100.599 124.577C101.049 124.664 101.591 124.707 102.224 124.707C102.865 124.707 103.411 124.664 103.862 124.577C104.312 124.482 104.655 124.343 104.889 124.161C105.131 123.97 105.253 123.745 105.253 123.485C105.253 123.225 105.131 123.004 104.889 122.822C104.655 122.64 104.312 122.501 103.862 122.406C103.411 122.311 102.865 122.263 102.224 122.263ZM96.9195 126.319H107.541V127.19H96.9195V126.319ZM98.2065 128.191H106.176V130.843H99.2855V132.26H98.2325V130.05H105.123V129.023H98.2065V128.191ZM98.2325 132.039H106.527V132.884H98.2325V132.039ZM113.65 125.825H115.86V126.709H113.65V125.825ZM117.836 121.249H118.876V133.014H117.836V121.249ZM115.496 121.496H116.523V132.416H115.496V121.496ZM111.518 122.237C112.029 122.237 112.471 122.402 112.844 122.731C113.225 123.06 113.52 123.533 113.728 124.148C113.936 124.763 114.04 125.487 114.04 126.319C114.04 127.16 113.936 127.888 113.728 128.503C113.52 129.118 113.225 129.595 112.844 129.933C112.471 130.262 112.029 130.427 111.518 130.427C111.024 130.427 110.586 130.262 110.205 129.933C109.832 129.595 109.542 129.118 109.334 128.503C109.126 127.888 109.022 127.16 109.022 126.319C109.022 125.487 109.126 124.763 109.334 124.148C109.542 123.533 109.832 123.06 110.205 122.731C110.586 122.402 111.024 122.237 111.518 122.237ZM111.518 123.238C111.214 123.238 110.95 123.364 110.725 123.615C110.499 123.866 110.326 124.222 110.205 124.681C110.083 125.14 110.023 125.686 110.023 126.319C110.023 126.952 110.083 127.502 110.205 127.97C110.326 128.429 110.499 128.785 110.725 129.036C110.95 129.287 111.214 129.413 111.518 129.413C111.83 129.413 112.098 129.287 112.324 129.036C112.558 128.785 112.735 128.429 112.857 127.97C112.978 127.502 113.039 126.952 113.039 126.319C113.039 125.686 112.978 125.14 112.857 124.681C112.735 124.222 112.558 123.866 112.324 123.615C112.098 123.364 111.83 123.238 111.518 123.238ZM124.595 122.978H134.15V123.862H124.595V122.978ZM124.075 130.752H134.735V131.636H124.075V130.752ZM128.846 128.88H129.912V131.09H128.846V128.88ZM129.379 124.642C130.167 124.642 130.848 124.733 131.42 124.915C132 125.088 132.447 125.34 132.759 125.669C133.071 125.998 133.227 126.401 133.227 126.878C133.227 127.346 133.071 127.749 132.759 128.087C132.447 128.425 132 128.685 131.42 128.867C130.848 129.04 130.167 129.127 129.379 129.127C128.59 129.127 127.905 129.04 127.325 128.867C126.753 128.685 126.311 128.425 125.999 128.087C125.687 127.749 125.531 127.346 125.531 126.878C125.531 126.401 125.687 125.998 125.999 125.669C126.311 125.34 126.753 125.088 127.325 124.915C127.905 124.733 128.59 124.642 129.379 124.642ZM129.379 125.5C128.807 125.5 128.313 125.556 127.897 125.669C127.489 125.773 127.173 125.929 126.948 126.137C126.731 126.336 126.623 126.583 126.623 126.878C126.623 127.164 126.731 127.411 126.948 127.619C127.173 127.827 127.489 127.987 127.897 128.1C128.313 128.204 128.807 128.256 129.379 128.256C129.951 128.256 130.44 128.204 130.848 128.1C131.255 127.987 131.571 127.827 131.797 127.619C132.022 127.411 132.135 127.164 132.135 126.878C132.135 126.583 132.022 126.336 131.797 126.137C131.571 125.929 131.255 125.773 130.848 125.669C130.44 125.556 129.951 125.5 129.379 125.5ZM128.846 121.444H129.912V123.511H128.846V121.444ZM144.601 121.249H145.68V133.014H144.601V121.249ZM141.156 122.523H142.222C142.222 123.372 142.118 124.191 141.91 124.98C141.71 125.769 141.394 126.518 140.961 127.229C140.527 127.931 139.964 128.585 139.271 129.192C138.577 129.799 137.737 130.34 136.749 130.817L136.177 129.946C137.312 129.4 138.248 128.763 138.985 128.035C139.721 127.307 140.267 126.497 140.623 125.604C140.978 124.703 141.156 123.732 141.156 122.692V122.523ZM136.723 122.523H141.611V123.394H136.723V122.523ZM156.547 121.262H157.626V127.931H156.547V121.262ZM150.034 128.607H157.626V132.858H150.034V128.607ZM156.573 129.478H151.087V131.974H156.573V129.478ZM151.048 121.717H151.945V122.861C151.945 123.589 151.806 124.274 151.529 124.915C151.251 125.548 150.861 126.098 150.359 126.566C149.865 127.034 149.284 127.394 148.617 127.645L148.084 126.787C148.526 126.631 148.929 126.419 149.293 126.15C149.657 125.881 149.969 125.574 150.229 125.227C150.497 124.88 150.701 124.508 150.84 124.109C150.978 123.702 151.048 123.286 151.048 122.861V121.717ZM151.243 121.717H152.14V122.861C152.14 123.277 152.209 123.676 152.348 124.057C152.495 124.438 152.699 124.794 152.959 125.123C153.227 125.444 153.539 125.73 153.895 125.981C154.259 126.232 154.657 126.432 155.091 126.579L154.558 127.411C154.072 127.246 153.626 127.017 153.219 126.722C152.811 126.427 152.46 126.081 152.166 125.682C151.871 125.283 151.641 124.846 151.477 124.369C151.321 123.892 151.243 123.39 151.243 122.861V121.717ZM171.236 121.249H172.315V127.255H171.236V121.249ZM171.847 123.901H174.044V124.798H171.847V123.901ZM163.67 122.029H169.078V126.826H163.67V122.029ZM168.025 122.887H164.723V125.955H168.025V122.887ZM164.411 131.818H164.983C165.217 131.818 165.49 131.809 165.802 131.792C166.114 131.766 166.443 131.727 166.79 131.675C167.137 131.614 167.479 131.528 167.817 131.415L167.986 132.273C167.613 132.394 167.245 132.485 166.881 132.546C166.526 132.607 166.188 132.646 165.867 132.663C165.546 132.689 165.252 132.702 164.983 132.702H164.411V131.818ZM164.411 128.321H165.464V132.052H164.411V128.321ZM167.57 128.451H173.459V129.257H167.57V128.451ZM170.521 129.686C171.162 129.686 171.682 129.838 172.081 130.141C172.488 130.436 172.692 130.834 172.692 131.337C172.692 131.848 172.488 132.251 172.081 132.546C171.682 132.841 171.162 132.988 170.521 132.988C169.88 132.988 169.355 132.841 168.948 132.546C168.541 132.251 168.337 131.848 168.337 131.337C168.337 130.834 168.541 130.436 168.948 130.141C169.355 129.838 169.88 129.686 170.521 129.686ZM170.521 130.453C170.166 130.453 169.871 130.535 169.637 130.7C169.412 130.856 169.299 131.068 169.299 131.337C169.299 131.606 169.412 131.822 169.637 131.987C169.871 132.152 170.166 132.234 170.521 132.234C170.876 132.234 171.167 132.152 171.392 131.987C171.617 131.822 171.73 131.606 171.73 131.337C171.73 131.068 171.617 130.856 171.392 130.7C171.167 130.535 170.876 130.453 170.521 130.453ZM170.001 127.411H171.054V129.023H170.001V127.411ZM175.148 127.437H185.769V128.308H175.148V127.437ZM176.513 131.87H184.586V132.754H176.513V131.87ZM176.513 129.348H177.592V132.13H176.513V129.348ZM180.452 121.652C181.293 121.652 182.021 121.747 182.636 121.938C183.26 122.12 183.741 122.389 184.079 122.744C184.417 123.091 184.586 123.507 184.586 123.992C184.586 124.477 184.417 124.898 184.079 125.253C183.741 125.608 183.26 125.881 182.636 126.072C182.021 126.254 181.293 126.345 180.452 126.345C179.611 126.345 178.879 126.254 178.255 126.072C177.64 125.881 177.163 125.608 176.825 125.253C176.487 124.898 176.318 124.477 176.318 123.992C176.318 123.507 176.487 123.091 176.825 122.744C177.163 122.389 177.64 122.12 178.255 121.938C178.879 121.747 179.611 121.652 180.452 121.652ZM180.452 122.523C179.845 122.523 179.312 122.584 178.853 122.705C178.402 122.818 178.051 122.987 177.8 123.212C177.549 123.429 177.423 123.689 177.423 123.992C177.423 124.295 177.549 124.56 177.8 124.785C178.051 125.002 178.402 125.171 178.853 125.292C179.312 125.405 179.845 125.461 180.452 125.461C181.076 125.461 181.613 125.405 182.064 125.292C182.515 125.171 182.861 125.002 183.104 124.785C183.355 124.56 183.481 124.295 183.481 123.992C183.481 123.689 183.355 123.429 183.104 123.212C182.861 122.987 182.515 122.818 182.064 122.705C181.613 122.584 181.076 122.523 180.452 122.523ZM191.475 122.432H199.041V123.316H191.475V122.432ZM190.344 130.466H200.965V131.363H190.344V130.466ZM194.478 126.267H195.544V130.921H194.478V126.267ZM198.625 122.432H199.704V123.589C199.704 124.074 199.696 124.586 199.678 125.123C199.67 125.66 199.635 126.25 199.574 126.891C199.522 127.532 199.423 128.247 199.275 129.036L198.183 128.906C198.409 127.779 198.539 126.791 198.573 125.942C198.608 125.084 198.625 124.3 198.625 123.589V122.432ZM211.104 123.004H213.132V123.901H211.104V123.004ZM211.104 125.513H213.132V126.41H211.104V125.513ZM205.579 121.951C206.177 121.951 206.706 122.068 207.165 122.302C207.625 122.536 207.984 122.861 208.244 123.277C208.513 123.693 208.647 124.174 208.647 124.72C208.647 125.275 208.513 125.76 208.244 126.176C207.984 126.583 207.625 126.904 207.165 127.138C206.706 127.372 206.177 127.489 205.579 127.489C204.999 127.489 204.474 127.372 204.006 127.138C203.547 126.904 203.183 126.583 202.914 126.176C202.646 125.76 202.511 125.275 202.511 124.72C202.511 124.174 202.646 123.693 202.914 123.277C203.183 122.861 203.547 122.536 204.006 122.302C204.474 122.068 204.999 121.951 205.579 121.951ZM205.579 122.861C205.198 122.861 204.856 122.943 204.552 123.108C204.249 123.264 204.006 123.481 203.824 123.758C203.651 124.035 203.564 124.356 203.564 124.72C203.564 125.093 203.651 125.418 203.824 125.695C204.006 125.972 204.249 126.189 204.552 126.345C204.856 126.501 205.198 126.579 205.579 126.579C205.969 126.579 206.316 126.501 206.619 126.345C206.923 126.189 207.161 125.972 207.334 125.695C207.516 125.418 207.607 125.093 207.607 124.72C207.607 124.356 207.516 124.035 207.334 123.758C207.161 123.481 206.923 123.264 206.619 123.108C206.316 122.943 205.969 122.861 205.579 122.861ZM210.35 121.249H211.429V128.217H210.35V121.249ZM207.685 128.581C208.474 128.581 209.159 128.672 209.739 128.854C210.32 129.027 210.766 129.279 211.078 129.608C211.39 129.929 211.546 130.323 211.546 130.791C211.546 131.25 211.39 131.645 211.078 131.974C210.766 132.295 210.32 132.542 209.739 132.715C209.159 132.897 208.474 132.988 207.685 132.988C206.888 132.988 206.199 132.897 205.618 132.715C205.038 132.542 204.591 132.295 204.279 131.974C203.967 131.645 203.811 131.25 203.811 130.791C203.811 130.323 203.967 129.929 204.279 129.608C204.591 129.279 205.038 129.027 205.618 128.854C206.199 128.672 206.888 128.581 207.685 128.581ZM207.685 129.452C207.105 129.452 206.602 129.504 206.177 129.608C205.761 129.712 205.441 129.864 205.215 130.063C204.99 130.262 204.877 130.505 204.877 130.791C204.877 131.068 204.99 131.307 205.215 131.506C205.441 131.705 205.761 131.857 206.177 131.961C206.602 132.065 207.105 132.117 207.685 132.117C208.266 132.117 208.764 132.065 209.18 131.961C209.596 131.857 209.917 131.705 210.142 131.506C210.368 131.307 210.48 131.068 210.48 130.791C210.48 130.505 210.368 130.262 210.142 130.063C209.917 129.864 209.596 129.712 209.18 129.608C208.764 129.504 208.266 129.452 207.685 129.452ZM222.803 121.249H223.882V133.027H222.803V121.249ZM217.681 122.159C218.262 122.159 218.773 122.328 219.215 122.666C219.666 122.995 220.017 123.468 220.268 124.083C220.528 124.698 220.658 125.422 220.658 126.254C220.658 127.086 220.528 127.81 220.268 128.425C220.017 129.04 219.666 129.517 219.215 129.855C218.773 130.193 218.262 130.362 217.681 130.362C217.101 130.362 216.585 130.193 216.134 129.855C215.684 129.517 215.328 129.04 215.068 128.425C214.817 127.81 214.691 127.086 214.691 126.254C214.691 125.422 214.817 124.698 215.068 124.083C215.328 123.468 215.684 122.995 216.134 122.666C216.585 122.328 217.101 122.159 217.681 122.159ZM217.681 123.121C217.291 123.121 216.949 123.251 216.654 123.511C216.368 123.762 216.143 124.126 215.978 124.603C215.814 125.071 215.731 125.621 215.731 126.254C215.731 126.887 215.814 127.441 215.978 127.918C216.143 128.386 216.368 128.75 216.654 129.01C216.949 129.27 217.291 129.4 217.681 129.4C218.063 129.4 218.396 129.27 218.682 129.01C218.977 128.75 219.207 128.386 219.371 127.918C219.536 127.441 219.618 126.887 219.618 126.254C219.618 125.621 219.536 125.071 219.371 124.603C219.207 124.126 218.977 123.762 218.682 123.511C218.396 123.251 218.063 123.121 217.681 123.121ZM234.177 121.249H235.256V133.001H234.177V121.249ZM234.97 126.02H237.128V126.917H234.97V126.02ZM231.174 122.51H232.227C232.227 123.628 232.045 124.698 231.681 125.721C231.317 126.735 230.745 127.675 229.965 128.542C229.185 129.4 228.158 130.145 226.884 130.778L226.286 129.946C227.378 129.4 228.284 128.763 229.003 128.035C229.731 127.298 230.273 126.484 230.628 125.591C230.992 124.69 231.174 123.719 231.174 122.679V122.51ZM226.832 122.51H231.72V123.407H226.832V122.51ZM244.291 121.652H245.175V122.575C245.175 123.312 245.036 123.992 244.759 124.616C244.49 125.24 244.109 125.777 243.615 126.228C243.129 126.679 242.553 127.025 241.886 127.268L241.353 126.397C241.942 126.198 242.458 125.912 242.9 125.539C243.342 125.158 243.684 124.716 243.927 124.213C244.169 123.702 244.291 123.156 244.291 122.575V121.652ZM244.486 121.652H245.357V122.562C245.357 123.082 245.474 123.576 245.708 124.044C245.95 124.512 246.288 124.919 246.722 125.266C247.155 125.613 247.658 125.881 248.23 126.072L247.671 126.904C247.029 126.687 246.47 126.371 245.994 125.955C245.517 125.53 245.144 125.028 244.876 124.447C244.616 123.866 244.486 123.238 244.486 122.562V121.652ZM249.465 121.249H250.544V127.385H249.465V121.249ZM250.063 123.81H252.273V124.707H250.063V123.81ZM243.069 127.918H250.544V130.739H244.161V132.507H243.108V129.933H249.478V128.776H243.069V127.918ZM243.108 132.013H250.96V132.884H243.108V132.013ZM254.508 122.432H262.074V123.316H254.508V122.432ZM253.377 130.466H263.998V131.363H253.377V130.466ZM257.511 126.267H258.577V130.921H257.511V126.267ZM261.658 122.432H262.737V123.589C262.737 124.074 262.728 124.586 262.711 125.123C262.702 125.66 262.667 126.25 262.607 126.891C262.555 127.532 262.455 128.247 262.308 129.036L261.216 128.906C261.441 127.779 261.571 126.791 261.606 125.942C261.64 125.084 261.658 124.3 261.658 123.589V122.432ZM271.498 128.49H272.343V129.114C272.343 129.625 272.239 130.128 272.031 130.622C271.823 131.116 271.52 131.558 271.121 131.948C270.731 132.338 270.25 132.637 269.678 132.845L269.145 132.052C269.639 131.87 270.059 131.619 270.406 131.298C270.761 130.977 271.03 130.631 271.212 130.258C271.403 129.877 271.498 129.495 271.498 129.114V128.49ZM271.745 128.49H272.538V129.114C272.538 129.513 272.616 129.907 272.772 130.297C272.928 130.687 273.162 131.042 273.474 131.363C273.795 131.684 274.185 131.939 274.644 132.13L274.202 132.949C273.63 132.724 273.162 132.412 272.798 132.013C272.443 131.614 272.178 131.164 272.005 130.661C271.832 130.15 271.745 129.634 271.745 129.114V128.49ZM275.853 128.49H276.646V129.114C276.646 129.573 276.555 130.054 276.373 130.557C276.2 131.06 275.931 131.528 275.567 131.961C275.212 132.386 274.757 132.715 274.202 132.949L273.734 132.13C274.202 131.913 274.592 131.636 274.904 131.298C275.216 130.951 275.45 130.587 275.606 130.206C275.771 129.816 275.853 129.452 275.853 129.114V128.49ZM276.061 128.49H276.906V129.114C276.906 129.521 276.997 129.916 277.179 130.297C277.37 130.678 277.638 131.025 277.985 131.337C278.34 131.64 278.765 131.879 279.259 132.052L278.726 132.845C278.154 132.637 277.669 132.347 277.27 131.974C276.871 131.593 276.568 131.159 276.36 130.674C276.161 130.18 276.061 129.66 276.061 129.114V128.49ZM277.127 121.262H278.206V127.97H277.127V121.262ZM271.901 121.938C272.499 121.938 273.028 122.055 273.487 122.289C273.946 122.523 274.306 122.848 274.566 123.264C274.835 123.671 274.969 124.148 274.969 124.694C274.969 125.231 274.835 125.704 274.566 126.111C274.306 126.518 273.946 126.839 273.487 127.073C273.028 127.307 272.499 127.424 271.901 127.424C271.312 127.424 270.783 127.307 270.315 127.073C269.856 126.839 269.492 126.518 269.223 126.111C268.963 125.704 268.833 125.231 268.833 124.694C268.833 124.148 268.963 123.671 269.223 123.264C269.492 122.848 269.856 122.523 270.315 122.289C270.783 122.055 271.312 121.938 271.901 121.938ZM271.901 122.848C271.52 122.848 271.177 122.926 270.874 123.082C270.571 123.238 270.328 123.455 270.146 123.732C269.973 124.001 269.886 124.321 269.886 124.694C269.886 125.058 269.973 125.379 270.146 125.656C270.328 125.925 270.571 126.137 270.874 126.293C271.177 126.449 271.52 126.527 271.901 126.527C272.291 126.527 272.638 126.449 272.941 126.293C273.244 126.137 273.483 125.925 273.656 125.656C273.829 125.379 273.916 125.058 273.916 124.694C273.916 124.321 273.829 124.001 273.656 123.732C273.483 123.455 273.244 123.238 272.941 123.082C272.638 122.926 272.291 122.848 271.901 122.848ZM283.535 128.412H284.38V129.101C284.38 129.612 284.276 130.119 284.068 130.622C283.86 131.116 283.557 131.558 283.158 131.948C282.768 132.338 282.287 132.641 281.715 132.858L281.182 132.052C281.676 131.87 282.096 131.623 282.443 131.311C282.798 130.99 283.067 130.639 283.249 130.258C283.44 129.868 283.535 129.482 283.535 129.101V128.412ZM283.769 128.412H284.575V129.101C284.575 129.5 284.653 129.898 284.809 130.297C284.965 130.687 285.199 131.047 285.511 131.376C285.823 131.697 286.217 131.957 286.694 132.156L286.226 132.962C285.663 132.737 285.199 132.42 284.835 132.013C284.471 131.606 284.202 131.151 284.029 130.648C283.856 130.137 283.769 129.621 283.769 129.101V128.412ZM287.877 128.412H288.683V129.101C288.683 129.56 288.596 130.046 288.423 130.557C288.25 131.06 287.981 131.528 287.617 131.961C287.253 132.394 286.789 132.728 286.226 132.962L285.771 132.156C286.239 131.931 286.629 131.645 286.941 131.298C287.253 130.951 287.487 130.583 287.643 130.193C287.799 129.803 287.877 129.439 287.877 129.101V128.412ZM288.098 128.412H288.93V129.101C288.93 129.508 289.021 129.907 289.203 130.297C289.394 130.687 289.662 131.034 290.009 131.337C290.364 131.64 290.793 131.879 291.296 132.052L290.75 132.858C290.178 132.65 289.693 132.355 289.294 131.974C288.904 131.593 288.605 131.155 288.397 130.661C288.198 130.167 288.098 129.647 288.098 129.101V128.412ZM286.317 124.2H289.424V125.084H286.317V124.2ZM283.743 121.912C284.315 121.912 284.826 122.029 285.277 122.263C285.736 122.497 286.096 122.822 286.356 123.238C286.616 123.654 286.746 124.131 286.746 124.668C286.746 125.214 286.616 125.695 286.356 126.111C286.096 126.518 285.736 126.839 285.277 127.073C284.826 127.307 284.315 127.424 283.743 127.424C283.162 127.424 282.642 127.307 282.183 127.073C281.732 126.839 281.377 126.518 281.117 126.111C280.857 125.695 280.727 125.214 280.727 124.668C280.727 124.131 280.857 123.654 281.117 123.238C281.377 122.822 281.732 122.497 282.183 122.263C282.642 122.029 283.162 121.912 283.743 121.912ZM283.743 122.822C283.362 122.822 283.019 122.9 282.716 123.056C282.421 123.212 282.187 123.433 282.014 123.719C281.841 123.996 281.754 124.313 281.754 124.668C281.754 125.032 281.841 125.353 282.014 125.63C282.187 125.907 282.421 126.128 282.716 126.293C283.019 126.449 283.362 126.527 283.743 126.527C284.116 126.527 284.449 126.449 284.744 126.293C285.047 126.128 285.286 125.907 285.459 125.63C285.632 125.353 285.719 125.032 285.719 124.668C285.719 124.313 285.632 123.996 285.459 123.719C285.286 123.433 285.047 123.212 284.744 123.056C284.449 122.9 284.116 122.822 283.743 122.822ZM289.125 121.249H290.204V127.957H289.125V121.249ZM295.624 122.159C296.196 122.159 296.703 122.328 297.145 122.666C297.587 122.995 297.929 123.468 298.172 124.083C298.423 124.698 298.549 125.422 298.549 126.254C298.549 127.086 298.423 127.81 298.172 128.425C297.929 129.04 297.587 129.517 297.145 129.855C296.703 130.193 296.196 130.362 295.624 130.362C295.06 130.362 294.553 130.193 294.103 129.855C293.661 129.517 293.314 129.04 293.063 128.425C292.82 127.81 292.699 127.086 292.699 126.254C292.699 125.422 292.82 124.698 293.063 124.083C293.314 123.468 293.661 122.995 294.103 122.666C294.553 122.328 295.06 122.159 295.624 122.159ZM295.624 123.121C295.251 123.121 294.922 123.251 294.636 123.511C294.35 123.762 294.124 124.126 293.96 124.603C293.804 125.071 293.726 125.621 293.726 126.254C293.726 126.887 293.804 127.441 293.96 127.918C294.124 128.386 294.35 128.75 294.636 129.01C294.922 129.27 295.251 129.4 295.624 129.4C296.005 129.4 296.339 129.27 296.625 129.01C296.911 128.75 297.132 128.386 297.288 127.918C297.452 127.441 297.535 126.887 297.535 126.254C297.535 125.621 297.452 125.071 297.288 124.603C297.132 124.126 296.911 123.762 296.625 123.511C296.339 123.251 296.005 123.121 295.624 123.121ZM301.097 121.249H302.163V133.027H301.097V121.249ZM298.198 125.734H301.578V126.605H298.198V125.734ZM304.65 131.238C304.65 131.001 304.731 130.802 304.892 130.642C305.052 130.477 305.27 130.394 305.545 130.394C305.825 130.394 306.043 130.477 306.199 130.642C306.36 130.802 306.44 131.001 306.44 131.238C306.44 131.475 306.36 131.674 306.199 131.835C306.043 131.996 305.825 132.076 305.545 132.076C305.27 132.076 305.052 131.996 304.892 131.835C304.731 131.674 304.65 131.475 304.65 131.238ZM31.781 144.432H39.347V145.316H31.781V144.432ZM30.65 152.466H41.271V153.363H30.65V152.466ZM34.784 148.267H35.85V152.921H34.784V148.267ZM38.931 144.432H40.01V145.589C40.01 146.074 40.0013 146.586 39.984 147.123C39.9753 147.66 39.9407 148.25 39.88 148.891C39.828 149.532 39.7283 150.247 39.581 151.036L38.489 150.906C38.7143 149.779 38.8443 148.791 38.879 147.942C38.9137 147.084 38.931 146.3 38.931 145.589V144.432ZM51.41 145.004H53.438V145.901H51.41V145.004ZM51.41 147.513H53.438V148.41H51.41V147.513ZM45.885 143.951C46.483 143.951 47.0117 144.068 47.471 144.302C47.9303 144.536 48.29 144.861 48.55 145.277C48.8187 145.693 48.953 146.174 48.953 146.72C48.953 147.275 48.8187 147.76 48.55 148.176C48.29 148.583 47.9303 148.904 47.471 149.138C47.0117 149.372 46.483 149.489 45.885 149.489C45.3043 149.489 44.78 149.372 44.312 149.138C43.8527 148.904 43.4887 148.583 43.22 148.176C42.9513 147.76 42.817 147.275 42.817 146.72C42.817 146.174 42.9513 145.693 43.22 145.277C43.4887 144.861 43.8527 144.536 44.312 144.302C44.78 144.068 45.3043 143.951 45.885 143.951ZM45.885 144.861C45.5037 144.861 45.1613 144.943 44.858 145.108C44.5547 145.264 44.312 145.481 44.13 145.758C43.9567 146.035 43.87 146.356 43.87 146.72C43.87 147.093 43.9567 147.418 44.13 147.695C44.312 147.972 44.5547 148.189 44.858 148.345C45.1613 148.501 45.5037 148.579 45.885 148.579C46.275 148.579 46.6217 148.501 46.925 148.345C47.2283 148.189 47.4667 147.972 47.64 147.695C47.822 147.418 47.913 147.093 47.913 146.72C47.913 146.356 47.822 146.035 47.64 145.758C47.4667 145.481 47.2283 145.264 46.925 145.108C46.6217 144.943 46.275 144.861 45.885 144.861ZM50.656 143.249H51.735V150.217H50.656V143.249ZM47.991 150.581C48.7797 150.581 49.4643 150.672 50.045 150.854C50.6257 151.027 51.072 151.279 51.384 151.608C51.696 151.929 51.852 152.323 51.852 152.791C51.852 153.25 51.696 153.645 51.384 153.974C51.072 154.295 50.6257 154.542 50.045 154.715C49.4643 154.897 48.7797 154.988 47.991 154.988C47.1937 154.988 46.5047 154.897 45.924 154.715C45.3433 154.542 44.897 154.295 44.585 153.974C44.273 153.645 44.117 153.25 44.117 152.791C44.117 152.323 44.273 151.929 44.585 151.608C44.897 151.279 45.3433 151.027 45.924 150.854C46.5047 150.672 47.1937 150.581 47.991 150.581ZM47.991 151.452C47.4103 151.452 46.9077 151.504 46.483 151.608C46.067 151.712 45.7463 151.864 45.521 152.063C45.2957 152.262 45.183 152.505 45.183 152.791C45.183 153.068 45.2957 153.307 45.521 153.506C45.7463 153.705 46.067 153.857 46.483 153.961C46.9077 154.065 47.4103 154.117 47.991 154.117C48.5717 154.117 49.07 154.065 49.486 153.961C49.902 153.857 50.2227 153.705 50.448 153.506C50.6733 153.307 50.786 153.068 50.786 152.791C50.786 152.505 50.6733 152.262 50.448 152.063C50.2227 151.864 49.902 151.712 49.486 151.608C49.07 151.504 48.5717 151.452 47.991 151.452ZM63.109 143.249H64.188V155.027H63.109V143.249ZM57.987 144.159C58.5676 144.159 59.079 144.328 59.521 144.666C59.9716 144.995 60.3226 145.468 60.574 146.083C60.834 146.698 60.964 147.422 60.964 148.254C60.964 149.086 60.834 149.81 60.574 150.425C60.3226 151.04 59.9716 151.517 59.521 151.855C59.079 152.193 58.5676 152.362 57.987 152.362C57.4063 152.362 56.8906 152.193 56.44 151.855C55.9893 151.517 55.634 151.04 55.374 150.425C55.1226 149.81 54.997 149.086 54.997 148.254C54.997 147.422 55.1226 146.698 55.374 146.083C55.634 145.468 55.9893 144.995 56.44 144.666C56.8906 144.328 57.4063 144.159 57.987 144.159ZM57.987 145.121C57.597 145.121 57.2546 145.251 56.96 145.511C56.674 145.762 56.4486 146.126 56.284 146.603C56.1193 147.071 56.037 147.621 56.037 148.254C56.037 148.887 56.1193 149.441 56.284 149.918C56.4486 150.386 56.674 150.75 56.96 151.01C57.2546 151.27 57.597 151.4 57.987 151.4C58.3683 151.4 58.702 151.27 58.988 151.01C59.2826 150.75 59.5123 150.386 59.677 149.918C59.8416 149.441 59.924 148.887 59.924 148.254C59.924 147.621 59.8416 147.071 59.677 146.603C59.5123 146.126 59.2826 145.762 58.988 145.511C58.702 145.251 58.3683 145.121 57.987 145.121ZM67.957 146.785H75.952V147.656H67.957V146.785ZM66.514 149.229H77.174V150.113H66.514V149.229ZM67.957 143.678H69.023V147.227H67.957V143.678ZM67.879 153.844H76.017V154.728H67.879V153.844ZM67.879 151.296H68.958V154.078H67.879V151.296ZM83.4652 150.672H90.8492V154.858H83.4652V150.672ZM89.7832 151.543H84.5182V153.974H89.7832V151.543ZM89.7702 143.249H90.8492V150.022H89.7702V143.249ZM90.5502 146.044H92.5782V146.954H90.5502V146.044ZM82.2042 143.86H83.2702V145.628H86.5852V143.86H87.6512V149.294H82.2042V143.86ZM83.2702 146.486V148.41H86.5852V146.486H83.2702ZM101.651 143.249H102.717V155.014H101.651V143.249ZM102.47 148.085H104.641V148.995H102.47V148.085ZM93.6172 145.134H100.546V146.018H93.6172V145.134ZM97.1402 146.98C97.6949 146.98 98.1846 147.097 98.6092 147.331C99.0426 147.565 99.3806 147.886 99.6232 148.293C99.8746 148.692 100 149.155 100 149.684C100 150.213 99.8746 150.681 99.6232 151.088C99.3806 151.495 99.0426 151.816 98.6092 152.05C98.1846 152.275 97.6949 152.388 97.1402 152.388C96.5856 152.388 96.0916 152.275 95.6582 152.05C95.2336 151.816 94.8956 151.495 94.6442 151.088C94.3929 150.681 94.2672 150.213 94.2672 149.684C94.2672 149.155 94.3929 148.692 94.6442 148.293C94.8956 147.886 95.2336 147.565 95.6582 147.331C96.0916 147.097 96.5856 146.98 97.1402 146.98ZM97.1402 147.877C96.7849 147.877 96.4686 147.955 96.1912 148.111C95.9139 148.267 95.6929 148.479 95.5282 148.748C95.3722 149.017 95.2942 149.329 95.2942 149.684C95.2942 150.039 95.3722 150.356 95.5282 150.633C95.6929 150.902 95.9139 151.114 96.1912 151.27C96.4686 151.417 96.7849 151.491 97.1402 151.491C97.4869 151.491 97.7989 151.417 98.0762 151.27C98.3536 151.114 98.5702 150.902 98.7262 150.633C98.8909 150.356 98.9732 150.039 98.9732 149.684C98.9732 149.329 98.8909 149.017 98.7262 148.748C98.5702 148.479 98.3536 148.267 98.0762 148.111C97.7989 147.955 97.4869 147.877 97.1402 147.877ZM96.5812 143.392H97.6602V145.524H96.5812V143.392ZM107.071 146.044H115.04V146.928H107.071V146.044ZM105.628 148.072H116.288V148.956H105.628V148.072ZM107.071 143.431H108.124V146.46H107.071V143.431ZM106.954 149.996H114.936V152.765H108.059V154.273H106.98V151.959H113.87V150.841H106.954V149.996ZM106.98 154H115.339V154.858H106.98V154ZM121.409 144.107C122.025 144.107 122.566 144.224 123.034 144.458C123.511 144.683 123.884 145.004 124.152 145.42C124.421 145.836 124.555 146.321 124.555 146.876C124.555 147.422 124.421 147.907 124.152 148.332C123.884 148.748 123.511 149.073 123.034 149.307C122.566 149.532 122.025 149.645 121.409 149.645C120.803 149.645 120.261 149.532 119.784 149.307C119.308 149.073 118.931 148.748 118.653 148.332C118.385 147.907 118.25 147.422 118.25 146.876C118.25 146.321 118.385 145.836 118.653 145.42C118.931 145.004 119.308 144.683 119.784 144.458C120.261 144.224 120.803 144.107 121.409 144.107ZM121.409 145.043C121.011 145.043 120.651 145.121 120.33 145.277C120.018 145.424 119.771 145.637 119.589 145.914C119.407 146.191 119.316 146.512 119.316 146.876C119.316 147.24 119.407 147.561 119.589 147.838C119.771 148.115 120.018 148.332 120.33 148.488C120.651 148.635 121.011 148.709 121.409 148.709C121.817 148.709 122.176 148.635 122.488 148.488C122.8 148.332 123.047 148.115 123.229 147.838C123.411 147.561 123.502 147.24 123.502 146.876C123.502 146.512 123.411 146.191 123.229 145.914C123.047 145.637 122.8 145.424 122.488 145.277C122.176 145.121 121.817 145.043 121.409 145.043ZM126.102 143.249H127.181V155.027H126.102V143.249ZM117.808 152.453L117.665 151.543C118.385 151.543 119.173 151.539 120.031 151.53C120.889 151.513 121.773 151.478 122.683 151.426C123.602 151.365 124.486 151.27 125.335 151.14L125.426 151.933C124.542 152.098 123.645 152.219 122.735 152.297C121.834 152.366 120.963 152.41 120.122 152.427C119.282 152.444 118.51 152.453 117.808 152.453ZM140.843 143.262H141.922V151.894H140.843V143.262ZM141.584 146.811H143.651V147.708H141.584V146.811ZM134.603 153.87H142.442V154.754H134.603V153.87ZM134.603 151.062H135.669V154.065H134.603V151.062ZM133.277 144.107H134.343V146.07H137.658V144.107H138.724V149.918H133.277V144.107ZM134.343 146.915V149.047H137.658V146.915H134.343ZM146.51 144.575H147.303V145.615C147.303 145.979 147.264 146.365 147.186 146.772C147.108 147.171 146.987 147.561 146.822 147.942C146.666 148.323 146.454 148.674 146.185 148.995C145.925 149.307 145.605 149.567 145.223 149.775L144.638 148.995C144.968 148.813 145.249 148.592 145.483 148.332C145.726 148.063 145.921 147.773 146.068 147.461C146.216 147.149 146.324 146.837 146.393 146.525C146.471 146.204 146.51 145.901 146.51 145.615V144.575ZM146.757 144.575H147.524V145.615C147.524 145.858 147.546 146.135 147.589 146.447C147.641 146.759 147.724 147.08 147.836 147.409C147.958 147.73 148.118 148.037 148.317 148.332C148.525 148.618 148.785 148.869 149.097 149.086L148.59 149.892C148.218 149.658 147.91 149.368 147.667 149.021C147.433 148.666 147.247 148.289 147.108 147.89C146.978 147.491 146.887 147.093 146.835 146.694C146.783 146.295 146.757 145.936 146.757 145.615V144.575ZM149.669 144.575H150.436V145.615C150.436 145.962 150.41 146.334 150.358 146.733C150.306 147.132 150.211 147.53 150.072 147.929C149.942 148.328 149.756 148.7 149.513 149.047C149.279 149.385 148.972 149.667 148.59 149.892L148.096 149.086C148.408 148.878 148.668 148.631 148.876 148.345C149.084 148.059 149.245 147.756 149.357 147.435C149.47 147.114 149.548 146.798 149.591 146.486C149.643 146.165 149.669 145.875 149.669 145.615V144.575ZM149.903 144.575H150.696V145.615C150.696 146.005 150.757 146.417 150.878 146.85C151.008 147.275 151.212 147.682 151.489 148.072C151.767 148.453 152.126 148.761 152.568 148.995L151.983 149.775C151.481 149.506 151.073 149.142 150.761 148.683C150.458 148.215 150.237 147.712 150.098 147.175C149.968 146.638 149.903 146.118 149.903 145.615V144.575ZM153.049 143.249H154.115V150.321H153.049V143.249ZM153.569 146.317H155.597V147.227H153.569V146.317ZM146.25 150.854H154.115V155.014H153.049V151.738H146.25V150.854ZM145.041 144.133H148.356V145.017H145.041V144.133ZM148.85 144.133H152.113V145.017H148.85V144.133ZM165.255 143.249H166.334V155.027H165.255V143.249ZM160.133 144.159C160.714 144.159 161.225 144.328 161.667 144.666C162.118 144.995 162.469 145.468 162.72 146.083C162.98 146.698 163.11 147.422 163.11 148.254C163.11 149.086 162.98 149.81 162.72 150.425C162.469 151.04 162.118 151.517 161.667 151.855C161.225 152.193 160.714 152.362 160.133 152.362C159.553 152.362 159.037 152.193 158.586 151.855C158.136 151.517 157.78 151.04 157.52 150.425C157.269 149.81 157.143 149.086 157.143 148.254C157.143 147.422 157.269 146.698 157.52 146.083C157.78 145.468 158.136 144.995 158.586 144.666C159.037 144.328 159.553 144.159 160.133 144.159ZM160.133 145.121C159.743 145.121 159.401 145.251 159.106 145.511C158.82 145.762 158.595 146.126 158.43 146.603C158.266 147.071 158.183 147.621 158.183 148.254C158.183 148.887 158.266 149.441 158.43 149.918C158.595 150.386 158.82 150.75 159.106 151.01C159.401 151.27 159.743 151.4 160.133 151.4C160.515 151.4 160.848 151.27 161.134 151.01C161.429 150.75 161.659 150.386 161.823 149.918C161.988 149.441 162.07 148.887 162.07 148.254C162.07 147.621 161.988 147.071 161.823 146.603C161.659 146.126 161.429 145.762 161.134 145.511C160.848 145.251 160.515 145.121 160.133 145.121ZM170.103 146.785H178.098V147.656H170.103V146.785ZM168.66 149.229H179.32V150.113H168.66V149.229ZM170.103 143.678H171.169V147.227H170.103V143.678ZM170.025 153.844H178.163V154.728H170.025V153.844ZM170.025 151.296H171.104V154.078H170.025V151.296ZM189.421 144.926H192.723V145.758H189.421V144.926ZM189.421 147.058H192.723V147.903H189.421V147.058ZM192.463 143.249H193.529V149.385H192.463V143.249ZM185.963 149.957H193.529V152.752H187.055V154.559H185.989V151.933H192.463V150.815H185.963V149.957ZM185.989 153.987H193.971V154.858H185.989V153.987ZM184.442 143.795H185.521V145.472H188.693V143.795H189.759V148.917H184.442V143.795ZM185.521 146.317V148.046H188.693V146.317H185.521ZM201.133 143.457C202.433 143.457 203.447 143.635 204.175 143.99C204.903 144.337 205.267 144.835 205.267 145.485C205.267 146.144 204.903 146.651 204.175 147.006C203.447 147.353 202.433 147.526 201.133 147.526C199.841 147.526 198.827 147.353 198.091 147.006C197.363 146.651 196.999 146.144 196.999 145.485C196.999 144.835 197.363 144.337 198.091 143.99C198.827 143.635 199.841 143.457 201.133 143.457ZM201.133 144.263C200.5 144.263 199.958 144.311 199.508 144.406C199.057 144.501 198.71 144.64 198.468 144.822C198.234 145.004 198.117 145.225 198.117 145.485C198.117 145.745 198.234 145.97 198.468 146.161C198.71 146.343 199.057 146.482 199.508 146.577C199.958 146.664 200.5 146.707 201.133 146.707C201.774 146.707 202.32 146.664 202.771 146.577C203.221 146.482 203.564 146.343 203.798 146.161C204.04 145.97 204.162 145.745 204.162 145.485C204.162 145.225 204.04 145.004 203.798 144.822C203.564 144.64 203.221 144.501 202.771 144.406C202.32 144.311 201.774 144.263 201.133 144.263ZM195.829 148.319H206.45V149.19H195.829V148.319ZM197.116 150.191H205.085V152.843H198.195V154.26H197.142V152.05H204.032V151.023H197.116V150.191ZM197.142 154.039H205.436V154.884H197.142V154.039ZM211.025 152.622H221.685V153.519H211.025V152.622ZM215.796 149.801H216.862V152.882H215.796V149.801ZM212.273 144.081H213.352V146.174H219.332V144.081H220.398V150.1H212.273V144.081ZM213.352 147.058V149.216H219.332V147.058H213.352ZM224.115 144.432H231.681V145.316H224.115V144.432ZM222.984 152.466H233.605V153.363H222.984V152.466ZM227.118 148.267H228.184V152.921H227.118V148.267ZM231.265 144.432H232.344V145.589C232.344 146.074 232.335 146.586 232.318 147.123C232.309 147.66 232.275 148.25 232.214 148.891C232.162 149.532 232.062 150.247 231.915 151.036L230.823 150.906C231.048 149.779 231.178 148.791 231.213 147.942C231.248 147.084 231.265 146.3 231.265 145.589V144.432ZM238.648 144.432H244.043V152.024H238.648V144.432ZM242.977 145.29H239.701V151.153H242.977V145.29ZM246.136 143.249H247.215V155.014H246.136V143.249ZM246.968 147.942H249.139V148.852H246.968V147.942ZM255.443 143.509C256.293 143.509 257.025 143.6 257.64 143.782C258.264 143.955 258.741 144.207 259.07 144.536C259.408 144.865 259.577 145.268 259.577 145.745C259.577 146.204 259.408 146.603 259.07 146.941C258.741 147.27 258.264 147.522 257.64 147.695C257.025 147.868 256.293 147.955 255.443 147.955C254.603 147.955 253.87 147.868 253.246 147.695C252.631 147.522 252.154 147.27 251.816 146.941C251.478 146.603 251.309 146.204 251.309 145.745C251.309 145.268 251.478 144.865 251.816 144.536C252.154 144.207 252.631 143.955 253.246 143.782C253.87 143.6 254.603 143.509 255.443 143.509ZM255.443 144.367C254.828 144.367 254.291 144.423 253.831 144.536C253.381 144.64 253.03 144.796 252.778 145.004C252.536 145.203 252.414 145.45 252.414 145.745C252.414 146.022 252.536 146.265 252.778 146.473C253.03 146.672 253.381 146.828 253.831 146.941C254.291 147.045 254.828 147.097 255.443 147.097C256.067 147.097 256.605 147.045 257.055 146.941C257.515 146.828 257.866 146.672 258.108 146.473C258.351 146.265 258.472 146.022 258.472 145.745C258.472 145.45 258.351 145.203 258.108 145.004C257.866 144.796 257.515 144.64 257.055 144.536C256.605 144.423 256.067 144.367 255.443 144.367ZM251.439 150.984H259.46V154.858H251.439V150.984ZM258.407 151.855H252.492V153.974H258.407V151.855ZM250.139 148.956H260.76V149.84H250.139V148.956ZM267.402 143.457C268.702 143.457 269.716 143.635 270.444 143.99C271.172 144.337 271.536 144.835 271.536 145.485C271.536 146.144 271.172 146.651 270.444 147.006C269.716 147.353 268.702 147.526 267.402 147.526C266.111 147.526 265.097 147.353 264.36 147.006C263.632 146.651 263.268 146.144 263.268 145.485C263.268 144.835 263.632 144.337 264.36 143.99C265.097 143.635 266.111 143.457 267.402 143.457ZM267.402 144.263C266.77 144.263 266.228 144.311 265.777 144.406C265.327 144.501 264.98 144.64 264.737 144.822C264.503 145.004 264.386 145.225 264.386 145.485C264.386 145.745 264.503 145.97 264.737 146.161C264.98 146.343 265.327 146.482 265.777 146.577C266.228 146.664 266.77 146.707 267.402 146.707C268.044 146.707 268.59 146.664 269.04 146.577C269.491 146.482 269.833 146.343 270.067 146.161C270.31 145.97 270.431 145.745 270.431 145.485C270.431 145.225 270.31 145.004 270.067 144.822C269.833 144.64 269.491 144.501 269.04 144.406C268.59 144.311 268.044 144.263 267.402 144.263ZM262.098 148.319H272.719V149.19H262.098V148.319ZM263.385 150.191H271.354V152.843H264.464V154.26H263.411V152.05H270.301V151.023H263.385V150.191ZM263.411 154.039H271.705V154.884H263.411V154.039ZM286.577 143.249H287.539V155.014H286.577V143.249ZM285.173 147.994H287.058V148.891H285.173V147.994ZM284.601 143.496H285.55V154.416H284.601V143.496ZM277.503 144.51H278.348V147.357H279.466V144.51H280.298V152.037H277.503V144.51ZM278.348 148.228V151.166H279.466V148.228H278.348ZM280.974 144.51H281.806V147.357H282.924V144.51H283.756V152.037H280.974V144.51ZM281.806 148.228V151.166H282.924V148.228H281.806ZM297.301 143.249H298.38V151.062H297.301V143.249ZM298.081 146.46H300.109V147.357H298.081V146.46ZM294.285 150.503H295.221V150.854C295.221 151.4 295.099 151.903 294.857 152.362C294.623 152.813 294.298 153.216 293.882 153.571C293.474 153.918 293.006 154.208 292.478 154.442C291.949 154.676 291.39 154.849 290.801 154.962L290.372 154.104C290.892 154.017 291.386 153.879 291.854 153.688C292.33 153.489 292.751 153.25 293.115 152.973C293.479 152.687 293.765 152.366 293.973 152.011C294.181 151.647 294.285 151.261 294.285 150.854V150.503ZM294.441 150.503H295.351V150.854C295.351 151.261 295.455 151.647 295.663 152.011C295.879 152.366 296.17 152.687 296.534 152.973C296.898 153.25 297.314 153.489 297.782 153.688C298.258 153.879 298.757 154.017 299.277 154.104L298.848 154.962C298.258 154.849 297.699 154.676 297.171 154.442C296.642 154.208 296.17 153.918 295.754 153.571C295.346 153.216 295.026 152.813 294.792 152.362C294.558 151.903 294.441 151.4 294.441 150.854V150.503ZM292.53 144.068C293.128 144.068 293.656 144.185 294.116 144.419C294.575 144.653 294.935 144.982 295.195 145.407C295.463 145.823 295.598 146.308 295.598 146.863C295.598 147.409 295.463 147.894 295.195 148.319C294.935 148.735 294.575 149.064 294.116 149.307C293.656 149.541 293.128 149.658 292.53 149.658C291.949 149.658 291.425 149.541 290.957 149.307C290.497 149.064 290.133 148.735 289.865 148.319C289.596 147.894 289.462 147.409 289.462 146.863C289.462 146.308 289.596 145.823 289.865 145.407C290.133 144.982 290.497 144.653 290.957 144.419C291.425 144.185 291.949 144.068 292.53 144.068ZM292.53 144.978C292.148 144.978 291.806 145.06 291.503 145.225C291.199 145.381 290.957 145.602 290.775 145.888C290.601 146.165 290.515 146.49 290.515 146.863C290.515 147.227 290.601 147.552 290.775 147.838C290.957 148.115 291.199 148.336 291.503 148.501C291.806 148.657 292.148 148.735 292.53 148.735C292.92 148.735 293.266 148.657 293.57 148.501C293.873 148.336 294.111 148.115 294.285 147.838C294.467 147.552 294.558 147.227 294.558 146.863C294.558 146.49 294.467 146.165 294.285 145.888C294.111 145.602 293.873 145.381 293.57 145.225C293.266 145.06 292.92 144.978 292.53 144.978ZM306.829 145.212H309.975V146.096H306.829V145.212ZM306.751 147.643H309.923V148.54H306.751V147.643ZM306.14 144.016H307.271C307.271 144.995 307.05 145.884 306.608 146.681C306.166 147.478 305.533 148.159 304.71 148.722C303.895 149.285 302.92 149.727 301.785 150.048L301.356 149.203C302.352 148.917 303.206 148.544 303.917 148.085C304.627 147.626 305.173 147.093 305.555 146.486C305.945 145.871 306.14 145.199 306.14 144.471V144.016ZM301.993 144.016H306.881V144.887H301.993V144.016ZM309.806 143.262H310.885V149.957H309.806V143.262ZM304.164 150.282H305.009V151.127C305.009 151.638 304.905 152.145 304.697 152.648C304.489 153.142 304.185 153.584 303.787 153.974C303.397 154.364 302.92 154.667 302.357 154.884L301.811 154.078C302.305 153.896 302.725 153.649 303.072 153.337C303.427 153.016 303.696 152.665 303.878 152.284C304.068 151.894 304.164 151.508 304.164 151.127V150.282ZM304.411 150.282H305.204V151.127C305.204 151.526 305.282 151.924 305.438 152.323C305.594 152.713 305.828 153.073 306.14 153.402C306.46 153.723 306.855 153.983 307.323 154.182L306.855 154.988C306.291 154.763 305.828 154.446 305.464 154.039C305.1 153.632 304.831 153.177 304.658 152.674C304.493 152.163 304.411 151.647 304.411 151.127V150.282ZM308.519 150.282H309.312V151.127C309.312 151.586 309.225 152.072 309.052 152.583C308.878 153.086 308.61 153.554 308.246 153.987C307.882 154.412 307.418 154.745 306.855 154.988L306.4 154.182C306.868 153.957 307.258 153.671 307.57 153.324C307.882 152.977 308.116 152.609 308.272 152.219C308.436 151.829 308.519 151.465 308.519 151.127V150.282ZM308.727 150.282H309.559V151.127C309.559 151.534 309.654 151.933 309.845 152.323C310.035 152.713 310.304 153.06 310.651 153.363C311.006 153.666 311.431 153.905 311.925 154.078L311.379 154.884C310.815 154.676 310.334 154.381 309.936 154C309.537 153.619 309.234 153.181 309.026 152.687C308.826 152.193 308.727 151.673 308.727 151.127V150.282ZM33.757 166.939H34.641V168.837C34.641 169.461 34.5543 170.076 34.381 170.683C34.2077 171.281 33.965 171.849 33.653 172.386C33.3497 172.915 32.9943 173.383 32.587 173.79C32.1797 174.197 31.742 174.518 31.274 174.752L30.65 173.894C31.0747 173.686 31.4733 173.404 31.846 173.049C32.2273 172.694 32.561 172.286 32.847 171.827C33.133 171.368 33.354 170.882 33.51 170.371C33.6747 169.86 33.757 169.348 33.757 168.837V166.939ZM33.978 166.939H34.849V168.837C34.849 169.331 34.927 169.825 35.083 170.319C35.2477 170.804 35.473 171.264 35.759 171.697C36.0537 172.122 36.3873 172.499 36.76 172.828C37.1413 173.157 37.5487 173.417 37.982 173.608L37.384 174.466C36.9073 174.241 36.461 173.937 36.045 173.556C35.629 173.175 35.265 172.737 34.953 172.243C34.6497 171.74 34.4113 171.203 34.238 170.631C34.0647 170.05 33.978 169.452 33.978 168.837V166.939ZM31.027 166.458H37.592V167.355H31.027V166.458ZM39.191 165.249H40.27V177.014H39.191V165.249ZM42.8096 175.238C42.8096 175.001 42.89 174.802 43.0508 174.642C43.2116 174.477 43.4295 174.394 43.7046 174.394C43.9839 174.394 44.2018 174.477 44.3584 174.642C44.5192 174.802 44.5996 175.001 44.5996 175.238C44.5996 175.475 44.5192 175.674 44.3584 175.835C44.2018 175.996 43.9839 176.076 43.7046 176.076C43.4295 176.076 43.2116 175.996 43.0508 175.835C42.89 175.674 42.8096 175.475 42.8096 175.238ZM31.7139 232.25V233.12L31.4917 235.551H30.6094V233.189V232.25H31.7139ZM33.6182 232.25V233.12L33.396 235.551H32.5137V233.139V232.25H33.6182ZM43.3944 231.249H44.4734V243.027H43.3944V231.249ZM40.8724 235.526H43.7064V236.41H40.8724V235.526ZM37.7784 232.926H38.6494V234.694C38.6494 235.327 38.5627 235.951 38.3894 236.566C38.2247 237.173 37.9907 237.745 37.6874 238.282C37.3927 238.819 37.0417 239.296 36.6344 239.712C36.2357 240.128 35.8067 240.457 35.3474 240.7L34.6974 239.842C35.122 239.634 35.5207 239.348 35.8934 238.984C36.266 238.62 36.591 238.208 36.8684 237.749C37.1544 237.281 37.3754 236.787 37.5314 236.267C37.696 235.738 37.7784 235.214 37.7784 234.694V232.926ZM38.0124 232.926H38.8704V234.694C38.8704 235.179 38.9484 235.673 39.1044 236.176C39.2604 236.67 39.477 237.138 39.7544 237.58C40.0404 238.022 40.3697 238.421 40.7424 238.776C41.115 239.123 41.5137 239.396 41.9384 239.595L41.3014 240.453C40.8334 240.219 40.4 239.903 40.0014 239.504C39.6027 239.105 39.2517 238.65 38.9484 238.139C38.6537 237.619 38.424 237.064 38.2594 236.475C38.0947 235.886 38.0124 235.292 38.0124 234.694V232.926ZM35.1394 232.458H41.5224V233.342H35.1394V232.458ZM55.5487 232.926H58.8507V233.758H55.5487V232.926ZM55.5487 235.058H58.8507V235.903H55.5487V235.058ZM58.5907 231.249H59.6567V237.385H58.5907V231.249ZM52.0907 237.957H59.6567V240.752H53.1827V242.559H52.1167V239.933H58.5907V238.815H52.0907V237.957ZM52.1167 241.987H60.0987V242.858H52.1167V241.987ZM50.5697 231.795H51.6487V233.472H54.8207V231.795H55.8867V236.917H50.5697V231.795ZM51.6487 234.317V236.046H54.8207V234.317H51.6487ZM67.2606 231.457C68.5606 231.457 69.5746 231.635 70.3026 231.99C71.0306 232.337 71.3946 232.835 71.3946 233.485C71.3946 234.144 71.0306 234.651 70.3026 235.006C69.5746 235.353 68.5606 235.526 67.2606 235.526C65.9693 235.526 64.9553 235.353 64.2186 235.006C63.4906 234.651 63.1266 234.144 63.1266 233.485C63.1266 232.835 63.4906 232.337 64.2186 231.99C64.9553 231.635 65.9693 231.457 67.2606 231.457ZM67.2606 232.263C66.628 232.263 66.0863 232.311 65.6356 232.406C65.185 232.501 64.8383 232.64 64.5956 232.822C64.3616 233.004 64.2446 233.225 64.2446 233.485C64.2446 233.745 64.3616 233.97 64.5956 234.161C64.8383 234.343 65.185 234.482 65.6356 234.577C66.0863 234.664 66.628 234.707 67.2606 234.707C67.902 234.707 68.448 234.664 68.8986 234.577C69.3493 234.482 69.6916 234.343 69.9256 234.161C70.1683 233.97 70.2896 233.745 70.2896 233.485C70.2896 233.225 70.1683 233.004 69.9256 232.822C69.6916 232.64 69.3493 232.501 68.8986 232.406C68.448 232.311 67.902 232.263 67.2606 232.263ZM61.9566 236.319H72.5776V237.19H61.9566V236.319ZM63.2436 238.191H71.2126V240.843H64.3226V242.26H63.2696V240.05H70.1596V239.023H63.2436V238.191ZM63.2696 242.039H71.5636V242.884H63.2696V242.039ZM80.0389 232.341H80.9099V233.303C80.9099 233.996 80.7756 234.646 80.5069 235.253C80.2383 235.851 79.8526 236.371 79.3499 236.813C78.8559 237.255 78.2796 237.593 77.6209 237.827L77.0749 236.969C77.6643 236.77 78.1799 236.488 78.6219 236.124C79.0726 235.76 79.4193 235.335 79.6619 234.85C79.9133 234.356 80.0389 233.84 80.0389 233.303V232.341ZM80.2209 232.341H81.1179V233.29C81.1179 233.784 81.2349 234.261 81.4689 234.72C81.7029 235.179 82.0323 235.582 82.4569 235.929C82.8903 236.276 83.3973 236.544 83.9779 236.735L83.4709 237.58C82.8123 237.363 82.2403 237.047 81.7549 236.631C81.2696 236.206 80.8926 235.708 80.6239 235.136C80.3553 234.555 80.2209 233.94 80.2209 233.29V232.341ZM77.4129 232.029H83.7049V232.913H77.4129V232.029ZM85.1999 231.249H86.2789V237.697H85.1999V231.249ZM85.9799 233.966H88.0079V234.863H85.9799V233.966ZM78.8689 238.256H79.9349V239.673H85.1999V238.256H86.2789V242.858H78.8689V238.256ZM79.9349 240.531V241.974H85.1999V240.531H79.9349ZM94.4159 231.457C95.7159 231.457 96.7299 231.635 97.4579 231.99C98.1859 232.337 98.5499 232.835 98.5499 233.485C98.5499 234.144 98.1859 234.651 97.4579 235.006C96.7299 235.353 95.7159 235.526 94.4159 235.526C93.1246 235.526 92.1106 235.353 91.3739 235.006C90.6459 234.651 90.2819 234.144 90.2819 233.485C90.2819 232.835 90.6459 232.337 91.3739 231.99C92.1106 231.635 93.1246 231.457 94.4159 231.457ZM94.4159 232.263C93.7832 232.263 93.2416 232.311 92.7909 232.406C92.3402 232.501 91.9936 232.64 91.7509 232.822C91.5169 233.004 91.3999 233.225 91.3999 233.485C91.3999 233.745 91.5169 233.97 91.7509 234.161C91.9936 234.343 92.3402 234.482 92.7909 234.577C93.2416 234.664 93.7832 234.707 94.4159 234.707C95.0572 234.707 95.6032 234.664 96.0539 234.577C96.5046 234.482 96.8469 234.343 97.0809 234.161C97.3236 233.97 97.4449 233.745 97.4449 233.485C97.4449 233.225 97.3236 233.004 97.0809 232.822C96.8469 232.64 96.5046 232.501 96.0539 232.406C95.6032 232.311 95.0572 232.263 94.4159 232.263ZM89.1119 236.319H99.7329V237.19H89.1119V236.319ZM90.3989 238.191H98.3679V240.843H91.4779V242.26H90.4249V240.05H97.3149V239.023H90.3989V238.191ZM90.4249 242.039H98.7189V242.884H90.4249V242.039ZM109.066 231.665H110.015V232.328C110.015 232.779 109.929 233.203 109.755 233.602C109.582 233.992 109.344 234.352 109.04 234.681C108.746 235.01 108.399 235.305 108 235.565C107.602 235.825 107.168 236.042 106.7 236.215C106.241 236.388 105.769 236.514 105.283 236.592L104.841 235.721C105.275 235.66 105.695 235.556 106.102 235.409C106.518 235.262 106.904 235.084 107.259 234.876C107.615 234.659 107.927 234.417 108.195 234.148C108.473 233.879 108.685 233.593 108.832 233.29C108.988 232.978 109.066 232.657 109.066 232.328V231.665ZM109.248 231.665H110.184V232.328C110.184 232.657 110.262 232.974 110.418 233.277C110.574 233.58 110.787 233.866 111.055 234.135C111.333 234.404 111.649 234.646 112.004 234.863C112.36 235.08 112.741 235.262 113.148 235.409C113.564 235.556 113.985 235.66 114.409 235.721L113.98 236.592C113.495 236.514 113.023 236.388 112.563 236.215C112.104 236.033 111.671 235.812 111.263 235.552C110.865 235.292 110.514 234.997 110.21 234.668C109.916 234.339 109.682 233.979 109.508 233.589C109.335 233.19 109.248 232.77 109.248 232.328V231.665ZM109.066 238.542H110.132V243.014H109.066V238.542ZM104.308 237.866H114.929V238.763H104.308V237.866ZM122.429 238.49H123.274V239.114C123.274 239.625 123.17 240.128 122.962 240.622C122.754 241.116 122.451 241.558 122.052 241.948C121.662 242.338 121.181 242.637 120.609 242.845L120.076 242.052C120.57 241.87 120.991 241.619 121.337 241.298C121.693 240.977 121.961 240.631 122.143 240.258C122.334 239.877 122.429 239.495 122.429 239.114V238.49ZM122.676 238.49H123.469V239.114C123.469 239.513 123.547 239.907 123.703 240.297C123.859 240.687 124.093 241.042 124.405 241.363C124.726 241.684 125.116 241.939 125.575 242.13L125.133 242.949C124.561 242.724 124.093 242.412 123.729 242.013C123.374 241.614 123.11 241.164 122.936 240.661C122.763 240.15 122.676 239.634 122.676 239.114V238.49ZM126.784 238.49H127.577V239.114C127.577 239.573 127.486 240.054 127.304 240.557C127.131 241.06 126.862 241.528 126.498 241.961C126.143 242.386 125.688 242.715 125.133 242.949L124.665 242.13C125.133 241.913 125.523 241.636 125.835 241.298C126.147 240.951 126.381 240.587 126.537 240.206C126.702 239.816 126.784 239.452 126.784 239.114V238.49ZM126.992 238.49H127.837V239.114C127.837 239.521 127.928 239.916 128.11 240.297C128.301 240.678 128.57 241.025 128.916 241.337C129.272 241.64 129.696 241.879 130.19 242.052L129.657 242.845C129.085 242.637 128.6 242.347 128.201 241.974C127.803 241.593 127.499 241.159 127.291 240.674C127.092 240.18 126.992 239.66 126.992 239.114V238.49ZM128.058 231.262H129.137V237.97H128.058V231.262ZM122.832 231.938C123.43 231.938 123.959 232.055 124.418 232.289C124.878 232.523 125.237 232.848 125.497 233.264C125.766 233.671 125.9 234.148 125.9 234.694C125.9 235.231 125.766 235.704 125.497 236.111C125.237 236.518 124.878 236.839 124.418 237.073C123.959 237.307 123.43 237.424 122.832 237.424C122.243 237.424 121.714 237.307 121.246 237.073C120.787 236.839 120.423 236.518 120.154 236.111C119.894 235.704 119.764 235.231 119.764 234.694C119.764 234.148 119.894 233.671 120.154 233.264C120.423 232.848 120.787 232.523 121.246 232.289C121.714 232.055 122.243 231.938 122.832 231.938ZM122.832 232.848C122.451 232.848 122.109 232.926 121.805 233.082C121.502 233.238 121.259 233.455 121.077 233.732C120.904 234.001 120.817 234.321 120.817 234.694C120.817 235.058 120.904 235.379 121.077 235.656C121.259 235.925 121.502 236.137 121.805 236.293C122.109 236.449 122.451 236.527 122.832 236.527C123.222 236.527 123.569 236.449 123.872 236.293C124.176 236.137 124.414 235.925 124.587 235.656C124.761 235.379 124.847 235.058 124.847 234.694C124.847 234.321 124.761 234.001 124.587 233.732C124.414 233.455 124.176 233.238 123.872 233.082C123.569 232.926 123.222 232.848 122.832 232.848ZM136.767 231.457C138.067 231.457 139.081 231.635 139.809 231.99C140.537 232.337 140.901 232.835 140.901 233.485C140.901 234.144 140.537 234.651 139.809 235.006C139.081 235.353 138.067 235.526 136.767 235.526C135.476 235.526 134.462 235.353 133.725 235.006C132.997 234.651 132.633 234.144 132.633 233.485C132.633 232.835 132.997 232.337 133.725 231.99C134.462 231.635 135.476 231.457 136.767 231.457ZM136.767 232.263C136.135 232.263 135.593 232.311 135.142 232.406C134.692 232.501 134.345 232.64 134.102 232.822C133.868 233.004 133.751 233.225 133.751 233.485C133.751 233.745 133.868 233.97 134.102 234.161C134.345 234.343 134.692 234.482 135.142 234.577C135.593 234.664 136.135 234.707 136.767 234.707C137.409 234.707 137.955 234.664 138.405 234.577C138.856 234.482 139.198 234.343 139.432 234.161C139.675 233.97 139.796 233.745 139.796 233.485C139.796 233.225 139.675 233.004 139.432 232.822C139.198 232.64 138.856 232.501 138.405 232.406C137.955 232.311 137.409 232.263 136.767 232.263ZM131.463 236.319H142.084V237.19H131.463V236.319ZM132.75 238.191H140.719V240.843H133.829V242.26H132.776V240.05H139.666V239.023H132.75V238.191ZM132.776 242.039H141.07V242.884H132.776V242.039ZM151.573 231.249H152.652V243.014H151.573V231.249ZM152.301 236.098H154.407V236.995H152.301V236.098ZM145.944 232.523H146.945C146.945 233.225 146.902 233.923 146.815 234.616C146.729 235.309 146.581 235.99 146.373 236.657C146.174 237.324 145.897 237.97 145.541 238.594C145.195 239.209 144.757 239.799 144.228 240.362L143.37 239.751C143.847 239.248 144.25 238.72 144.579 238.165C144.917 237.61 145.186 237.034 145.385 236.436C145.585 235.838 145.728 235.223 145.814 234.59C145.901 233.949 145.944 233.299 145.944 232.64V232.523ZM143.747 232.523H146.347V233.42H143.747V232.523ZM149.155 232.523H150.156C150.156 233.234 150.122 233.962 150.052 234.707C149.992 235.452 149.866 236.198 149.675 236.943C149.493 237.688 149.233 238.416 148.895 239.127C148.566 239.838 148.128 240.509 147.582 241.142L146.711 240.544C147.214 239.972 147.621 239.365 147.933 238.724C148.254 238.083 148.501 237.424 148.674 236.748C148.848 236.063 148.969 235.374 149.038 234.681C149.116 233.988 149.155 233.303 149.155 232.627V232.523ZM147.322 232.523H149.584V233.42H147.322V232.523ZM158.381 239.277H156.966C156.97 238.883 157.004 238.553 157.067 238.287C157.131 238.016 157.237 237.77 157.385 237.55C157.537 237.33 157.738 237.097 157.988 236.852C158.182 236.666 158.358 236.49 158.515 236.325C158.671 236.156 158.796 235.978 158.889 235.792C158.982 235.602 159.029 235.384 159.029 235.138C159.029 234.872 158.984 234.645 158.896 234.459C158.807 234.273 158.675 234.131 158.502 234.034C158.333 233.936 158.121 233.888 157.867 233.888C157.656 233.888 157.457 233.93 157.271 234.015C157.084 234.095 156.934 234.222 156.82 234.396C156.706 234.565 156.644 234.789 156.636 235.068H155.106C155.114 234.535 155.241 234.087 155.487 233.723C155.732 233.359 156.062 233.086 156.477 232.904C156.892 232.722 157.355 232.631 157.867 232.631C158.434 232.631 158.919 232.728 159.321 232.923C159.723 233.113 160.03 233.393 160.241 233.761C160.457 234.125 160.565 234.565 160.565 235.081C160.565 235.453 160.491 235.792 160.343 236.097C160.195 236.397 160.002 236.679 159.765 236.941C159.528 237.199 159.272 237.457 158.997 237.715C158.76 237.931 158.599 238.166 158.515 238.42C158.43 238.67 158.386 238.955 158.381 239.277ZM156.839 241.257C156.839 241.029 156.917 240.836 157.074 240.68C157.23 240.519 157.444 240.438 157.715 240.438C157.986 240.438 158.199 240.519 158.356 240.68C158.513 240.836 158.591 241.029 158.591 241.257C158.591 241.486 158.513 241.681 158.356 241.841C158.199 241.998 157.986 242.076 157.715 242.076C157.444 242.076 157.23 241.998 157.074 241.841C156.917 241.681 156.839 241.486 156.839 241.257ZM162.768 232.25V233.12L162.545 235.551H161.663V233.189V232.25H162.768ZM164.672 232.25V233.12L164.45 235.551H163.567V233.139V232.25H164.672ZM170.223 232.432H177.789V233.316H170.223V232.432ZM169.092 240.466H179.713V241.363H169.092V240.466ZM173.226 236.267H174.292V240.921H173.226V236.267ZM177.373 232.432H178.452V233.589C178.452 234.074 178.444 234.586 178.426 235.123C178.418 235.66 178.383 236.25 178.322 236.891C178.27 237.532 178.171 238.247 178.023 239.036L176.931 238.906C177.157 237.779 177.287 236.791 177.321 235.942C177.356 235.084 177.373 234.3 177.373 233.589V232.432ZM189.852 233.004H191.88V233.901H189.852V233.004ZM189.852 235.513H191.88V236.41H189.852V235.513ZM184.327 231.951C184.925 231.951 185.454 232.068 185.913 232.302C186.373 232.536 186.732 232.861 186.992 233.277C187.261 233.693 187.395 234.174 187.395 234.72C187.395 235.275 187.261 235.76 186.992 236.176C186.732 236.583 186.373 236.904 185.913 237.138C185.454 237.372 184.925 237.489 184.327 237.489C183.747 237.489 183.222 237.372 182.754 237.138C182.295 236.904 181.931 236.583 181.662 236.176C181.394 235.76 181.259 235.275 181.259 234.72C181.259 234.174 181.394 233.693 181.662 233.277C181.931 232.861 182.295 232.536 182.754 232.302C183.222 232.068 183.747 231.951 184.327 231.951ZM184.327 232.861C183.946 232.861 183.604 232.943 183.3 233.108C182.997 233.264 182.754 233.481 182.572 233.758C182.399 234.035 182.312 234.356 182.312 234.72C182.312 235.093 182.399 235.418 182.572 235.695C182.754 235.972 182.997 236.189 183.3 236.345C183.604 236.501 183.946 236.579 184.327 236.579C184.717 236.579 185.064 236.501 185.367 236.345C185.671 236.189 185.909 235.972 186.082 235.695C186.264 235.418 186.355 235.093 186.355 234.72C186.355 234.356 186.264 234.035 186.082 233.758C185.909 233.481 185.671 233.264 185.367 233.108C185.064 232.943 184.717 232.861 184.327 232.861ZM189.098 231.249H190.177V238.217H189.098V231.249ZM186.433 238.581C187.222 238.581 187.907 238.672 188.487 238.854C189.068 239.027 189.514 239.279 189.826 239.608C190.138 239.929 190.294 240.323 190.294 240.791C190.294 241.25 190.138 241.645 189.826 241.974C189.514 242.295 189.068 242.542 188.487 242.715C187.907 242.897 187.222 242.988 186.433 242.988C185.636 242.988 184.947 242.897 184.366 242.715C183.786 242.542 183.339 242.295 183.027 241.974C182.715 241.645 182.559 241.25 182.559 240.791C182.559 240.323 182.715 239.929 183.027 239.608C183.339 239.279 183.786 239.027 184.366 238.854C184.947 238.672 185.636 238.581 186.433 238.581ZM186.433 239.452C185.853 239.452 185.35 239.504 184.925 239.608C184.509 239.712 184.189 239.864 183.963 240.063C183.738 240.262 183.625 240.505 183.625 240.791C183.625 241.068 183.738 241.307 183.963 241.506C184.189 241.705 184.509 241.857 184.925 241.961C185.35 242.065 185.853 242.117 186.433 242.117C187.014 242.117 187.512 242.065 187.928 241.961C188.344 241.857 188.665 241.705 188.89 241.506C189.116 241.307 189.228 241.068 189.228 240.791C189.228 240.505 189.116 240.262 188.89 240.063C188.665 239.864 188.344 239.712 187.928 239.608C187.512 239.504 187.014 239.452 186.433 239.452ZM201.551 231.249H202.63V243.027H201.551V231.249ZM196.429 232.159C197.01 232.159 197.521 232.328 197.963 232.666C198.414 232.995 198.765 233.468 199.016 234.083C199.276 234.698 199.406 235.422 199.406 236.254C199.406 237.086 199.276 237.81 199.016 238.425C198.765 239.04 198.414 239.517 197.963 239.855C197.521 240.193 197.01 240.362 196.429 240.362C195.849 240.362 195.333 240.193 194.882 239.855C194.432 239.517 194.076 239.04 193.816 238.425C193.565 237.81 193.439 237.086 193.439 236.254C193.439 235.422 193.565 234.698 193.816 234.083C194.076 233.468 194.432 232.995 194.882 232.666C195.333 232.328 195.849 232.159 196.429 232.159ZM196.429 233.121C196.039 233.121 195.697 233.251 195.402 233.511C195.116 233.762 194.891 234.126 194.726 234.603C194.562 235.071 194.479 235.621 194.479 236.254C194.479 236.887 194.562 237.441 194.726 237.918C194.891 238.386 195.116 238.75 195.402 239.01C195.697 239.27 196.039 239.4 196.429 239.4C196.811 239.4 197.144 239.27 197.43 239.01C197.725 238.75 197.955 238.386 198.119 237.918C198.284 237.441 198.366 236.887 198.366 236.254C198.366 235.621 198.284 235.071 198.119 234.603C197.955 234.126 197.725 233.762 197.43 233.511C197.144 233.251 196.811 233.121 196.429 233.121ZM206.399 234.785H214.394V235.656H206.399V234.785ZM204.956 237.229H215.616V238.113H204.956V237.229ZM206.399 231.678H207.465V235.227H206.399V231.678ZM206.321 241.844H214.459V242.728H206.321V241.844ZM206.321 239.296H207.4V242.078H206.321V239.296ZM221.518 231.756H229.084V232.627H221.518V231.756ZM220.166 235.955H230.826V236.839H220.166V235.955ZM224.937 236.579H226.003V239.01H224.937V236.579ZM228.382 231.756H229.448V232.601C229.448 233.086 229.43 233.632 229.396 234.239C229.361 234.846 229.248 235.548 229.058 236.345L228.005 236.228C228.195 235.439 228.304 234.759 228.33 234.187C228.364 233.606 228.382 233.078 228.382 232.601V231.756ZM225.47 238.646C226.735 238.646 227.727 238.837 228.447 239.218C229.175 239.591 229.539 240.124 229.539 240.817C229.539 241.51 229.175 242.043 228.447 242.416C227.727 242.797 226.735 242.988 225.47 242.988C224.196 242.988 223.195 242.797 222.467 242.416C221.747 242.043 221.388 241.51 221.388 240.817C221.388 240.124 221.747 239.591 222.467 239.218C223.195 238.837 224.196 238.646 225.47 238.646ZM225.47 239.517C224.846 239.517 224.308 239.569 223.858 239.673C223.407 239.777 223.06 239.924 222.818 240.115C222.584 240.306 222.467 240.54 222.467 240.817C222.467 241.094 222.584 241.328 222.818 241.519C223.06 241.71 223.407 241.857 223.858 241.961C224.308 242.065 224.846 242.117 225.47 242.117C226.094 242.117 226.627 242.065 227.069 241.961C227.519 241.857 227.862 241.71 228.096 241.519C228.338 241.328 228.46 241.094 228.46 240.817C228.46 240.54 228.338 240.306 228.096 240.115C227.862 239.924 227.519 239.777 227.069 239.673C226.627 239.569 226.094 239.517 225.47 239.517ZM233.477 231.873H241.043V232.757H233.477V231.873ZM232.125 236.202H242.785V237.086H232.125V236.202ZM240.341 231.873H241.407V232.744C241.407 233.238 241.389 233.784 241.355 234.382C241.32 234.98 241.207 235.691 241.017 236.514L239.951 236.449C240.141 235.652 240.254 234.958 240.289 234.369C240.323 233.771 240.341 233.229 240.341 232.744V231.873ZM233.438 238.685H241.446V242.858H233.438V238.685ZM240.38 239.543H234.491V241.974H240.38V239.543ZM252.963 231.262H253.99V238.542H252.963V231.262ZM251.039 234.486H253.262V235.37H251.039V234.486ZM250.467 231.444H251.481V238.36H250.467V231.444ZM244.019 232.588H249.973V233.459H244.019V232.588ZM247.009 234.044C247.503 234.044 247.936 234.131 248.309 234.304C248.69 234.469 248.985 234.703 249.193 235.006C249.409 235.301 249.518 235.652 249.518 236.059C249.518 236.458 249.409 236.809 249.193 237.112C248.985 237.415 248.69 237.654 248.309 237.827C247.936 237.992 247.503 238.074 247.009 238.074C246.523 238.074 246.09 237.992 245.709 237.827C245.327 237.654 245.033 237.415 244.825 237.112C244.617 236.809 244.513 236.458 244.513 236.059C244.513 235.652 244.617 235.301 244.825 235.006C245.033 234.703 245.327 234.469 245.709 234.304C246.09 234.131 246.523 234.044 247.009 234.044ZM247.009 234.85C246.558 234.85 246.19 234.958 245.904 235.175C245.618 235.392 245.475 235.686 245.475 236.059C245.475 236.423 245.618 236.718 245.904 236.943C246.19 237.16 246.558 237.268 247.009 237.268C247.468 237.268 247.836 237.16 248.114 236.943C248.4 236.718 248.543 236.423 248.543 236.059C248.543 235.686 248.4 235.392 248.114 235.175C247.836 234.958 247.468 234.85 247.009 234.85ZM246.476 231.301H247.542V233.108H246.476V231.301ZM247.178 238.893H248.023V239.283C248.023 239.777 247.914 240.262 247.698 240.739C247.49 241.207 247.186 241.627 246.788 242C246.389 242.373 245.904 242.663 245.332 242.871L244.825 242.052C245.319 241.887 245.739 241.658 246.086 241.363C246.441 241.06 246.71 240.726 246.892 240.362C247.082 239.998 247.178 239.638 247.178 239.283V238.893ZM247.425 238.893H248.231V239.283C248.231 239.656 248.304 240.033 248.452 240.414C248.608 240.787 248.842 241.125 249.154 241.428C249.466 241.731 249.851 241.974 250.311 242.156L249.869 242.975C249.305 242.758 248.842 242.455 248.478 242.065C248.122 241.684 247.858 241.25 247.685 240.765C247.511 240.28 247.425 239.786 247.425 239.283V238.893ZM251.494 238.893H252.3V239.283C252.3 239.725 252.213 240.189 252.04 240.674C251.866 241.159 251.598 241.606 251.234 242.013C250.878 242.429 250.423 242.75 249.869 242.975L249.414 242.156C249.873 241.948 250.254 241.684 250.558 241.363C250.87 241.042 251.104 240.696 251.26 240.323C251.416 239.95 251.494 239.604 251.494 239.283V238.893ZM251.728 238.893H252.56V239.283C252.56 239.664 252.651 240.041 252.833 240.414C253.023 240.778 253.296 241.103 253.652 241.389C254.007 241.675 254.427 241.896 254.913 242.052L254.406 242.871C253.834 242.672 253.348 242.39 252.95 242.026C252.551 241.671 252.248 241.255 252.04 240.778C251.832 240.301 251.728 239.803 251.728 239.283V238.893ZM259.176 232.159C259.748 232.159 260.255 232.328 260.697 232.666C261.139 232.995 261.481 233.468 261.724 234.083C261.975 234.698 262.101 235.422 262.101 236.254C262.101 237.086 261.975 237.81 261.724 238.425C261.481 239.04 261.139 239.517 260.697 239.855C260.255 240.193 259.748 240.362 259.176 240.362C258.612 240.362 258.105 240.193 257.655 239.855C257.213 239.517 256.866 239.04 256.615 238.425C256.372 237.81 256.251 237.086 256.251 236.254C256.251 235.422 256.372 234.698 256.615 234.083C256.866 233.468 257.213 232.995 257.655 232.666C258.105 232.328 258.612 232.159 259.176 232.159ZM259.176 233.121C258.803 233.121 258.474 233.251 258.188 233.511C257.902 233.762 257.676 234.126 257.512 234.603C257.356 235.071 257.278 235.621 257.278 236.254C257.278 236.887 257.356 237.441 257.512 237.918C257.676 238.386 257.902 238.75 258.188 239.01C258.474 239.27 258.803 239.4 259.176 239.4C259.557 239.4 259.891 239.27 260.177 239.01C260.463 238.75 260.684 238.386 260.84 237.918C261.004 237.441 261.087 236.887 261.087 236.254C261.087 235.621 261.004 235.071 260.84 234.603C260.684 234.126 260.463 233.762 260.177 233.511C259.891 233.251 259.557 233.121 259.176 233.121ZM264.649 231.249H265.715V243.027H264.649V231.249ZM261.75 235.734H265.13V236.605H261.75V235.734ZM268.202 241.238C268.202 241.001 268.283 240.802 268.443 240.642C268.604 240.477 268.822 240.394 269.097 240.394C269.376 240.394 269.594 240.477 269.751 240.642C269.912 240.802 269.992 241.001 269.992 241.238C269.992 241.475 269.912 241.674 269.751 241.835C269.594 241.996 269.376 242.076 269.097 242.076C268.822 242.076 268.604 241.996 268.443 241.835C268.283 241.674 268.202 241.475 268.202 241.238ZM31.807 254.497H39.373V255.381H31.807V254.497ZM30.65 262.401H41.271V263.298H30.65V262.401ZM38.788 254.497H39.854V255.68C39.854 256.174 39.8453 256.703 39.828 257.266C39.8193 257.821 39.7847 258.436 39.724 259.112C39.6633 259.788 39.5593 260.551 39.412 261.4L38.32 261.283C38.476 260.486 38.5843 259.753 38.645 259.086C38.7143 258.419 38.7533 257.803 38.762 257.24C38.7793 256.677 38.788 256.157 38.788 255.68V254.497ZM42.999 261.296H43.766C44.4853 261.296 45.1873 261.279 45.872 261.244C46.5567 261.201 47.2933 261.114 48.082 260.984L48.186 261.868C47.3713 262.015 46.613 262.111 45.911 262.154C45.2177 262.189 44.5027 262.206 43.766 262.206H42.999V261.296ZM42.973 254.523H47.367V258.657H44.039V261.634H42.999V257.773H46.327V255.42H42.973V254.523ZM51.553 253.249H52.58V265.014H51.553V253.249ZM49.564 257.89H51.826V258.774H49.564V257.89ZM48.888 253.509H49.889V264.403H48.888V253.509ZM60.444 257.24H63.707V258.124H60.444V257.24ZM57.597 254.263H58.481V256.369C58.481 257.019 58.3986 257.66 58.234 258.293C58.078 258.926 57.8526 259.515 57.558 260.061C57.2633 260.607 56.9166 261.092 56.518 261.517C56.128 261.942 55.699 262.28 55.231 262.531L54.555 261.66C54.9883 261.452 55.387 261.162 55.751 260.789C56.1236 260.416 56.4486 259.992 56.726 259.515C57.0033 259.03 57.2156 258.523 57.363 257.994C57.519 257.457 57.597 256.915 57.597 256.369V254.263ZM57.818 254.263H58.689V256.369C58.689 256.898 58.7626 257.422 58.91 257.942C59.066 258.462 59.2826 258.952 59.56 259.411C59.8373 259.862 60.158 260.265 60.522 260.62C60.8946 260.975 61.2933 261.253 61.718 261.452L61.068 262.323C60.6 262.08 60.1666 261.755 59.768 261.348C59.3693 260.941 59.0226 260.473 58.728 259.944C58.442 259.415 58.2166 258.848 58.052 258.241C57.896 257.634 57.818 257.01 57.818 256.369V254.263ZM63.174 253.249H64.24V265.027H63.174V253.249ZM71.2073 256.252H79.2023V257.136H71.2073V256.252ZM71.2073 253.509H72.2733V256.824H71.2073V253.509ZM69.7643 258.605H80.3853V259.476H69.7643V258.605ZM74.5353 256.837H75.6143V259.19H74.5353V256.837ZM70.9473 260.646H79.2153V261.517H70.9473V260.646ZM70.8433 263.974H79.3193V264.858H70.8433V263.974ZM72.7283 260.893H73.7943V264.377H72.7283V260.893ZM76.3683 260.893H77.4343V264.377H76.3683V260.893ZM81.7232 259.437H92.3442V260.308H81.7232V259.437ZM83.0882 263.87H91.1612V264.754H83.0882V263.87ZM83.0882 261.348H84.1672V264.13H83.0882V261.348ZM87.0272 253.652C87.8679 253.652 88.5959 253.747 89.2112 253.938C89.8352 254.12 90.3162 254.389 90.6542 254.744C90.9922 255.091 91.1612 255.507 91.1612 255.992C91.1612 256.477 90.9922 256.898 90.6542 257.253C90.3162 257.608 89.8352 257.881 89.2112 258.072C88.5959 258.254 87.8679 258.345 87.0272 258.345C86.1866 258.345 85.4542 258.254 84.8302 258.072C84.2149 257.881 83.7382 257.608 83.4002 257.253C83.0622 256.898 82.8932 256.477 82.8932 255.992C82.8932 255.507 83.0622 255.091 83.4002 254.744C83.7382 254.389 84.2149 254.12 84.8302 253.938C85.4542 253.747 86.1866 253.652 87.0272 253.652ZM87.0272 254.523C86.4206 254.523 85.8876 254.584 85.4282 254.705C84.9776 254.818 84.6266 254.987 84.3752 255.212C84.1239 255.429 83.9982 255.689 83.9982 255.992C83.9982 256.295 84.1239 256.56 84.3752 256.785C84.6266 257.002 84.9776 257.171 85.4282 257.292C85.8876 257.405 86.4206 257.461 87.0272 257.461C87.6512 257.461 88.1886 257.405 88.6392 257.292C89.0899 257.171 89.4366 257.002 89.6792 256.785C89.9306 256.56 90.0562 256.295 90.0562 255.992C90.0562 255.689 89.9306 255.429 89.6792 255.212C89.4366 254.987 89.0899 254.818 88.6392 254.705C88.1886 254.584 87.6512 254.523 87.0272 254.523ZM100.027 254.939H100.911V256.837C100.911 257.461 100.824 258.076 100.651 258.683C100.477 259.281 100.235 259.849 99.9225 260.386C99.6192 260.915 99.2639 261.383 98.8565 261.79C98.4492 262.197 98.0115 262.518 97.5435 262.752L96.9195 261.894C97.3442 261.686 97.7429 261.404 98.1155 261.049C98.4969 260.694 98.8305 260.286 99.1165 259.827C99.4025 259.368 99.6235 258.882 99.7795 258.371C99.9442 257.86 100.027 257.348 100.027 256.837V254.939ZM100.248 254.939H101.119V256.837C101.119 257.331 101.197 257.825 101.353 258.319C101.517 258.804 101.743 259.264 102.029 259.697C102.323 260.122 102.657 260.499 103.03 260.828C103.411 261.157 103.818 261.417 104.252 261.608L103.654 262.466C103.177 262.241 102.731 261.937 102.315 261.556C101.899 261.175 101.535 260.737 101.223 260.243C100.919 259.74 100.681 259.203 100.508 258.631C100.334 258.05 100.248 257.452 100.248 256.837V254.939ZM97.2965 254.458H103.862V255.355H97.2965V254.458ZM105.461 253.249H106.54V265.014H105.461V253.249ZM113.637 259.333H114.716V261.231H113.637V259.333ZM108.879 258.917H119.5V259.788H108.879V258.917ZM114.17 260.893C115.435 260.893 116.423 261.071 117.134 261.426C117.844 261.781 118.2 262.288 118.2 262.947C118.2 263.606 117.844 264.108 117.134 264.455C116.423 264.81 115.435 264.988 114.17 264.988C112.922 264.988 111.942 264.81 111.232 264.455C110.521 264.108 110.166 263.606 110.166 262.947C110.166 262.288 110.521 261.781 111.232 261.426C111.942 261.071 112.922 260.893 114.17 260.893ZM114.183 261.725C113.567 261.725 113.039 261.773 112.597 261.868C112.163 261.963 111.83 262.102 111.596 262.284C111.362 262.457 111.245 262.678 111.245 262.947C111.245 263.207 111.362 263.428 111.596 263.61C111.83 263.792 112.163 263.931 112.597 264.026C113.039 264.121 113.567 264.169 114.183 264.169C114.798 264.169 115.322 264.121 115.756 264.026C116.189 263.931 116.523 263.792 116.757 263.61C116.991 263.428 117.108 263.207 117.108 262.947C117.108 262.678 116.991 262.457 116.757 262.284C116.523 262.102 116.189 261.963 115.756 261.868C115.322 261.773 114.798 261.725 114.183 261.725ZM110.283 253.548H111.349V254.848H117.043V253.548H118.109V257.877H110.283V253.548ZM111.349 255.693V257.019H117.043V255.693H111.349ZM127.91 253.808C128.499 253.808 129.019 253.912 129.47 254.12C129.92 254.319 130.271 254.601 130.523 254.965C130.783 255.32 130.913 255.741 130.913 256.226C130.913 256.694 130.783 257.114 130.523 257.487C130.271 257.851 129.92 258.137 129.47 258.345C129.019 258.544 128.499 258.644 127.91 258.644C127.338 258.644 126.826 258.544 126.376 258.345C125.925 258.137 125.57 257.851 125.31 257.487C125.05 257.114 124.92 256.694 124.92 256.226C124.92 255.741 125.05 255.32 125.31 254.965C125.57 254.601 125.925 254.319 126.376 254.12C126.826 253.912 127.338 253.808 127.91 253.808ZM127.91 254.692C127.537 254.692 127.203 254.757 126.909 254.887C126.614 255.017 126.38 255.199 126.207 255.433C126.042 255.658 125.96 255.923 125.96 256.226C125.96 256.521 126.042 256.785 126.207 257.019C126.38 257.244 126.614 257.422 126.909 257.552C127.203 257.682 127.537 257.747 127.91 257.747C128.3 257.747 128.642 257.682 128.937 257.552C129.231 257.422 129.461 257.244 129.626 257.019C129.799 256.785 129.886 256.521 129.886 256.226C129.886 255.923 129.799 255.658 129.626 255.433C129.461 255.199 129.231 255.017 128.937 254.887C128.642 254.757 128.3 254.692 127.91 254.692ZM127.442 259.957H128.521V264.65H127.442V259.957ZM132.642 253.262H133.708V265.014H132.642V253.262ZM124.192 260.542L124.049 259.632C124.777 259.632 125.574 259.623 126.441 259.606C127.316 259.589 128.213 259.55 129.132 259.489C130.059 259.428 130.947 259.333 131.797 259.203L131.875 260.009C130.999 260.174 130.107 260.295 129.197 260.373C128.287 260.442 127.403 260.486 126.545 260.503C125.695 260.52 124.911 260.533 124.192 260.542ZM136.034 262.661H146.694V263.558H136.034V262.661ZM140.805 260.152H141.871V263.038H140.805V260.152ZM137.334 254.12H145.368V257.682H138.426V260.035H137.36V256.824H144.302V255.004H137.334V254.12ZM137.36 259.58H145.641V260.464H137.36V259.58ZM159.784 253.249H160.863V260.373H159.784V253.249ZM153.271 260.997H160.863V264.858H153.271V260.997ZM159.81 261.868H154.324V263.974H159.81V261.868ZM151.399 254.497H158.536V255.381H151.399V254.497ZM154.974 255.953C155.555 255.953 156.057 256.04 156.482 256.213C156.907 256.378 157.236 256.62 157.47 256.941C157.713 257.253 157.834 257.621 157.834 258.046C157.834 258.479 157.713 258.852 157.47 259.164C157.236 259.467 156.907 259.706 156.482 259.879C156.057 260.052 155.555 260.139 154.974 260.139C154.402 260.139 153.899 260.052 153.466 259.879C153.033 259.706 152.695 259.467 152.452 259.164C152.218 258.852 152.101 258.479 152.101 258.046C152.101 257.621 152.218 257.253 152.452 256.941C152.695 256.62 153.033 256.378 153.466 256.213C153.899 256.04 154.402 255.953 154.974 255.953ZM154.974 256.772C154.419 256.772 153.973 256.889 153.635 257.123C153.297 257.348 153.128 257.656 153.128 258.046C153.128 258.436 153.297 258.748 153.635 258.982C153.973 259.207 154.419 259.32 154.974 259.32C155.529 259.32 155.971 259.207 156.3 258.982C156.638 258.748 156.807 258.436 156.807 258.046C156.807 257.656 156.638 257.348 156.3 257.123C155.971 256.889 155.529 256.772 154.974 256.772ZM154.428 253.158H155.52V254.978H154.428V253.158ZM171.73 253.262H172.822V261.296H171.73V253.262ZM169.195 256.616H171.938V257.5H169.195V256.616ZM165.659 254.159H166.66C166.66 254.939 166.569 255.65 166.387 256.291C166.214 256.932 165.928 257.522 165.529 258.059C165.139 258.596 164.615 259.099 163.956 259.567L163.254 258.878C163.826 258.497 164.285 258.089 164.632 257.656C164.987 257.214 165.247 256.724 165.412 256.187C165.577 255.641 165.659 255.017 165.659 254.315V254.159ZM163.579 254.159H166.205V255.043H163.579V254.159ZM168.909 254.159H169.91C169.91 254.956 169.832 255.71 169.676 256.421C169.52 257.132 169.256 257.799 168.883 258.423C168.51 259.047 167.999 259.632 167.349 260.178L166.569 259.541C167.158 259.073 167.622 258.575 167.96 258.046C168.307 257.509 168.549 256.932 168.688 256.317C168.835 255.693 168.909 255.017 168.909 254.289V254.159ZM167.102 254.159H169.39V255.043H167.102V254.159ZM168.48 260.295H169.403V260.763C169.403 261.318 169.286 261.829 169.052 262.297C168.818 262.765 168.493 263.181 168.077 263.545C167.67 263.9 167.197 264.195 166.66 264.429C166.131 264.672 165.572 264.854 164.983 264.975L164.554 264.117C165.083 264.03 165.581 263.887 166.049 263.688C166.517 263.48 166.933 263.233 167.297 262.947C167.661 262.652 167.947 262.319 168.155 261.946C168.372 261.573 168.48 261.179 168.48 260.763V260.295ZM168.623 260.295H169.559V260.763C169.559 261.179 169.663 261.569 169.871 261.933C170.079 262.297 170.361 262.626 170.716 262.921C171.08 263.207 171.496 263.45 171.964 263.649C172.432 263.848 172.926 263.996 173.446 264.091L173.017 264.949C172.428 264.836 171.869 264.659 171.34 264.416C170.811 264.173 170.343 263.874 169.936 263.519C169.529 263.155 169.208 262.743 168.974 262.284C168.74 261.816 168.623 261.309 168.623 260.763V260.295ZM181.83 260.1H182.909V264.637H181.83V260.1ZM187.056 253.262H188.135V265.014H187.056V253.262ZM178.45 260.659L178.307 259.749C179.105 259.749 179.95 259.745 180.842 259.736C181.744 259.727 182.662 259.701 183.598 259.658C184.543 259.606 185.462 259.528 186.354 259.424L186.419 260.23C185.501 260.369 184.573 260.468 183.637 260.529C182.71 260.59 181.809 260.629 180.933 260.646C180.058 260.655 179.23 260.659 178.45 260.659ZM182.701 257.448H185.873V258.332H182.701V257.448ZM182.701 254.107H185.782V254.991H183.754V257.851H182.701V254.107ZM179.061 254.107H182.077V254.991H180.127V257.89H179.061V254.107ZM179.061 257.461H179.581C179.98 257.461 180.392 257.448 180.816 257.422C181.241 257.396 181.705 257.327 182.207 257.214L182.298 258.085C181.778 258.198 181.302 258.267 180.868 258.293C180.435 258.319 180.006 258.332 179.581 258.332H179.061V257.461ZM193.477 254.159C194.049 254.159 194.556 254.328 194.998 254.666C195.44 254.995 195.783 255.468 196.025 256.083C196.277 256.698 196.402 257.422 196.402 258.254C196.402 259.086 196.277 259.81 196.025 260.425C195.783 261.04 195.44 261.517 194.998 261.855C194.556 262.193 194.049 262.362 193.477 262.362C192.914 262.362 192.407 262.193 191.956 261.855C191.514 261.517 191.168 261.04 190.916 260.425C190.674 259.81 190.552 259.086 190.552 258.254C190.552 257.422 190.674 256.698 190.916 256.083C191.168 255.468 191.514 254.995 191.956 254.666C192.407 254.328 192.914 254.159 193.477 254.159ZM193.477 255.121C193.105 255.121 192.775 255.251 192.489 255.511C192.203 255.762 191.978 256.126 191.813 256.603C191.657 257.071 191.579 257.621 191.579 258.254C191.579 258.887 191.657 259.441 191.813 259.918C191.978 260.386 192.203 260.75 192.489 261.01C192.775 261.27 193.105 261.4 193.477 261.4C193.859 261.4 194.192 261.27 194.478 261.01C194.764 260.75 194.985 260.386 195.141 259.918C195.306 259.441 195.388 258.887 195.388 258.254C195.388 257.621 195.306 257.071 195.141 256.603C194.985 256.126 194.764 255.762 194.478 255.511C194.192 255.251 193.859 255.121 193.477 255.121ZM198.95 253.249H200.016V265.027H198.95V253.249ZM196.051 257.734H199.431V258.605H196.051V257.734Z" fill="black"/>
</svg>
