<svg width="26" height="21" viewBox="0 0 26 21" fill="none" xmlns="http://www.w3.org/2000/svg">
<path d="M16.82 19.528C16.406 20.043 15.874 20.325 15.224 20.374C14.575 20.424 13.993 20.241 13.478 19.825L7.8905 15.1435C7.2795 14.6375 6.746 14.0665 6.29 13.4305C5.834 12.7935 5.494 12.097 5.27 11.341C5.034 11.68 4.743 11.945 4.397 12.136C4.051 12.328 3.675 12.424 3.269 12.424H0.904999V2.38301H3.2705C3.9575 2.38301 4.534 2.63701 5 3.14501C5.467 3.65201 5.7145 4.26801 5.7425 4.99301C6.4625 3.54301 7.5145 2.40901 8.8985 1.59101C10.2825 0.773013 11.7895 0.364014 13.4195 0.364014C14.3715 0.364014 15.2815 0.535014 16.1495 0.877014C17.0175 1.21901 17.819 1.69501 18.554 2.30501L24.179 6.98651C24.694 7.41651 24.978 7.95051 25.031 8.58851C25.084 9.22851 24.896 9.80601 24.467 10.321L16.82 19.528Z" fill="#D9D9D9"/>
</svg>
