<svg width="15" height="15" viewBox="0 0 15 15" fill="none" xmlns="http://www.w3.org/2000/svg">
<path fill-rule="evenodd" clip-rule="evenodd" d="M2.70696 0.29298C2.51836 0.110822 2.26575 0.0100274 2.00356 0.0123059C1.74136 0.0145843 1.49055 0.119753 1.30514 0.305161C1.11973 0.490569 1.01456 0.741382 1.01229 1.00358C1.01001 1.26578 1.1108 1.51838 1.29296 1.70698L6.58596 6.99998L1.29296 12.293C1.19745 12.3852 1.12127 12.4956 1.06886 12.6176C1.01645 12.7396 0.988862 12.8708 0.987709 13.0036C0.986555 13.1364 1.01186 13.268 1.06214 13.3909C1.11242 13.5138 1.18667 13.6255 1.28056 13.7194C1.37446 13.8133 1.48611 13.8875 1.60901 13.9378C1.7319 13.9881 1.86358 14.0134 1.99636 14.0122C2.12914 14.0111 2.26036 13.9835 2.38236 13.9311C2.50437 13.8787 2.61471 13.8025 2.70696 13.707L7.99996 8.41398L13.293 13.707C13.4816 13.8891 13.7342 13.9899 13.9964 13.9877C14.2586 13.9854 14.5094 13.8802 14.6948 13.6948C14.8802 13.5094 14.9854 13.2586 14.9876 12.9964C14.9899 12.7342 14.8891 12.4816 14.707 12.293L9.41396 6.99998L14.707 1.70698C14.8891 1.51838 14.9899 1.26578 14.9876 1.00358C14.9854 0.741382 14.8802 0.490569 14.6948 0.305161C14.5094 0.119753 14.2586 0.0145843 13.9964 0.0123059C13.7342 0.0100274 13.4816 0.110822 13.293 0.29298L7.99996 5.58598L2.70696 0.29298Z" fill="#717171"/>
</svg>
