<svg width="32" height="32" viewBox="0 0 32 32" fill="none" xmlns="http://www.w3.org/2000/svg">
<path d="M16 16C14.5333 16 13.2778 15.4778 12.2333 14.4334C11.1889 13.3889 10.6666 12.1334 10.6666 10.6667C10.6666 9.20004 11.1889 7.94449 12.2333 6.90004C13.2778 5.8556 14.5333 5.33337 16 5.33337C17.4666 5.33337 18.7222 5.8556 19.7666 6.90004C20.8111 7.94449 21.3333 9.20004 21.3333 10.6667C21.3333 12.1334 20.8111 13.3889 19.7666 14.4334C18.7222 15.4778 17.4666 16 16 16ZM5.33331 24V22.9334C5.33331 22.1778 5.52798 21.4836 5.91731 20.8507C6.30665 20.2178 6.82309 19.7343 7.46665 19.4C8.84442 18.7112 10.2444 18.1947 11.6666 17.8507C13.0889 17.5067 14.5333 17.3343 16 17.3334C17.4666 17.3325 18.9111 17.5049 20.3333 17.8507C21.7555 18.1965 23.1555 18.7129 24.5333 19.4C25.1778 19.7334 25.6946 20.2169 26.084 20.8507C26.4733 21.4845 26.6675 22.1787 26.6666 22.9334V24C26.6666 24.7334 26.4058 25.3614 25.884 25.884C25.3622 26.4067 24.7342 26.6676 24 26.6667H7.99998C7.26665 26.6667 6.63909 26.4058 6.11731 25.884C5.59553 25.3623 5.3342 24.7343 5.33331 24Z" fill="#FF6D6D"/>
</svg>
