<svg width="22" height="22" viewBox="0 0 22 22" fill="none" xmlns="http://www.w3.org/2000/svg">
<path d="M10.9999 11C9.53325 11 8.2777 10.4778 7.23325 9.43337C6.18881 8.38893 5.66659 7.13337 5.66659 5.66671C5.66659 4.20004 6.18881 2.94449 7.23325 1.90004C8.2777 0.855596 9.53325 0.333374 10.9999 0.333374C12.4666 0.333374 13.7221 0.855596 14.7666 1.90004C15.811 2.94449 16.3333 4.20004 16.3333 5.66671C16.3333 7.13337 15.811 8.38893 14.7666 9.43337C13.7221 10.4778 12.4666 11 10.9999 11ZM0.333252 19V17.9334C0.333252 17.1778 0.527919 16.4836 0.917252 15.8507C1.30659 15.2178 1.82303 14.7343 2.46659 14.4C3.84436 13.7112 5.24436 13.1947 6.66659 12.8507C8.08881 12.5067 9.53325 12.3343 10.9999 12.3334C12.4666 12.3325 13.911 12.5049 15.3333 12.8507C16.7555 13.1965 18.1555 13.7129 19.5333 14.4C20.1777 14.7334 20.6946 15.2169 21.0839 15.8507C21.4733 16.4845 21.6675 17.1787 21.6666 17.9334V19C21.6666 19.7334 21.4057 20.3614 20.8839 20.884C20.3621 21.4067 19.7341 21.6676 18.9999 21.6667H2.99992C2.26659 21.6667 1.63903 21.4058 1.11725 20.884C0.595474 20.3623 0.334141 19.7343 0.333252 19Z" fill="#FF6D6D"/>
</svg>
