<svg width="36" height="36" viewBox="0 0 36 36" fill="none" xmlns="http://www.w3.org/2000/svg">
<rect x="0.5" y="0.5" width="35" height="35" stroke="black"/>
<path d="M20.82 27.528C20.406 28.043 19.874 28.325 19.224 28.374C18.575 28.424 17.993 28.241 17.478 27.825L11.8905 23.1435C11.2795 22.6375 10.746 22.0665 10.29 21.4305C9.83403 20.7935 9.49403 20.097 9.27003 19.341C9.03403 19.68 8.74303 19.945 8.39703 20.136C8.05103 20.328 7.67503 20.424 7.26903 20.424H4.90503V10.383H7.27053C7.95753 10.383 8.53403 10.637 9.00003 11.145C9.46703 11.652 9.71453 12.268 9.74253 12.993C10.4625 11.543 11.5145 10.409 12.8985 9.59101C14.2825 8.77301 15.7895 8.36401 17.4195 8.36401C18.3715 8.36401 19.2815 8.53501 20.1495 8.87701C21.0175 9.21901 21.819 9.69501 22.554 10.305L28.179 14.9865C28.694 15.4165 28.978 15.9505 29.031 16.5885C29.084 17.2285 28.896 17.806 28.467 18.321L20.82 27.528Z" fill="#FF6D6D"/>
</svg>
