<svg width="20" height="23" viewBox="0 0 20 23" fill="none" xmlns="http://www.w3.org/2000/svg">
<path d="M0 19.75V8.5C0 8.10417 0.0887498 7.72917 0.26625 7.375C0.44375 7.02083 0.688334 6.72917 1 6.5L8.5 0.875C8.9375 0.541667 9.4375 0.375 10 0.375C10.5625 0.375 11.0625 0.541667 11.5 0.875L19 6.5C19.3125 6.72917 19.5575 7.02083 19.735 7.375C19.9125 7.72917 20.0008 8.10417 20 8.5V19.75C20 20.4375 19.755 21.0263 19.265 21.5163C18.775 22.0063 18.1867 22.2508 17.5 22.25H13.75C13.3958 22.25 13.0992 22.13 12.86 21.89C12.6208 21.65 12.5008 21.3533 12.5 21V14.75C12.5 14.3958 12.38 14.0992 12.14 13.86C11.9 13.6208 11.6033 13.5008 11.25 13.5H8.75C8.39583 13.5 8.09917 13.62 7.86 13.86C7.62083 14.1 7.50083 14.3967 7.5 14.75V21C7.5 21.3542 7.38 21.6512 7.14 21.8912C6.9 22.1312 6.60333 22.2508 6.25 22.25H2.5C1.8125 22.25 1.22417 22.0054 0.735 21.5163C0.245833 21.0271 0.000833333 20.4383 0 19.75Z" fill="#D9D9D9"/>
</svg>
