<svg width="59" height="60" viewBox="0 0 59 60" fill="none" xmlns="http://www.w3.org/2000/svg">
<path d="M27.0416 43.75C27.0416 46.49 27.7078 49.0725 28.8853 51.3375V53.125C28.8852 53.6001 28.7077 54.0574 28.3888 54.4045C28.0699 54.7516 27.6333 54.9627 27.1673 54.9951C26.7012 55.0274 26.2404 54.8787 25.8781 54.5789C25.5157 54.2791 25.2787 53.8506 25.215 53.38L25.1978 53.125V47.455C21.1207 47.1471 17.2989 45.3194 14.4653 42.3224C11.6316 39.3254 9.9857 35.3701 9.84309 31.215L9.83325 30.625V29.375C9.8334 28.8999 10.0109 28.4426 10.3298 28.0955C10.6487 27.7484 11.0853 27.5373 11.5513 27.5049C12.0174 27.4726 12.4782 27.6213 12.8405 27.9211C13.2029 28.2209 13.4399 28.6494 13.5035 29.12L13.5208 29.375V30.625C13.5205 34.0127 14.8082 37.2692 17.1147 39.7136C19.4211 42.1579 22.5676 43.6006 25.896 43.74L26.427 43.75H27.0416ZM36.8749 15V28.745C35.5238 29.3185 34.2565 30.0781 33.1088 31.0025C33.1612 30.6775 33.1874 30.3433 33.1874 30V15C33.1874 13.3424 32.5399 11.7527 31.3873 10.5806C30.2348 9.40848 28.6716 8.75 27.0416 8.75C25.4116 8.75 23.8484 9.40848 22.6958 10.5806C21.5433 11.7527 20.8958 13.3424 20.8958 15V30C20.8956 30.9932 21.1281 31.9721 21.5742 32.8557C22.0202 33.7392 22.6669 34.502 23.4607 35.0807C24.2544 35.6594 25.1723 36.0373 26.1384 36.1833C27.1044 36.3293 28.0907 36.239 29.0156 35.92C28.3235 37.1999 27.8042 38.5689 27.4718 39.99L27.0416 40C24.4336 40 21.9325 38.9464 20.0884 37.0711C18.2443 35.1957 17.2083 32.6522 17.2083 30V15C17.2083 12.3478 18.2443 9.8043 20.0884 7.92893C21.9325 6.05357 24.4336 5 27.0416 5C29.6495 5 32.1507 6.05357 33.9948 7.92893C35.8389 9.8043 36.8749 12.3478 36.8749 15ZM49.1666 43.75C49.1666 45.4076 48.5191 46.9973 47.3665 48.1694C46.2139 49.3415 44.6507 50 43.0208 50C41.3908 50 39.8276 49.3415 38.675 48.1694C37.5224 46.9973 36.8749 45.4076 36.8749 43.75C36.8749 42.0924 37.5224 40.5027 38.675 39.3306C39.8276 38.1585 41.3908 37.5 43.0208 37.5C44.6507 37.5 46.2139 38.1585 47.3665 39.3306C48.5191 40.5027 49.1666 42.0924 49.1666 43.75ZM56.5416 43.75C56.5416 47.3967 55.1171 50.8941 52.5814 53.4727C50.0458 56.0513 46.6067 57.5 43.0208 57.5C39.4348 57.5 35.9957 56.0513 33.4601 53.4727C30.9244 50.8941 29.4999 47.3967 29.4999 43.75C29.4999 40.1033 30.9244 36.6059 33.4601 34.0273C35.9957 31.4487 39.4348 30 43.0208 30C46.6067 30 50.0458 31.4487 52.5814 34.0273C55.1171 36.6059 56.5416 40.1033 56.5416 43.75ZM33.1874 43.75C33.1874 46.4022 34.2234 48.9457 36.0675 50.8211C37.9116 52.6964 40.4128 53.75 43.0208 53.75C45.6287 53.75 48.1299 52.6964 49.974 50.8211C51.8181 48.9457 52.8541 46.4022 52.8541 43.75C52.8541 41.0978 51.8181 38.5543 49.974 36.6789C48.1299 34.8036 45.6287 33.75 43.0208 33.75C40.4128 33.75 37.9116 34.8036 36.0675 36.6789C34.2234 38.5543 33.1874 41.0978 33.1874 43.75Z" fill="#717171"/>
</svg>
