<svg width="25" height="25" viewBox="0 0 25 25" fill="none" xmlns="http://www.w3.org/2000/svg">
<path d="M11.4583 18.2292C11.4583 19.3708 11.7406 20.4469 12.2396 21.3906V22.1354C12.2395 22.3334 12.1643 22.5239 12.0292 22.6685C11.8941 22.8132 11.7091 22.9011 11.5116 22.9146C11.3141 22.9281 11.1189 22.8661 10.9653 22.7412C10.8118 22.6163 10.7114 22.4378 10.6844 22.2417L10.6771 22.1354V19.7729C8.94949 19.6446 7.33007 18.8831 6.12939 17.6343C4.9287 16.3856 4.23126 14.7375 4.17083 13.0062L4.16667 12.7604V12.2396C4.16673 12.0416 4.24192 11.8511 4.37705 11.7065C4.51219 11.5618 4.69719 11.4739 4.89467 11.4604C5.09215 11.4469 5.28739 11.5089 5.44094 11.6338C5.59448 11.7587 5.69489 11.9372 5.72187 12.1333L5.72917 12.2396V12.7604C5.72905 14.1719 6.27471 15.5288 7.25202 16.5473C8.22933 17.5658 9.56258 18.1669 10.9729 18.225L11.1979 18.2292H11.4583ZM15.625 6.24999V11.9771C15.0525 12.216 14.5155 12.5325 14.0292 12.9177C14.0514 12.7823 14.0625 12.6431 14.0625 12.5V6.24999C14.0625 5.55933 13.7881 4.89695 13.2998 4.40857C12.8114 3.92019 12.149 3.64583 11.4583 3.64583C10.7677 3.64583 10.1053 3.92019 9.61691 4.40857C9.12853 4.89695 8.85417 5.55933 8.85417 6.24999V12.5C8.85409 12.9138 8.95264 13.3217 9.14164 13.6899C9.33065 14.058 9.60467 14.3758 9.941 14.6169C10.2773 14.8581 10.6663 15.0156 11.0756 15.0764C11.4849 15.1372 11.9029 15.0996 12.2948 14.9667C12.0015 15.5 11.7815 16.0704 11.6406 16.6625L11.4583 16.6667C10.3533 16.6667 9.29346 16.2277 8.51205 15.4463C7.73065 14.6649 7.29167 13.6051 7.29167 12.5V6.24999C7.29167 5.14493 7.73065 4.08512 8.51205 3.30372C9.29346 2.52232 10.3533 2.08333 11.4583 2.08333C12.5634 2.08333 13.6232 2.52232 14.4046 3.30372C15.186 4.08512 15.625 5.14493 15.625 6.24999ZM20.8333 18.2292C20.8333 18.9198 20.559 19.5822 20.0706 20.0706C19.5822 20.559 18.9198 20.8333 18.2292 20.8333C17.5385 20.8333 16.8761 20.559 16.3877 20.0706C15.8994 19.5822 15.625 18.9198 15.625 18.2292C15.625 17.5385 15.8994 16.8761 16.3877 16.3877C16.8761 15.8994 17.5385 15.625 18.2292 15.625C18.9198 15.625 19.5822 15.8994 20.0706 16.3877C20.559 16.8761 20.8333 17.5385 20.8333 18.2292ZM23.9583 18.2292C23.9583 19.7486 23.3547 21.2059 22.2803 22.2803C21.2059 23.3547 19.7486 23.9583 18.2292 23.9583C16.7097 23.9583 15.2525 23.3547 14.178 22.2803C13.1036 21.2059 12.5 19.7486 12.5 18.2292C12.5 16.7097 13.1036 15.2525 14.178 14.178C15.2525 13.1036 16.7097 12.5 18.2292 12.5C19.7486 12.5 21.2059 13.1036 22.2803 14.178C23.3547 15.2525 23.9583 16.7097 23.9583 18.2292ZM14.0625 18.2292C14.0625 19.3342 14.5015 20.394 15.2829 21.1754C16.0643 21.9568 17.1241 22.3958 18.2292 22.3958C19.3342 22.3958 20.394 21.9568 21.1754 21.1754C21.9568 20.394 22.3958 19.3342 22.3958 18.2292C22.3958 17.1241 21.9568 16.0643 21.1754 15.2829C20.394 14.5015 19.3342 14.0625 18.2292 14.0625C17.1241 14.0625 16.0643 14.5015 15.2829 15.2829C14.5015 16.0643 14.0625 17.1241 14.0625 18.2292Z" fill="#FFE4E1"/>
</svg>
