<svg width="25" height="25" viewBox="0 0 25 25" fill="none" xmlns="http://www.w3.org/2000/svg">
<rect width="25" height="25" fill="white"/>
<path d="M22.1354 12.5C22.1354 15.0555 21.1203 17.5063 19.3133 19.3133C17.5063 21.1203 15.0555 22.1354 12.5 22.1354V23.6979C18.6844 23.6979 23.6979 18.6844 23.6979 12.5H22.1354ZM12.5 22.1354C9.94452 22.1354 7.49372 21.1203 5.68673 19.3133C3.87974 17.5063 2.86458 15.0555 2.86458 12.5H1.30208C1.30208 18.6844 6.31562 23.6979 12.5 23.6979V22.1354ZM2.86458 12.5C2.86458 9.94452 3.87974 7.49372 5.68673 5.68673C7.49372 3.87974 9.94452 2.86458 12.5 2.86458V1.30208C6.31562 1.30208 1.30208 6.31562 1.30208 12.5H2.86458ZM16.1458 14.8437C14.5573 14.8437 13.0338 14.2127 11.9106 13.0894C10.7873 11.9662 10.1562 10.4427 10.1562 8.85416H8.59374C8.59374 10.8571 9.38941 12.778 10.8057 14.1943C12.222 15.6106 14.1429 16.4062 16.1458 16.4062V14.8437ZM21.276 11.9469C20.743 12.8309 19.9906 13.5621 19.0917 14.0697C18.1929 14.5773 17.1781 14.8439 16.1458 14.8437V16.4062C17.4473 16.4066 18.7267 16.0707 19.8601 15.431C20.9935 14.7913 21.9423 13.8696 22.6146 12.7552L21.276 11.9469ZM10.1562 8.85416C10.1561 7.8219 10.4227 6.80711 10.9303 5.90825C11.4379 5.00939 12.1691 4.25696 13.0531 3.72395L12.2448 2.38645C11.1306 3.05862 10.2089 4.00729 9.56925 5.14047C8.92957 6.27365 8.59354 7.5529 8.59374 8.85416H10.1562ZM12.5 2.86458C12.4476 2.86357 12.396 2.85219 12.3481 2.83109C12.3002 2.80999 12.2569 2.77959 12.2208 2.74166C12.1769 2.69755 12.1472 2.64133 12.1354 2.5802C12.1312 2.54791 12.1333 2.45416 12.2448 2.38645L13.0531 3.72395C13.5771 3.40729 13.7458 2.82708 13.6844 2.37083C13.6198 1.89687 13.2469 1.30208 12.5 1.30208V2.86458ZM22.6146 12.7552C22.5458 12.8667 22.4521 12.8687 22.4198 12.8646C22.3587 12.8528 22.3024 12.8231 22.2583 12.7792C22.2204 12.7431 22.19 12.6998 22.1689 12.6519C22.1478 12.604 22.1364 12.5523 22.1354 12.5H23.6979C23.6979 11.7531 23.1031 11.3802 22.6292 11.3156C22.1729 11.2542 21.5927 11.4229 21.276 11.9469L22.6146 12.7552Z" fill="#B6DFFF"/>
</svg>
