<svg width="22" height="22" viewBox="0 0 22 22" fill="none" xmlns="http://www.w3.org/2000/svg">
<path d="M11 11C9.53333 11 8.27777 10.4778 7.23333 9.43337C6.18888 8.38893 5.66666 7.13337 5.66666 5.66671C5.66666 4.20004 6.18888 2.94449 7.23333 1.90004C8.27777 0.855596 9.53333 0.333374 11 0.333374C12.4667 0.333374 13.7222 0.855596 14.7667 1.90004C15.8111 2.94449 16.3333 4.20004 16.3333 5.66671C16.3333 7.13337 15.8111 8.38893 14.7667 9.43337C13.7222 10.4778 12.4667 11 11 11ZM0.333328 19V17.9334C0.333328 17.1778 0.527995 16.4836 0.917329 15.8507C1.30666 15.2178 1.82311 14.7343 2.46666 14.4C3.84444 13.7112 5.24444 13.1947 6.66666 12.8507C8.08888 12.5067 9.53333 12.3343 11 12.3334C12.4667 12.3325 13.9111 12.5049 15.3333 12.8507C16.7556 13.1965 18.1556 13.7129 19.5333 14.4C20.1778 14.7334 20.6947 15.2169 21.084 15.8507C21.4733 16.4845 21.6676 17.1787 21.6667 17.9334V19C21.6667 19.7334 21.4058 20.3614 20.884 20.884C20.3622 21.4067 19.7342 21.6676 19 21.6667H2.99999C2.26666 21.6667 1.63911 21.4058 1.11733 20.884C0.59555 20.3623 0.334217 19.7343 0.333328 19Z" fill="#D9D9D9"/>
</svg>
