<svg width="18" height="18" viewBox="0 0 18 18" fill="none" xmlns="http://www.w3.org/2000/svg">
<path d="M3.0913 17.2944C3.0913 17.2944 1.68667 13.0791 3.15305 13.9426C4.61943 14.8061 12.0046 14.5257 17.4211 11.5864L17.4241 11.4173C15.5619 9.0443 14.1588 8.65156 7.26734 6.34816L7.21911 8.96638L1.22024 5.30136L7.36381 1.11173L7.3018 4.478C17.1416 6.74106 17.8075 7.55683 17.4241 11.4173L17.4211 11.5864C14.8529 15.1914 14.65 16.2981 3.0913 17.2944Z" fill="#ACACAC"/>
<path d="M17.4211 11.5864C14.8529 15.1914 14.65 16.2981 3.0913 17.2944C3.0913 17.2944 1.68667 13.0791 3.15305 13.9426C4.61943 14.8061 12.0046 14.5257 17.4211 11.5864ZM17.4211 11.5864L17.4241 11.4173M7.26734 6.34816L7.21911 8.96638L1.22024 5.30136L7.36381 1.11173L7.3018 4.478M7.26734 6.34816L7.3018 4.478M7.26734 6.34816C14.1588 8.65156 15.5619 9.0443 17.4241 11.4173M7.3018 4.478C17.1416 6.74106 17.8075 7.55683 17.4241 11.4173" stroke="#ACACAC"/>
</svg>
