<svg width="19" height="18" viewBox="0 0 19 18" fill="none" xmlns="http://www.w3.org/2000/svg">
<path d="M15.5752 17.2944C15.5752 17.2944 16.9799 13.0791 15.5135 13.9426C14.0471 14.8061 6.66192 14.5257 1.24543 11.5864L1.24247 11.4173C3.10467 9.0443 4.50772 8.65156 11.3992 6.34816L11.4474 8.96638L17.4463 5.30136L11.3027 1.11173L11.3647 4.478C1.52494 6.74106 0.85901 7.55683 1.24247 11.4173L1.24543 11.5864C3.81363 15.1914 4.0165 16.2981 15.5752 17.2944Z" fill="#ACACAC"/>
<path d="M1.24543 11.5864C3.81363 15.1914 4.0165 16.2981 15.5752 17.2944C15.5752 17.2944 16.9799 13.0791 15.5135 13.9426C14.0471 14.8061 6.66192 14.5257 1.24543 11.5864ZM1.24543 11.5864L1.24247 11.4173M11.3992 6.34816L11.4474 8.96638L17.4463 5.30136L11.3027 1.11173L11.3647 4.478M11.3992 6.34816L11.3647 4.478M11.3992 6.34816C4.50772 8.65156 3.10467 9.0443 1.24247 11.4173M11.3647 4.478C1.52494 6.74106 0.85901 7.55683 1.24247 11.4173" stroke="#ACACAC"/>
</svg>
