<svg width="326" height="350" viewBox="0 0 326 350" fill="none" xmlns="http://www.w3.org/2000/svg">
<rect width="294.94" height="350" rx="20" fill="#FFD4CF"/>
<rect x="11.7976" width="275.277" height="350" rx="20" fill="white"/>
<rect x="14.9437" width="272.131" height="350" rx="20" fill="#E8E8E8"/>
<rect x="20.241" width="299.759" height="350" rx="20" fill="white"/>
<path d="M19.981 309.882L64.5043 349.217H27.3653C22.9597 348.498 21.5121 346.928 19.981 342.939V309.882Z" fill="#E8E8E8" stroke="#E8E8E8"/>
<path d="M275.557 345.012L314.332 300L314.797 337.136C314.132 341.55 312.581 343.017 308.611 344.598L275.557 345.012Z" fill="#E8E8E8" stroke="#E8E8E8"/>
<path d="M39.9624 345.325C39.9624 345.325 41.5014 341.19 39.9624 342.015C38.4234 342.841 30.7611 342.43 25.1937 339.43L25.1938 339.263C27.1726 336.954 28.6369 336.592 35.836 334.444V337.029L42.1344 333.52L35.836 329.273V332.597C25.5765 334.652 24.8695 335.445 25.1938 339.263L25.1937 339.43C27.7911 343.035 27.9806 344.131 39.9624 345.325Z" fill="#9B9B9B"/>
<path d="M25.1937 339.43C27.7911 343.035 27.9806 344.131 39.9624 345.325C39.9624 345.325 41.5014 341.19 39.9624 342.015C38.4234 342.841 30.7611 342.43 25.1937 339.43ZM25.1937 339.43L25.1938 339.263M35.836 334.444V337.029L42.1344 333.52L35.836 329.273V332.597M35.836 334.444V332.597M35.836 334.444C28.6369 336.592 27.1726 336.954 25.1938 339.263M35.836 332.597C25.5765 334.652 24.8695 335.445 25.1938 339.263" stroke="#9B9B9B"/>
<path d="M101.145 29.7175H103.325V30.8775C103.325 32.0508 103.132 33.1575 102.745 34.1975C102.372 35.2375 101.798 36.1508 101.025 36.9375C100.265 37.7108 99.2983 38.2908 98.1249 38.6775L96.7449 36.6175C97.7716 36.2708 98.6049 35.7975 99.2449 35.1975C99.8983 34.5975 100.378 33.9242 100.685 33.1775C100.992 32.4175 101.145 31.6508 101.145 30.8775V29.7175ZM101.665 29.7175H103.825V30.8775C103.825 31.5975 103.972 32.3175 104.265 33.0375C104.558 33.7442 105.018 34.3842 105.645 34.9575C106.285 35.5175 107.098 35.9575 108.085 36.2775L106.745 38.3575C105.585 37.9842 104.632 37.4175 103.885 36.6575C103.138 35.8975 102.578 35.0242 102.205 34.0375C101.845 33.0375 101.665 31.9842 101.665 30.8775V29.7175ZM97.4449 28.9175H107.465V31.0375H97.4449V28.9175ZM108.925 27.8375H111.585V38.9775H108.925V27.8375ZM110.865 32.2975H114.045V34.4975H110.865V32.2975ZM99.2249 39.7975H111.585V46.3575H108.925V41.9175H99.2249V39.7975ZM115.403 37.2775H132.163V39.3775H115.403V37.2775ZM117.443 43.8975H130.283V46.0375H117.443V43.8975ZM117.443 40.6175H120.103V44.5775H117.443V40.6175ZM123.783 28.3775C125.13 28.3775 126.303 28.5308 127.303 28.8375C128.317 29.1442 129.103 29.5842 129.663 30.1575C130.223 30.7308 130.503 31.4042 130.503 32.1775C130.503 32.9642 130.223 33.6442 129.663 34.2175C129.103 34.7908 128.317 35.2308 127.303 35.5375C126.303 35.8442 125.13 35.9975 123.783 35.9975C122.45 35.9975 121.277 35.8442 120.263 35.5375C119.263 35.2308 118.483 34.7908 117.923 34.2175C117.363 33.6442 117.083 32.9642 117.083 32.1775C117.083 31.4042 117.363 30.7308 117.923 30.1575C118.483 29.5842 119.263 29.1442 120.263 28.8375C121.277 28.5308 122.45 28.3775 123.783 28.3775ZM123.783 30.4775C122.97 30.4775 122.263 30.5442 121.663 30.6775C121.063 30.8108 120.61 31.0042 120.303 31.2575C119.997 31.4975 119.843 31.8042 119.843 32.1775C119.843 32.5508 119.997 32.8642 120.303 33.1175C120.61 33.3708 121.063 33.5642 121.663 33.6975C122.263 33.8308 122.97 33.8975 123.783 33.8975C124.623 33.8975 125.337 33.8308 125.923 33.6975C126.51 33.5642 126.957 33.3708 127.263 33.1175C127.583 32.8642 127.743 32.5508 127.743 32.1775C127.743 31.8042 127.583 31.4975 127.263 31.2575C126.957 31.0042 126.51 30.8108 125.923 30.6775C125.337 30.5442 124.623 30.4775 123.783 30.4775ZM141.075 36.9975H154.095V39.0975H141.075V36.9975ZM139.115 42.1775H155.895V44.3175H139.115V42.1775ZM146.155 38.0575H148.815V43.1175H146.155V38.0575ZM141.075 29.0775H153.955V31.2175H143.775V37.7775H141.075V29.0775ZM142.955 33.0175H153.535V35.0775H142.955V33.0175ZM170.233 27.8175H172.913V46.3375H170.233V27.8175ZM160.793 29.7175H163.293C163.293 30.9708 163.24 32.1642 163.133 33.2975C163.027 34.4308 162.833 35.5175 162.553 36.5575C162.287 37.5842 161.893 38.5775 161.373 39.5375C160.867 40.4842 160.213 41.4042 159.413 42.2975L157.393 40.7575C158.073 39.9975 158.633 39.2308 159.073 38.4575C159.513 37.6708 159.86 36.8508 160.113 35.9975C160.367 35.1442 160.54 34.2308 160.633 33.2575C160.74 32.2708 160.793 31.1975 160.793 30.0375V29.7175ZM158.253 29.7175H161.813V31.8575H158.253V29.7175ZM165.933 29.7175H168.433C168.433 31.0375 168.387 32.3175 168.293 33.5575C168.2 34.7842 168.027 35.9708 167.773 37.1175C167.52 38.2508 167.153 39.3508 166.673 40.4175C166.193 41.4842 165.573 42.5042 164.813 43.4775L162.673 42.0375C163.34 41.1708 163.88 40.2908 164.293 39.3975C164.72 38.5042 165.053 37.5775 165.293 36.6175C165.533 35.6442 165.7 34.6175 165.793 33.5375C165.887 32.4442 165.933 31.2642 165.933 29.9975V29.7175ZM163.933 29.7175H166.993V31.8575H163.933V29.7175ZM181.872 29.0575C182.832 29.0575 183.698 29.2508 184.472 29.6375C185.245 30.0242 185.852 30.5642 186.292 31.2575C186.732 31.9375 186.952 32.7242 186.952 33.6175C186.952 34.4975 186.732 35.2842 186.292 35.9775C185.852 36.6708 185.245 37.2108 184.472 37.5975C183.698 37.9842 182.832 38.1775 181.872 38.1775C180.898 38.1775 180.025 37.9842 179.252 37.5975C178.478 37.2108 177.865 36.6708 177.412 35.9775C176.972 35.2842 176.752 34.4975 176.752 33.6175C176.752 32.7242 176.972 31.9375 177.412 31.2575C177.865 30.5642 178.478 30.0242 179.252 29.6375C180.025 29.2508 180.898 29.0575 181.872 29.0575ZM181.872 31.3375C181.392 31.3375 180.958 31.4308 180.572 31.6175C180.198 31.7908 179.898 32.0508 179.672 32.3975C179.458 32.7308 179.352 33.1375 179.352 33.6175C179.352 34.0975 179.458 34.5108 179.672 34.8575C179.898 35.2042 180.198 35.4708 180.572 35.6575C180.958 35.8308 181.392 35.9175 181.872 35.9175C182.338 35.9175 182.758 35.8308 183.132 35.6575C183.505 35.4708 183.798 35.2042 184.012 34.8575C184.238 34.5108 184.352 34.0975 184.352 33.6175C184.352 33.1375 184.238 32.7308 184.012 32.3975C183.798 32.0508 183.505 31.7908 183.132 31.6175C182.758 31.4308 182.338 31.3375 181.872 31.3375ZM188.692 27.7975H191.352V46.3775H188.692V27.7975ZM176.292 42.6375L175.992 40.4775C177.072 40.4775 178.265 40.4708 179.572 40.4575C180.892 40.4308 182.245 40.3775 183.632 40.2975C185.032 40.2042 186.385 40.0642 187.692 39.8775L187.872 41.7975C186.538 42.0642 185.185 42.2575 183.812 42.3775C182.438 42.4842 181.112 42.5575 179.832 42.5975C178.552 42.6242 177.372 42.6375 176.292 42.6375ZM199.603 42.0375H216.383V44.1975H199.603V42.0375ZM206.643 37.9575H209.283V42.5575H206.643V37.9575ZM201.363 29.1975H214.543V38.2975H201.363V29.1975ZM211.923 31.2975H203.983V36.1775H211.923V31.2975ZM230.821 27.8375H233.501V39.0175H230.821V27.8375ZM228.521 33.2375H231.901V35.3975H228.521V33.2375ZM221.141 39.7975H233.501V46.1575H221.141V39.7975ZM230.881 41.8775H223.761V44.0575H230.881V41.8775ZM218.041 29.4375H228.861V31.5375H218.041V29.4375ZM223.461 32.1375C224.328 32.1375 225.095 32.2775 225.761 32.5575C226.428 32.8375 226.948 33.2308 227.321 33.7375C227.708 34.2308 227.901 34.8108 227.901 35.4775C227.901 36.1308 227.708 36.7108 227.321 37.2175C226.948 37.7108 226.428 38.0975 225.761 38.3775C225.095 38.6575 224.328 38.7975 223.461 38.7975C222.608 38.7975 221.841 38.6575 221.161 38.3775C220.495 38.0975 219.968 37.7108 219.581 37.2175C219.208 36.7108 219.021 36.1308 219.021 35.4775C219.021 34.8108 219.208 34.2308 219.581 33.7375C219.968 33.2308 220.495 32.8375 221.161 32.5575C221.841 32.2775 222.608 32.1375 223.461 32.1375ZM223.481 34.0975C223.095 34.0975 222.755 34.1508 222.461 34.2575C222.181 34.3642 221.961 34.5175 221.801 34.7175C221.641 34.9175 221.561 35.1642 221.561 35.4575C221.561 35.7642 221.641 36.0242 221.801 36.2375C221.961 36.4375 222.188 36.5908 222.481 36.6975C222.775 36.8042 223.101 36.8575 223.461 36.8575C223.848 36.8575 224.181 36.8042 224.461 36.6975C224.741 36.5908 224.961 36.4375 225.121 36.2375C225.281 36.0242 225.361 35.7642 225.361 35.4575C225.361 35.1642 225.281 34.9175 225.121 34.7175C224.961 34.5175 224.741 34.3642 224.461 34.2575C224.181 34.1508 223.855 34.0975 223.481 34.0975ZM222.141 27.6775H224.781V30.9175H222.141V27.6775Z" fill="#5A5A5A"/>
<path d="M33.783 121.159C34.355 121.159 34.862 121.328 35.304 121.666C35.746 121.995 36.0883 122.468 36.331 123.083C36.5823 123.698 36.708 124.422 36.708 125.254C36.708 126.086 36.5823 126.81 36.331 127.425C36.0883 128.04 35.746 128.517 35.304 128.855C34.862 129.193 34.355 129.362 33.783 129.362C33.2197 129.362 32.7127 129.193 32.262 128.855C31.82 128.517 31.4733 128.04 31.222 127.425C30.9793 126.81 30.858 126.086 30.858 125.254C30.858 124.422 30.9793 123.698 31.222 123.083C31.4733 122.468 31.82 121.995 32.262 121.666C32.7127 121.328 33.2197 121.159 33.783 121.159ZM33.783 122.121C33.4103 122.121 33.081 122.251 32.795 122.511C32.509 122.762 32.2837 123.126 32.119 123.603C31.963 124.071 31.885 124.621 31.885 125.254C31.885 125.887 31.963 126.441 32.119 126.918C32.2837 127.386 32.509 127.75 32.795 128.01C33.081 128.27 33.4103 128.4 33.783 128.4C34.1643 128.4 34.498 128.27 34.784 128.01C35.07 127.75 35.291 127.386 35.447 126.918C35.6117 126.441 35.694 125.887 35.694 125.254C35.694 124.621 35.6117 124.071 35.447 123.603C35.291 123.126 35.07 122.762 34.784 122.511C34.498 122.251 34.1643 122.121 33.783 122.121ZM39.256 120.249H40.322V132.027H39.256V120.249ZM36.357 124.734H39.737V125.605H36.357V124.734ZM43.909 125.566H52.047V126.463H43.909V125.566ZM42.609 129.492H53.269V130.402H42.609V129.492ZM43.909 121.276H44.988V125.969H43.909V121.276ZM60.7043 121.458H61.5883V122.407C61.5883 123.126 61.4496 123.798 61.1723 124.422C60.9036 125.037 60.5266 125.575 60.0413 126.034C59.5559 126.485 58.9839 126.827 58.3253 127.061L57.7533 126.229C58.3426 126.021 58.8583 125.722 59.3003 125.332C59.7423 124.942 60.0846 124.5 60.3273 124.006C60.5786 123.503 60.7043 122.97 60.7043 122.407V121.458ZM60.8993 121.458H61.7833V122.407C61.7833 122.918 61.9003 123.412 62.1343 123.889C62.3683 124.366 62.6976 124.786 63.1223 125.15C63.5556 125.514 64.0583 125.796 64.6303 125.995L64.0843 126.84C63.4429 126.606 62.8796 126.272 62.3943 125.839C61.9176 125.397 61.5493 124.881 61.2893 124.292C61.0293 123.703 60.8993 123.074 60.8993 122.407V121.458ZM58.0783 121.068H64.3703V121.952H58.0783V121.068ZM65.8523 120.249H66.9313V127.334H65.8523V120.249ZM66.6323 123.343H68.6603V124.253H66.6323V123.343ZM59.2873 127.958H66.9313V132.014H65.8523V128.842H59.2873V127.958ZM69.7643 126.437H80.3853V127.308H69.7643V126.437ZM71.1293 130.87H79.2023V131.754H71.1293V130.87ZM71.1293 128.348H72.2083V131.13H71.1293V128.348ZM75.0683 120.652C75.9089 120.652 76.6369 120.747 77.2523 120.938C77.8763 121.12 78.3573 121.389 78.6953 121.744C79.0333 122.091 79.2023 122.507 79.2023 122.992C79.2023 123.477 79.0333 123.898 78.6953 124.253C78.3573 124.608 77.8763 124.881 77.2523 125.072C76.6369 125.254 75.9089 125.345 75.0683 125.345C74.2276 125.345 73.4953 125.254 72.8713 125.072C72.2559 124.881 71.7793 124.608 71.4413 124.253C71.1033 123.898 70.9343 123.477 70.9343 122.992C70.9343 122.507 71.1033 122.091 71.4413 121.744C71.7793 121.389 72.2559 121.12 72.8713 120.938C73.4953 120.747 74.2276 120.652 75.0683 120.652ZM75.0683 121.523C74.4616 121.523 73.9286 121.584 73.4693 121.705C73.0186 121.818 72.6676 121.987 72.4163 122.212C72.1649 122.429 72.0393 122.689 72.0393 122.992C72.0393 123.295 72.1649 123.56 72.4163 123.785C72.6676 124.002 73.0186 124.171 73.4693 124.292C73.9286 124.405 74.4616 124.461 75.0683 124.461C75.6923 124.461 76.2296 124.405 76.6803 124.292C77.1309 124.171 77.4776 124.002 77.7203 123.785C77.9716 123.56 78.0973 123.295 78.0973 122.992C78.0973 122.689 77.9716 122.429 77.7203 122.212C77.4776 121.987 77.1309 121.818 76.6803 121.705C76.2296 121.584 75.6923 121.523 75.0683 121.523ZM85.4285 121.432H90.8235V129.024H85.4285V121.432ZM89.7575 122.29H86.4815V128.153H89.7575V122.29ZM92.9165 120.249H93.9955V132.014H92.9165V120.249ZM93.7485 124.942H95.9195V125.852H93.7485V124.942ZM102.224 120.457C103.524 120.457 104.538 120.635 105.266 120.99C105.994 121.337 106.358 121.835 106.358 122.485C106.358 123.144 105.994 123.651 105.266 124.006C104.538 124.353 103.524 124.526 102.224 124.526C100.932 124.526 99.9182 124.353 99.1815 124.006C98.4535 123.651 98.0895 123.144 98.0895 122.485C98.0895 121.835 98.4535 121.337 99.1815 120.99C99.9182 120.635 100.932 120.457 102.224 120.457ZM102.224 121.263C101.591 121.263 101.049 121.311 100.599 121.406C100.148 121.501 99.8012 121.64 99.5585 121.822C99.3245 122.004 99.2075 122.225 99.2075 122.485C99.2075 122.745 99.3245 122.97 99.5585 123.161C99.8012 123.343 100.148 123.482 100.599 123.577C101.049 123.664 101.591 123.707 102.224 123.707C102.865 123.707 103.411 123.664 103.862 123.577C104.312 123.482 104.655 123.343 104.889 123.161C105.131 122.97 105.253 122.745 105.253 122.485C105.253 122.225 105.131 122.004 104.889 121.822C104.655 121.64 104.312 121.501 103.862 121.406C103.411 121.311 102.865 121.263 102.224 121.263ZM96.9195 125.319H107.541V126.19H96.9195V125.319ZM98.2065 127.191H106.176V129.843H99.2855V131.26H98.2325V129.05H105.123V128.023H98.2065V127.191ZM98.2325 131.039H106.527V131.884H98.2325V131.039ZM113.65 124.825H115.86V125.709H113.65V124.825ZM117.836 120.249H118.876V132.014H117.836V120.249ZM115.496 120.496H116.523V131.416H115.496V120.496ZM111.518 121.237C112.029 121.237 112.471 121.402 112.844 121.731C113.225 122.06 113.52 122.533 113.728 123.148C113.936 123.763 114.04 124.487 114.04 125.319C114.04 126.16 113.936 126.888 113.728 127.503C113.52 128.118 113.225 128.595 112.844 128.933C112.471 129.262 112.029 129.427 111.518 129.427C111.024 129.427 110.586 129.262 110.205 128.933C109.832 128.595 109.542 128.118 109.334 127.503C109.126 126.888 109.022 126.16 109.022 125.319C109.022 124.487 109.126 123.763 109.334 123.148C109.542 122.533 109.832 122.06 110.205 121.731C110.586 121.402 111.024 121.237 111.518 121.237ZM111.518 122.238C111.214 122.238 110.95 122.364 110.725 122.615C110.499 122.866 110.326 123.222 110.205 123.681C110.083 124.14 110.023 124.686 110.023 125.319C110.023 125.952 110.083 126.502 110.205 126.97C110.326 127.429 110.499 127.785 110.725 128.036C110.95 128.287 111.214 128.413 111.518 128.413C111.83 128.413 112.098 128.287 112.324 128.036C112.558 127.785 112.735 127.429 112.857 126.97C112.978 126.502 113.039 125.952 113.039 125.319C113.039 124.686 112.978 124.14 112.857 123.681C112.735 123.222 112.558 122.866 112.324 122.615C112.098 122.364 111.83 122.238 111.518 122.238ZM124.595 121.978H134.15V122.862H124.595V121.978ZM124.075 129.752H134.735V130.636H124.075V129.752ZM128.846 127.88H129.912V130.09H128.846V127.88ZM129.379 123.642C130.167 123.642 130.848 123.733 131.42 123.915C132 124.088 132.447 124.34 132.759 124.669C133.071 124.998 133.227 125.401 133.227 125.878C133.227 126.346 133.071 126.749 132.759 127.087C132.447 127.425 132 127.685 131.42 127.867C130.848 128.04 130.167 128.127 129.379 128.127C128.59 128.127 127.905 128.04 127.325 127.867C126.753 127.685 126.311 127.425 125.999 127.087C125.687 126.749 125.531 126.346 125.531 125.878C125.531 125.401 125.687 124.998 125.999 124.669C126.311 124.34 126.753 124.088 127.325 123.915C127.905 123.733 128.59 123.642 129.379 123.642ZM129.379 124.5C128.807 124.5 128.313 124.556 127.897 124.669C127.489 124.773 127.173 124.929 126.948 125.137C126.731 125.336 126.623 125.583 126.623 125.878C126.623 126.164 126.731 126.411 126.948 126.619C127.173 126.827 127.489 126.987 127.897 127.1C128.313 127.204 128.807 127.256 129.379 127.256C129.951 127.256 130.44 127.204 130.848 127.1C131.255 126.987 131.571 126.827 131.797 126.619C132.022 126.411 132.135 126.164 132.135 125.878C132.135 125.583 132.022 125.336 131.797 125.137C131.571 124.929 131.255 124.773 130.848 124.669C130.44 124.556 129.951 124.5 129.379 124.5ZM128.846 120.444H129.912V122.511H128.846V120.444ZM144.601 120.249H145.68V132.014H144.601V120.249ZM141.156 121.523H142.222C142.222 122.372 142.118 123.191 141.91 123.98C141.71 124.769 141.394 125.518 140.961 126.229C140.527 126.931 139.964 127.585 139.271 128.192C138.577 128.799 137.737 129.34 136.749 129.817L136.177 128.946C137.312 128.4 138.248 127.763 138.985 127.035C139.721 126.307 140.267 125.497 140.623 124.604C140.978 123.703 141.156 122.732 141.156 121.692V121.523ZM136.723 121.523H141.611V122.394H136.723V121.523ZM156.547 120.262H157.626V126.931H156.547V120.262ZM150.034 127.607H157.626V131.858H150.034V127.607ZM156.573 128.478H151.087V130.974H156.573V128.478ZM151.048 120.717H151.945V121.861C151.945 122.589 151.806 123.274 151.529 123.915C151.251 124.548 150.861 125.098 150.359 125.566C149.865 126.034 149.284 126.394 148.617 126.645L148.084 125.787C148.526 125.631 148.929 125.419 149.293 125.15C149.657 124.881 149.969 124.574 150.229 124.227C150.497 123.88 150.701 123.508 150.84 123.109C150.978 122.702 151.048 122.286 151.048 121.861V120.717ZM151.243 120.717H152.14V121.861C152.14 122.277 152.209 122.676 152.348 123.057C152.495 123.438 152.699 123.794 152.959 124.123C153.227 124.444 153.539 124.73 153.895 124.981C154.259 125.232 154.657 125.432 155.091 125.579L154.558 126.411C154.072 126.246 153.626 126.017 153.219 125.722C152.811 125.427 152.46 125.081 152.166 124.682C151.871 124.283 151.641 123.846 151.477 123.369C151.321 122.892 151.243 122.39 151.243 121.861V120.717ZM171.236 120.249H172.315V126.255H171.236V120.249ZM171.847 122.901H174.044V123.798H171.847V122.901ZM163.67 121.029H169.078V125.826H163.67V121.029ZM168.025 121.887H164.723V124.955H168.025V121.887ZM164.411 130.818H164.983C165.217 130.818 165.49 130.809 165.802 130.792C166.114 130.766 166.443 130.727 166.79 130.675C167.137 130.614 167.479 130.528 167.817 130.415L167.986 131.273C167.613 131.394 167.245 131.485 166.881 131.546C166.526 131.607 166.188 131.646 165.867 131.663C165.546 131.689 165.252 131.702 164.983 131.702H164.411V130.818ZM164.411 127.321H165.464V131.052H164.411V127.321ZM167.57 127.451H173.459V128.257H167.57V127.451ZM170.521 128.686C171.162 128.686 171.682 128.838 172.081 129.141C172.488 129.436 172.692 129.834 172.692 130.337C172.692 130.848 172.488 131.251 172.081 131.546C171.682 131.841 171.162 131.988 170.521 131.988C169.88 131.988 169.355 131.841 168.948 131.546C168.541 131.251 168.337 130.848 168.337 130.337C168.337 129.834 168.541 129.436 168.948 129.141C169.355 128.838 169.88 128.686 170.521 128.686ZM170.521 129.453C170.166 129.453 169.871 129.535 169.637 129.7C169.412 129.856 169.299 130.068 169.299 130.337C169.299 130.606 169.412 130.822 169.637 130.987C169.871 131.152 170.166 131.234 170.521 131.234C170.876 131.234 171.167 131.152 171.392 130.987C171.617 130.822 171.73 130.606 171.73 130.337C171.73 130.068 171.617 129.856 171.392 129.7C171.167 129.535 170.876 129.453 170.521 129.453ZM170.001 126.411H171.054V128.023H170.001V126.411ZM175.148 126.437H185.769V127.308H175.148V126.437ZM176.513 130.87H184.586V131.754H176.513V130.87ZM176.513 128.348H177.592V131.13H176.513V128.348ZM180.452 120.652C181.293 120.652 182.021 120.747 182.636 120.938C183.26 121.12 183.741 121.389 184.079 121.744C184.417 122.091 184.586 122.507 184.586 122.992C184.586 123.477 184.417 123.898 184.079 124.253C183.741 124.608 183.26 124.881 182.636 125.072C182.021 125.254 181.293 125.345 180.452 125.345C179.611 125.345 178.879 125.254 178.255 125.072C177.64 124.881 177.163 124.608 176.825 124.253C176.487 123.898 176.318 123.477 176.318 122.992C176.318 122.507 176.487 122.091 176.825 121.744C177.163 121.389 177.64 121.12 178.255 120.938C178.879 120.747 179.611 120.652 180.452 120.652ZM180.452 121.523C179.845 121.523 179.312 121.584 178.853 121.705C178.402 121.818 178.051 121.987 177.8 122.212C177.549 122.429 177.423 122.689 177.423 122.992C177.423 123.295 177.549 123.56 177.8 123.785C178.051 124.002 178.402 124.171 178.853 124.292C179.312 124.405 179.845 124.461 180.452 124.461C181.076 124.461 181.613 124.405 182.064 124.292C182.515 124.171 182.861 124.002 183.104 123.785C183.355 123.56 183.481 123.295 183.481 122.992C183.481 122.689 183.355 122.429 183.104 122.212C182.861 121.987 182.515 121.818 182.064 121.705C181.613 121.584 181.076 121.523 180.452 121.523ZM191.475 121.432H199.041V122.316H191.475V121.432ZM190.344 129.466H200.965V130.363H190.344V129.466ZM194.478 125.267H195.544V129.921H194.478V125.267ZM198.625 121.432H199.704V122.589C199.704 123.074 199.696 123.586 199.678 124.123C199.67 124.66 199.635 125.25 199.574 125.891C199.522 126.532 199.423 127.247 199.275 128.036L198.183 127.906C198.409 126.779 198.539 125.791 198.573 124.942C198.608 124.084 198.625 123.3 198.625 122.589V121.432ZM211.104 122.004H213.132V122.901H211.104V122.004ZM211.104 124.513H213.132V125.41H211.104V124.513ZM205.579 120.951C206.177 120.951 206.706 121.068 207.165 121.302C207.625 121.536 207.984 121.861 208.244 122.277C208.513 122.693 208.647 123.174 208.647 123.72C208.647 124.275 208.513 124.76 208.244 125.176C207.984 125.583 207.625 125.904 207.165 126.138C206.706 126.372 206.177 126.489 205.579 126.489C204.999 126.489 204.474 126.372 204.006 126.138C203.547 125.904 203.183 125.583 202.914 125.176C202.646 124.76 202.511 124.275 202.511 123.72C202.511 123.174 202.646 122.693 202.914 122.277C203.183 121.861 203.547 121.536 204.006 121.302C204.474 121.068 204.999 120.951 205.579 120.951ZM205.579 121.861C205.198 121.861 204.856 121.943 204.552 122.108C204.249 122.264 204.006 122.481 203.824 122.758C203.651 123.035 203.564 123.356 203.564 123.72C203.564 124.093 203.651 124.418 203.824 124.695C204.006 124.972 204.249 125.189 204.552 125.345C204.856 125.501 205.198 125.579 205.579 125.579C205.969 125.579 206.316 125.501 206.619 125.345C206.923 125.189 207.161 124.972 207.334 124.695C207.516 124.418 207.607 124.093 207.607 123.72C207.607 123.356 207.516 123.035 207.334 122.758C207.161 122.481 206.923 122.264 206.619 122.108C206.316 121.943 205.969 121.861 205.579 121.861ZM210.35 120.249H211.429V127.217H210.35V120.249ZM207.685 127.581C208.474 127.581 209.159 127.672 209.739 127.854C210.32 128.027 210.766 128.279 211.078 128.608C211.39 128.929 211.546 129.323 211.546 129.791C211.546 130.25 211.39 130.645 211.078 130.974C210.766 131.295 210.32 131.542 209.739 131.715C209.159 131.897 208.474 131.988 207.685 131.988C206.888 131.988 206.199 131.897 205.618 131.715C205.038 131.542 204.591 131.295 204.279 130.974C203.967 130.645 203.811 130.25 203.811 129.791C203.811 129.323 203.967 128.929 204.279 128.608C204.591 128.279 205.038 128.027 205.618 127.854C206.199 127.672 206.888 127.581 207.685 127.581ZM207.685 128.452C207.105 128.452 206.602 128.504 206.177 128.608C205.761 128.712 205.441 128.864 205.215 129.063C204.99 129.262 204.877 129.505 204.877 129.791C204.877 130.068 204.99 130.307 205.215 130.506C205.441 130.705 205.761 130.857 206.177 130.961C206.602 131.065 207.105 131.117 207.685 131.117C208.266 131.117 208.764 131.065 209.18 130.961C209.596 130.857 209.917 130.705 210.142 130.506C210.368 130.307 210.48 130.068 210.48 129.791C210.48 129.505 210.368 129.262 210.142 129.063C209.917 128.864 209.596 128.712 209.18 128.608C208.764 128.504 208.266 128.452 207.685 128.452ZM222.803 120.249H223.882V132.027H222.803V120.249ZM217.681 121.159C218.262 121.159 218.773 121.328 219.215 121.666C219.666 121.995 220.017 122.468 220.268 123.083C220.528 123.698 220.658 124.422 220.658 125.254C220.658 126.086 220.528 126.81 220.268 127.425C220.017 128.04 219.666 128.517 219.215 128.855C218.773 129.193 218.262 129.362 217.681 129.362C217.101 129.362 216.585 129.193 216.134 128.855C215.684 128.517 215.328 128.04 215.068 127.425C214.817 126.81 214.691 126.086 214.691 125.254C214.691 124.422 214.817 123.698 215.068 123.083C215.328 122.468 215.684 121.995 216.134 121.666C216.585 121.328 217.101 121.159 217.681 121.159ZM217.681 122.121C217.291 122.121 216.949 122.251 216.654 122.511C216.368 122.762 216.143 123.126 215.978 123.603C215.814 124.071 215.731 124.621 215.731 125.254C215.731 125.887 215.814 126.441 215.978 126.918C216.143 127.386 216.368 127.75 216.654 128.01C216.949 128.27 217.291 128.4 217.681 128.4C218.063 128.4 218.396 128.27 218.682 128.01C218.977 127.75 219.207 127.386 219.371 126.918C219.536 126.441 219.618 125.887 219.618 125.254C219.618 124.621 219.536 124.071 219.371 123.603C219.207 123.126 218.977 122.762 218.682 122.511C218.396 122.251 218.063 122.121 217.681 122.121ZM234.177 120.249H235.256V132.001H234.177V120.249ZM234.97 125.02H237.128V125.917H234.97V125.02ZM231.174 121.51H232.227C232.227 122.628 232.045 123.698 231.681 124.721C231.317 125.735 230.745 126.675 229.965 127.542C229.185 128.4 228.158 129.145 226.884 129.778L226.286 128.946C227.378 128.4 228.284 127.763 229.003 127.035C229.731 126.298 230.273 125.484 230.628 124.591C230.992 123.69 231.174 122.719 231.174 121.679V121.51ZM226.832 121.51H231.72V122.407H226.832V121.51ZM244.291 120.652H245.175V121.575C245.175 122.312 245.036 122.992 244.759 123.616C244.49 124.24 244.109 124.777 243.615 125.228C243.129 125.679 242.553 126.025 241.886 126.268L241.353 125.397C241.942 125.198 242.458 124.912 242.9 124.539C243.342 124.158 243.684 123.716 243.927 123.213C244.169 122.702 244.291 122.156 244.291 121.575V120.652ZM244.486 120.652H245.357V121.562C245.357 122.082 245.474 122.576 245.708 123.044C245.95 123.512 246.288 123.919 246.722 124.266C247.155 124.613 247.658 124.881 248.23 125.072L247.671 125.904C247.029 125.687 246.47 125.371 245.994 124.955C245.517 124.53 245.144 124.028 244.876 123.447C244.616 122.866 244.486 122.238 244.486 121.562V120.652ZM249.465 120.249H250.544V126.385H249.465V120.249ZM250.063 122.81H252.273V123.707H250.063V122.81ZM243.069 126.918H250.544V129.739H244.161V131.507H243.108V128.933H249.478V127.776H243.069V126.918ZM243.108 131.013H250.96V131.884H243.108V131.013ZM254.508 121.432H262.074V122.316H254.508V121.432ZM253.377 129.466H263.998V130.363H253.377V129.466ZM257.511 125.267H258.577V129.921H257.511V125.267ZM261.658 121.432H262.737V122.589C262.737 123.074 262.728 123.586 262.711 124.123C262.702 124.66 262.667 125.25 262.607 125.891C262.555 126.532 262.455 127.247 262.308 128.036L261.216 127.906C261.441 126.779 261.571 125.791 261.606 124.942C261.64 124.084 261.658 123.3 261.658 122.589V121.432ZM271.498 127.49H272.343V128.114C272.343 128.625 272.239 129.128 272.031 129.622C271.823 130.116 271.52 130.558 271.121 130.948C270.731 131.338 270.25 131.637 269.678 131.845L269.145 131.052C269.639 130.87 270.059 130.619 270.406 130.298C270.761 129.977 271.03 129.631 271.212 129.258C271.403 128.877 271.498 128.495 271.498 128.114V127.49ZM271.745 127.49H272.538V128.114C272.538 128.513 272.616 128.907 272.772 129.297C272.928 129.687 273.162 130.042 273.474 130.363C273.795 130.684 274.185 130.939 274.644 131.13L274.202 131.949C273.63 131.724 273.162 131.412 272.798 131.013C272.443 130.614 272.178 130.164 272.005 129.661C271.832 129.15 271.745 128.634 271.745 128.114V127.49ZM275.853 127.49H276.646V128.114C276.646 128.573 276.555 129.054 276.373 129.557C276.2 130.06 275.931 130.528 275.567 130.961C275.212 131.386 274.757 131.715 274.202 131.949L273.734 131.13C274.202 130.913 274.592 130.636 274.904 130.298C275.216 129.951 275.45 129.587 275.606 129.206C275.771 128.816 275.853 128.452 275.853 128.114V127.49ZM276.061 127.49H276.906V128.114C276.906 128.521 276.997 128.916 277.179 129.297C277.37 129.678 277.638 130.025 277.985 130.337C278.34 130.64 278.765 130.879 279.259 131.052L278.726 131.845C278.154 131.637 277.669 131.347 277.27 130.974C276.871 130.593 276.568 130.159 276.36 129.674C276.161 129.18 276.061 128.66 276.061 128.114V127.49ZM277.127 120.262H278.206V126.97H277.127V120.262ZM271.901 120.938C272.499 120.938 273.028 121.055 273.487 121.289C273.946 121.523 274.306 121.848 274.566 122.264C274.835 122.671 274.969 123.148 274.969 123.694C274.969 124.231 274.835 124.704 274.566 125.111C274.306 125.518 273.946 125.839 273.487 126.073C273.028 126.307 272.499 126.424 271.901 126.424C271.312 126.424 270.783 126.307 270.315 126.073C269.856 125.839 269.492 125.518 269.223 125.111C268.963 124.704 268.833 124.231 268.833 123.694C268.833 123.148 268.963 122.671 269.223 122.264C269.492 121.848 269.856 121.523 270.315 121.289C270.783 121.055 271.312 120.938 271.901 120.938ZM271.901 121.848C271.52 121.848 271.177 121.926 270.874 122.082C270.571 122.238 270.328 122.455 270.146 122.732C269.973 123.001 269.886 123.321 269.886 123.694C269.886 124.058 269.973 124.379 270.146 124.656C270.328 124.925 270.571 125.137 270.874 125.293C271.177 125.449 271.52 125.527 271.901 125.527C272.291 125.527 272.638 125.449 272.941 125.293C273.244 125.137 273.483 124.925 273.656 124.656C273.829 124.379 273.916 124.058 273.916 123.694C273.916 123.321 273.829 123.001 273.656 122.732C273.483 122.455 273.244 122.238 272.941 122.082C272.638 121.926 272.291 121.848 271.901 121.848ZM283.535 127.412H284.38V128.101C284.38 128.612 284.276 129.119 284.068 129.622C283.86 130.116 283.557 130.558 283.158 130.948C282.768 131.338 282.287 131.641 281.715 131.858L281.182 131.052C281.676 130.87 282.096 130.623 282.443 130.311C282.798 129.99 283.067 129.639 283.249 129.258C283.44 128.868 283.535 128.482 283.535 128.101V127.412ZM283.769 127.412H284.575V128.101C284.575 128.5 284.653 128.898 284.809 129.297C284.965 129.687 285.199 130.047 285.511 130.376C285.823 130.697 286.217 130.957 286.694 131.156L286.226 131.962C285.663 131.737 285.199 131.42 284.835 131.013C284.471 130.606 284.202 130.151 284.029 129.648C283.856 129.137 283.769 128.621 283.769 128.101V127.412ZM287.877 127.412H288.683V128.101C288.683 128.56 288.596 129.046 288.423 129.557C288.25 130.06 287.981 130.528 287.617 130.961C287.253 131.394 286.789 131.728 286.226 131.962L285.771 131.156C286.239 130.931 286.629 130.645 286.941 130.298C287.253 129.951 287.487 129.583 287.643 129.193C287.799 128.803 287.877 128.439 287.877 128.101V127.412ZM288.098 127.412H288.93V128.101C288.93 128.508 289.021 128.907 289.203 129.297C289.394 129.687 289.662 130.034 290.009 130.337C290.364 130.64 290.793 130.879 291.296 131.052L290.75 131.858C290.178 131.65 289.693 131.355 289.294 130.974C288.904 130.593 288.605 130.155 288.397 129.661C288.198 129.167 288.098 128.647 288.098 128.101V127.412ZM286.317 123.2H289.424V124.084H286.317V123.2ZM283.743 120.912C284.315 120.912 284.826 121.029 285.277 121.263C285.736 121.497 286.096 121.822 286.356 122.238C286.616 122.654 286.746 123.131 286.746 123.668C286.746 124.214 286.616 124.695 286.356 125.111C286.096 125.518 285.736 125.839 285.277 126.073C284.826 126.307 284.315 126.424 283.743 126.424C283.162 126.424 282.642 126.307 282.183 126.073C281.732 125.839 281.377 125.518 281.117 125.111C280.857 124.695 280.727 124.214 280.727 123.668C280.727 123.131 280.857 122.654 281.117 122.238C281.377 121.822 281.732 121.497 282.183 121.263C282.642 121.029 283.162 120.912 283.743 120.912ZM283.743 121.822C283.362 121.822 283.019 121.9 282.716 122.056C282.421 122.212 282.187 122.433 282.014 122.719C281.841 122.996 281.754 123.313 281.754 123.668C281.754 124.032 281.841 124.353 282.014 124.63C282.187 124.907 282.421 125.128 282.716 125.293C283.019 125.449 283.362 125.527 283.743 125.527C284.116 125.527 284.449 125.449 284.744 125.293C285.047 125.128 285.286 124.907 285.459 124.63C285.632 124.353 285.719 124.032 285.719 123.668C285.719 123.313 285.632 122.996 285.459 122.719C285.286 122.433 285.047 122.212 284.744 122.056C284.449 121.9 284.116 121.822 283.743 121.822ZM289.125 120.249H290.204V126.957H289.125V120.249ZM295.624 121.159C296.196 121.159 296.703 121.328 297.145 121.666C297.587 121.995 297.929 122.468 298.172 123.083C298.423 123.698 298.549 124.422 298.549 125.254C298.549 126.086 298.423 126.81 298.172 127.425C297.929 128.04 297.587 128.517 297.145 128.855C296.703 129.193 296.196 129.362 295.624 129.362C295.06 129.362 294.553 129.193 294.103 128.855C293.661 128.517 293.314 128.04 293.063 127.425C292.82 126.81 292.699 126.086 292.699 125.254C292.699 124.422 292.82 123.698 293.063 123.083C293.314 122.468 293.661 121.995 294.103 121.666C294.553 121.328 295.06 121.159 295.624 121.159ZM295.624 122.121C295.251 122.121 294.922 122.251 294.636 122.511C294.35 122.762 294.124 123.126 293.96 123.603C293.804 124.071 293.726 124.621 293.726 125.254C293.726 125.887 293.804 126.441 293.96 126.918C294.124 127.386 294.35 127.75 294.636 128.01C294.922 128.27 295.251 128.4 295.624 128.4C296.005 128.4 296.339 128.27 296.625 128.01C296.911 127.75 297.132 127.386 297.288 126.918C297.452 126.441 297.535 125.887 297.535 125.254C297.535 124.621 297.452 124.071 297.288 123.603C297.132 123.126 296.911 122.762 296.625 122.511C296.339 122.251 296.005 122.121 295.624 122.121ZM301.097 120.249H302.163V132.027H301.097V120.249ZM298.198 124.734H301.578V125.605H298.198V124.734ZM304.65 130.238C304.65 130.001 304.731 129.802 304.892 129.642C305.052 129.477 305.27 129.394 305.545 129.394C305.825 129.394 306.043 129.477 306.199 129.642C306.36 129.802 306.44 130.001 306.44 130.238C306.44 130.475 306.36 130.674 306.199 130.835C306.043 130.996 305.825 131.076 305.545 131.076C305.27 131.076 305.052 130.996 304.892 130.835C304.731 130.674 304.65 130.475 304.65 130.238ZM31.781 143.432H39.347V144.316H31.781V143.432ZM30.65 151.466H41.271V152.363H30.65V151.466ZM34.784 147.267H35.85V151.921H34.784V147.267ZM38.931 143.432H40.01V144.589C40.01 145.074 40.0013 145.586 39.984 146.123C39.9753 146.66 39.9407 147.25 39.88 147.891C39.828 148.532 39.7283 149.247 39.581 150.036L38.489 149.906C38.7143 148.779 38.8443 147.791 38.879 146.942C38.9137 146.084 38.931 145.3 38.931 144.589V143.432ZM51.41 144.004H53.438V144.901H51.41V144.004ZM51.41 146.513H53.438V147.41H51.41V146.513ZM45.885 142.951C46.483 142.951 47.0117 143.068 47.471 143.302C47.9303 143.536 48.29 143.861 48.55 144.277C48.8187 144.693 48.953 145.174 48.953 145.72C48.953 146.275 48.8187 146.76 48.55 147.176C48.29 147.583 47.9303 147.904 47.471 148.138C47.0117 148.372 46.483 148.489 45.885 148.489C45.3043 148.489 44.78 148.372 44.312 148.138C43.8527 147.904 43.4887 147.583 43.22 147.176C42.9513 146.76 42.817 146.275 42.817 145.72C42.817 145.174 42.9513 144.693 43.22 144.277C43.4887 143.861 43.8527 143.536 44.312 143.302C44.78 143.068 45.3043 142.951 45.885 142.951ZM45.885 143.861C45.5037 143.861 45.1613 143.943 44.858 144.108C44.5547 144.264 44.312 144.481 44.13 144.758C43.9567 145.035 43.87 145.356 43.87 145.72C43.87 146.093 43.9567 146.418 44.13 146.695C44.312 146.972 44.5547 147.189 44.858 147.345C45.1613 147.501 45.5037 147.579 45.885 147.579C46.275 147.579 46.6217 147.501 46.925 147.345C47.2283 147.189 47.4667 146.972 47.64 146.695C47.822 146.418 47.913 146.093 47.913 145.72C47.913 145.356 47.822 145.035 47.64 144.758C47.4667 144.481 47.2283 144.264 46.925 144.108C46.6217 143.943 46.275 143.861 45.885 143.861ZM50.656 142.249H51.735V149.217H50.656V142.249ZM47.991 149.581C48.7797 149.581 49.4643 149.672 50.045 149.854C50.6257 150.027 51.072 150.279 51.384 150.608C51.696 150.929 51.852 151.323 51.852 151.791C51.852 152.25 51.696 152.645 51.384 152.974C51.072 153.295 50.6257 153.542 50.045 153.715C49.4643 153.897 48.7797 153.988 47.991 153.988C47.1937 153.988 46.5047 153.897 45.924 153.715C45.3433 153.542 44.897 153.295 44.585 152.974C44.273 152.645 44.117 152.25 44.117 151.791C44.117 151.323 44.273 150.929 44.585 150.608C44.897 150.279 45.3433 150.027 45.924 149.854C46.5047 149.672 47.1937 149.581 47.991 149.581ZM47.991 150.452C47.4103 150.452 46.9077 150.504 46.483 150.608C46.067 150.712 45.7463 150.864 45.521 151.063C45.2957 151.262 45.183 151.505 45.183 151.791C45.183 152.068 45.2957 152.307 45.521 152.506C45.7463 152.705 46.067 152.857 46.483 152.961C46.9077 153.065 47.4103 153.117 47.991 153.117C48.5717 153.117 49.07 153.065 49.486 152.961C49.902 152.857 50.2227 152.705 50.448 152.506C50.6733 152.307 50.786 152.068 50.786 151.791C50.786 151.505 50.6733 151.262 50.448 151.063C50.2227 150.864 49.902 150.712 49.486 150.608C49.07 150.504 48.5717 150.452 47.991 150.452ZM63.109 142.249H64.188V154.027H63.109V142.249ZM57.987 143.159C58.5676 143.159 59.079 143.328 59.521 143.666C59.9716 143.995 60.3226 144.468 60.574 145.083C60.834 145.698 60.964 146.422 60.964 147.254C60.964 148.086 60.834 148.81 60.574 149.425C60.3226 150.04 59.9716 150.517 59.521 150.855C59.079 151.193 58.5676 151.362 57.987 151.362C57.4063 151.362 56.8906 151.193 56.44 150.855C55.9893 150.517 55.634 150.04 55.374 149.425C55.1226 148.81 54.997 148.086 54.997 147.254C54.997 146.422 55.1226 145.698 55.374 145.083C55.634 144.468 55.9893 143.995 56.44 143.666C56.8906 143.328 57.4063 143.159 57.987 143.159ZM57.987 144.121C57.597 144.121 57.2546 144.251 56.96 144.511C56.674 144.762 56.4486 145.126 56.284 145.603C56.1193 146.071 56.037 146.621 56.037 147.254C56.037 147.887 56.1193 148.441 56.284 148.918C56.4486 149.386 56.674 149.75 56.96 150.01C57.2546 150.27 57.597 150.4 57.987 150.4C58.3683 150.4 58.702 150.27 58.988 150.01C59.2826 149.75 59.5123 149.386 59.677 148.918C59.8416 148.441 59.924 147.887 59.924 147.254C59.924 146.621 59.8416 146.071 59.677 145.603C59.5123 145.126 59.2826 144.762 58.988 144.511C58.702 144.251 58.3683 144.121 57.987 144.121ZM67.957 145.785H75.952V146.656H67.957V145.785ZM66.514 148.229H77.174V149.113H66.514V148.229ZM67.957 142.678H69.023V146.227H67.957V142.678ZM67.879 152.844H76.017V153.728H67.879V152.844ZM67.879 150.296H68.958V153.078H67.879V150.296ZM83.4652 149.672H90.8492V153.858H83.4652V149.672ZM89.7832 150.543H84.5182V152.974H89.7832V150.543ZM89.7702 142.249H90.8492V149.022H89.7702V142.249ZM90.5502 145.044H92.5782V145.954H90.5502V145.044ZM82.2042 142.86H83.2702V144.628H86.5852V142.86H87.6512V148.294H82.2042V142.86ZM83.2702 145.486V147.41H86.5852V145.486H83.2702ZM101.651 142.249H102.717V154.014H101.651V142.249ZM102.47 147.085H104.641V147.995H102.47V147.085ZM93.6172 144.134H100.546V145.018H93.6172V144.134ZM97.1402 145.98C97.6949 145.98 98.1846 146.097 98.6092 146.331C99.0426 146.565 99.3806 146.886 99.6232 147.293C99.8746 147.692 100 148.155 100 148.684C100 149.213 99.8746 149.681 99.6232 150.088C99.3806 150.495 99.0426 150.816 98.6092 151.05C98.1846 151.275 97.6949 151.388 97.1402 151.388C96.5856 151.388 96.0916 151.275 95.6582 151.05C95.2336 150.816 94.8956 150.495 94.6442 150.088C94.3929 149.681 94.2672 149.213 94.2672 148.684C94.2672 148.155 94.3929 147.692 94.6442 147.293C94.8956 146.886 95.2336 146.565 95.6582 146.331C96.0916 146.097 96.5856 145.98 97.1402 145.98ZM97.1402 146.877C96.7849 146.877 96.4686 146.955 96.1912 147.111C95.9139 147.267 95.6929 147.479 95.5282 147.748C95.3722 148.017 95.2942 148.329 95.2942 148.684C95.2942 149.039 95.3722 149.356 95.5282 149.633C95.6929 149.902 95.9139 150.114 96.1912 150.27C96.4686 150.417 96.7849 150.491 97.1402 150.491C97.4869 150.491 97.7989 150.417 98.0762 150.27C98.3536 150.114 98.5702 149.902 98.7262 149.633C98.8909 149.356 98.9732 149.039 98.9732 148.684C98.9732 148.329 98.8909 148.017 98.7262 147.748C98.5702 147.479 98.3536 147.267 98.0762 147.111C97.7989 146.955 97.4869 146.877 97.1402 146.877ZM96.5812 142.392H97.6602V144.524H96.5812V142.392ZM107.071 145.044H115.04V145.928H107.071V145.044ZM105.628 147.072H116.288V147.956H105.628V147.072ZM107.071 142.431H108.124V145.46H107.071V142.431ZM106.954 148.996H114.936V151.765H108.059V153.273H106.98V150.959H113.87V149.841H106.954V148.996ZM106.98 153H115.339V153.858H106.98V153ZM121.409 143.107C122.025 143.107 122.566 143.224 123.034 143.458C123.511 143.683 123.884 144.004 124.152 144.42C124.421 144.836 124.555 145.321 124.555 145.876C124.555 146.422 124.421 146.907 124.152 147.332C123.884 147.748 123.511 148.073 123.034 148.307C122.566 148.532 122.025 148.645 121.409 148.645C120.803 148.645 120.261 148.532 119.784 148.307C119.308 148.073 118.931 147.748 118.653 147.332C118.385 146.907 118.25 146.422 118.25 145.876C118.25 145.321 118.385 144.836 118.653 144.42C118.931 144.004 119.308 143.683 119.784 143.458C120.261 143.224 120.803 143.107 121.409 143.107ZM121.409 144.043C121.011 144.043 120.651 144.121 120.33 144.277C120.018 144.424 119.771 144.637 119.589 144.914C119.407 145.191 119.316 145.512 119.316 145.876C119.316 146.24 119.407 146.561 119.589 146.838C119.771 147.115 120.018 147.332 120.33 147.488C120.651 147.635 121.011 147.709 121.409 147.709C121.817 147.709 122.176 147.635 122.488 147.488C122.8 147.332 123.047 147.115 123.229 146.838C123.411 146.561 123.502 146.24 123.502 145.876C123.502 145.512 123.411 145.191 123.229 144.914C123.047 144.637 122.8 144.424 122.488 144.277C122.176 144.121 121.817 144.043 121.409 144.043ZM126.102 142.249H127.181V154.027H126.102V142.249ZM117.808 151.453L117.665 150.543C118.385 150.543 119.173 150.539 120.031 150.53C120.889 150.513 121.773 150.478 122.683 150.426C123.602 150.365 124.486 150.27 125.335 150.14L125.426 150.933C124.542 151.098 123.645 151.219 122.735 151.297C121.834 151.366 120.963 151.41 120.122 151.427C119.282 151.444 118.51 151.453 117.808 151.453ZM140.843 142.262H141.922V150.894H140.843V142.262ZM141.584 145.811H143.651V146.708H141.584V145.811ZM134.603 152.87H142.442V153.754H134.603V152.87ZM134.603 150.062H135.669V153.065H134.603V150.062ZM133.277 143.107H134.343V145.07H137.658V143.107H138.724V148.918H133.277V143.107ZM134.343 145.915V148.047H137.658V145.915H134.343ZM146.51 143.575H147.303V144.615C147.303 144.979 147.264 145.365 147.186 145.772C147.108 146.171 146.987 146.561 146.822 146.942C146.666 147.323 146.454 147.674 146.185 147.995C145.925 148.307 145.605 148.567 145.223 148.775L144.638 147.995C144.968 147.813 145.249 147.592 145.483 147.332C145.726 147.063 145.921 146.773 146.068 146.461C146.216 146.149 146.324 145.837 146.393 145.525C146.471 145.204 146.51 144.901 146.51 144.615V143.575ZM146.757 143.575H147.524V144.615C147.524 144.858 147.546 145.135 147.589 145.447C147.641 145.759 147.724 146.08 147.836 146.409C147.958 146.73 148.118 147.037 148.317 147.332C148.525 147.618 148.785 147.869 149.097 148.086L148.59 148.892C148.218 148.658 147.91 148.368 147.667 148.021C147.433 147.666 147.247 147.289 147.108 146.89C146.978 146.491 146.887 146.093 146.835 145.694C146.783 145.295 146.757 144.936 146.757 144.615V143.575ZM149.669 143.575H150.436V144.615C150.436 144.962 150.41 145.334 150.358 145.733C150.306 146.132 150.211 146.53 150.072 146.929C149.942 147.328 149.756 147.7 149.513 148.047C149.279 148.385 148.972 148.667 148.59 148.892L148.096 148.086C148.408 147.878 148.668 147.631 148.876 147.345C149.084 147.059 149.245 146.756 149.357 146.435C149.47 146.114 149.548 145.798 149.591 145.486C149.643 145.165 149.669 144.875 149.669 144.615V143.575ZM149.903 143.575H150.696V144.615C150.696 145.005 150.757 145.417 150.878 145.85C151.008 146.275 151.212 146.682 151.489 147.072C151.767 147.453 152.126 147.761 152.568 147.995L151.983 148.775C151.481 148.506 151.073 148.142 150.761 147.683C150.458 147.215 150.237 146.712 150.098 146.175C149.968 145.638 149.903 145.118 149.903 144.615V143.575ZM153.049 142.249H154.115V149.321H153.049V142.249ZM153.569 145.317H155.597V146.227H153.569V145.317ZM146.25 149.854H154.115V154.014H153.049V150.738H146.25V149.854ZM145.041 143.133H148.356V144.017H145.041V143.133ZM148.85 143.133H152.113V144.017H148.85V143.133ZM165.255 142.249H166.334V154.027H165.255V142.249ZM160.133 143.159C160.714 143.159 161.225 143.328 161.667 143.666C162.118 143.995 162.469 144.468 162.72 145.083C162.98 145.698 163.11 146.422 163.11 147.254C163.11 148.086 162.98 148.81 162.72 149.425C162.469 150.04 162.118 150.517 161.667 150.855C161.225 151.193 160.714 151.362 160.133 151.362C159.553 151.362 159.037 151.193 158.586 150.855C158.136 150.517 157.78 150.04 157.52 149.425C157.269 148.81 157.143 148.086 157.143 147.254C157.143 146.422 157.269 145.698 157.52 145.083C157.78 144.468 158.136 143.995 158.586 143.666C159.037 143.328 159.553 143.159 160.133 143.159ZM160.133 144.121C159.743 144.121 159.401 144.251 159.106 144.511C158.82 144.762 158.595 145.126 158.43 145.603C158.266 146.071 158.183 146.621 158.183 147.254C158.183 147.887 158.266 148.441 158.43 148.918C158.595 149.386 158.82 149.75 159.106 150.01C159.401 150.27 159.743 150.4 160.133 150.4C160.515 150.4 160.848 150.27 161.134 150.01C161.429 149.75 161.659 149.386 161.823 148.918C161.988 148.441 162.07 147.887 162.07 147.254C162.07 146.621 161.988 146.071 161.823 145.603C161.659 145.126 161.429 144.762 161.134 144.511C160.848 144.251 160.515 144.121 160.133 144.121ZM170.103 145.785H178.098V146.656H170.103V145.785ZM168.66 148.229H179.32V149.113H168.66V148.229ZM170.103 142.678H171.169V146.227H170.103V142.678ZM170.025 152.844H178.163V153.728H170.025V152.844ZM170.025 150.296H171.104V153.078H170.025V150.296ZM189.421 143.926H192.723V144.758H189.421V143.926ZM189.421 146.058H192.723V146.903H189.421V146.058ZM192.463 142.249H193.529V148.385H192.463V142.249ZM185.963 148.957H193.529V151.752H187.055V153.559H185.989V150.933H192.463V149.815H185.963V148.957ZM185.989 152.987H193.971V153.858H185.989V152.987ZM184.442 142.795H185.521V144.472H188.693V142.795H189.759V147.917H184.442V142.795ZM185.521 145.317V147.046H188.693V145.317H185.521ZM201.133 142.457C202.433 142.457 203.447 142.635 204.175 142.99C204.903 143.337 205.267 143.835 205.267 144.485C205.267 145.144 204.903 145.651 204.175 146.006C203.447 146.353 202.433 146.526 201.133 146.526C199.841 146.526 198.827 146.353 198.091 146.006C197.363 145.651 196.999 145.144 196.999 144.485C196.999 143.835 197.363 143.337 198.091 142.99C198.827 142.635 199.841 142.457 201.133 142.457ZM201.133 143.263C200.5 143.263 199.958 143.311 199.508 143.406C199.057 143.501 198.71 143.64 198.468 143.822C198.234 144.004 198.117 144.225 198.117 144.485C198.117 144.745 198.234 144.97 198.468 145.161C198.71 145.343 199.057 145.482 199.508 145.577C199.958 145.664 200.5 145.707 201.133 145.707C201.774 145.707 202.32 145.664 202.771 145.577C203.221 145.482 203.564 145.343 203.798 145.161C204.04 144.97 204.162 144.745 204.162 144.485C204.162 144.225 204.04 144.004 203.798 143.822C203.564 143.64 203.221 143.501 202.771 143.406C202.32 143.311 201.774 143.263 201.133 143.263ZM195.829 147.319H206.45V148.19H195.829V147.319ZM197.116 149.191H205.085V151.843H198.195V153.26H197.142V151.05H204.032V150.023H197.116V149.191ZM197.142 153.039H205.436V153.884H197.142V153.039ZM211.025 151.622H221.685V152.519H211.025V151.622ZM215.796 148.801H216.862V151.882H215.796V148.801ZM212.273 143.081H213.352V145.174H219.332V143.081H220.398V149.1H212.273V143.081ZM213.352 146.058V148.216H219.332V146.058H213.352ZM224.115 143.432H231.681V144.316H224.115V143.432ZM222.984 151.466H233.605V152.363H222.984V151.466ZM227.118 147.267H228.184V151.921H227.118V147.267ZM231.265 143.432H232.344V144.589C232.344 145.074 232.335 145.586 232.318 146.123C232.309 146.66 232.275 147.25 232.214 147.891C232.162 148.532 232.062 149.247 231.915 150.036L230.823 149.906C231.048 148.779 231.178 147.791 231.213 146.942C231.248 146.084 231.265 145.3 231.265 144.589V143.432ZM238.648 143.432H244.043V151.024H238.648V143.432ZM242.977 144.29H239.701V150.153H242.977V144.29ZM246.136 142.249H247.215V154.014H246.136V142.249ZM246.968 146.942H249.139V147.852H246.968V146.942ZM255.443 142.509C256.293 142.509 257.025 142.6 257.64 142.782C258.264 142.955 258.741 143.207 259.07 143.536C259.408 143.865 259.577 144.268 259.577 144.745C259.577 145.204 259.408 145.603 259.07 145.941C258.741 146.27 258.264 146.522 257.64 146.695C257.025 146.868 256.293 146.955 255.443 146.955C254.603 146.955 253.87 146.868 253.246 146.695C252.631 146.522 252.154 146.27 251.816 145.941C251.478 145.603 251.309 145.204 251.309 144.745C251.309 144.268 251.478 143.865 251.816 143.536C252.154 143.207 252.631 142.955 253.246 142.782C253.87 142.6 254.603 142.509 255.443 142.509ZM255.443 143.367C254.828 143.367 254.291 143.423 253.831 143.536C253.381 143.64 253.03 143.796 252.778 144.004C252.536 144.203 252.414 144.45 252.414 144.745C252.414 145.022 252.536 145.265 252.778 145.473C253.03 145.672 253.381 145.828 253.831 145.941C254.291 146.045 254.828 146.097 255.443 146.097C256.067 146.097 256.605 146.045 257.055 145.941C257.515 145.828 257.866 145.672 258.108 145.473C258.351 145.265 258.472 145.022 258.472 144.745C258.472 144.45 258.351 144.203 258.108 144.004C257.866 143.796 257.515 143.64 257.055 143.536C256.605 143.423 256.067 143.367 255.443 143.367ZM251.439 149.984H259.46V153.858H251.439V149.984ZM258.407 150.855H252.492V152.974H258.407V150.855ZM250.139 147.956H260.76V148.84H250.139V147.956ZM267.402 142.457C268.702 142.457 269.716 142.635 270.444 142.99C271.172 143.337 271.536 143.835 271.536 144.485C271.536 145.144 271.172 145.651 270.444 146.006C269.716 146.353 268.702 146.526 267.402 146.526C266.111 146.526 265.097 146.353 264.36 146.006C263.632 145.651 263.268 145.144 263.268 144.485C263.268 143.835 263.632 143.337 264.36 142.99C265.097 142.635 266.111 142.457 267.402 142.457ZM267.402 143.263C266.77 143.263 266.228 143.311 265.777 143.406C265.327 143.501 264.98 143.64 264.737 143.822C264.503 144.004 264.386 144.225 264.386 144.485C264.386 144.745 264.503 144.97 264.737 145.161C264.98 145.343 265.327 145.482 265.777 145.577C266.228 145.664 266.77 145.707 267.402 145.707C268.044 145.707 268.59 145.664 269.04 145.577C269.491 145.482 269.833 145.343 270.067 145.161C270.31 144.97 270.431 144.745 270.431 144.485C270.431 144.225 270.31 144.004 270.067 143.822C269.833 143.64 269.491 143.501 269.04 143.406C268.59 143.311 268.044 143.263 267.402 143.263ZM262.098 147.319H272.719V148.19H262.098V147.319ZM263.385 149.191H271.354V151.843H264.464V153.26H263.411V151.05H270.301V150.023H263.385V149.191ZM263.411 153.039H271.705V153.884H263.411V153.039ZM286.577 142.249H287.539V154.014H286.577V142.249ZM285.173 146.994H287.058V147.891H285.173V146.994ZM284.601 142.496H285.55V153.416H284.601V142.496ZM277.503 143.51H278.348V146.357H279.466V143.51H280.298V151.037H277.503V143.51ZM278.348 147.228V150.166H279.466V147.228H278.348ZM280.974 143.51H281.806V146.357H282.924V143.51H283.756V151.037H280.974V143.51ZM281.806 147.228V150.166H282.924V147.228H281.806ZM297.301 142.249H298.38V150.062H297.301V142.249ZM298.081 145.46H300.109V146.357H298.081V145.46ZM294.285 149.503H295.221V149.854C295.221 150.4 295.099 150.903 294.857 151.362C294.623 151.813 294.298 152.216 293.882 152.571C293.474 152.918 293.006 153.208 292.478 153.442C291.949 153.676 291.39 153.849 290.801 153.962L290.372 153.104C290.892 153.017 291.386 152.879 291.854 152.688C292.33 152.489 292.751 152.25 293.115 151.973C293.479 151.687 293.765 151.366 293.973 151.011C294.181 150.647 294.285 150.261 294.285 149.854V149.503ZM294.441 149.503H295.351V149.854C295.351 150.261 295.455 150.647 295.663 151.011C295.879 151.366 296.17 151.687 296.534 151.973C296.898 152.25 297.314 152.489 297.782 152.688C298.258 152.879 298.757 153.017 299.277 153.104L298.848 153.962C298.258 153.849 297.699 153.676 297.171 153.442C296.642 153.208 296.17 152.918 295.754 152.571C295.346 152.216 295.026 151.813 294.792 151.362C294.558 150.903 294.441 150.4 294.441 149.854V149.503ZM292.53 143.068C293.128 143.068 293.656 143.185 294.116 143.419C294.575 143.653 294.935 143.982 295.195 144.407C295.463 144.823 295.598 145.308 295.598 145.863C295.598 146.409 295.463 146.894 295.195 147.319C294.935 147.735 294.575 148.064 294.116 148.307C293.656 148.541 293.128 148.658 292.53 148.658C291.949 148.658 291.425 148.541 290.957 148.307C290.497 148.064 290.133 147.735 289.865 147.319C289.596 146.894 289.462 146.409 289.462 145.863C289.462 145.308 289.596 144.823 289.865 144.407C290.133 143.982 290.497 143.653 290.957 143.419C291.425 143.185 291.949 143.068 292.53 143.068ZM292.53 143.978C292.148 143.978 291.806 144.06 291.503 144.225C291.199 144.381 290.957 144.602 290.775 144.888C290.601 145.165 290.515 145.49 290.515 145.863C290.515 146.227 290.601 146.552 290.775 146.838C290.957 147.115 291.199 147.336 291.503 147.501C291.806 147.657 292.148 147.735 292.53 147.735C292.92 147.735 293.266 147.657 293.57 147.501C293.873 147.336 294.111 147.115 294.285 146.838C294.467 146.552 294.558 146.227 294.558 145.863C294.558 145.49 294.467 145.165 294.285 144.888C294.111 144.602 293.873 144.381 293.57 144.225C293.266 144.06 292.92 143.978 292.53 143.978ZM306.829 144.212H309.975V145.096H306.829V144.212ZM306.751 146.643H309.923V147.54H306.751V146.643ZM306.14 143.016H307.271C307.271 143.995 307.05 144.884 306.608 145.681C306.166 146.478 305.533 147.159 304.71 147.722C303.895 148.285 302.92 148.727 301.785 149.048L301.356 148.203C302.352 147.917 303.206 147.544 303.917 147.085C304.627 146.626 305.173 146.093 305.555 145.486C305.945 144.871 306.14 144.199 306.14 143.471V143.016ZM301.993 143.016H306.881V143.887H301.993V143.016ZM309.806 142.262H310.885V148.957H309.806V142.262ZM304.164 149.282H305.009V150.127C305.009 150.638 304.905 151.145 304.697 151.648C304.489 152.142 304.185 152.584 303.787 152.974C303.397 153.364 302.92 153.667 302.357 153.884L301.811 153.078C302.305 152.896 302.725 152.649 303.072 152.337C303.427 152.016 303.696 151.665 303.878 151.284C304.068 150.894 304.164 150.508 304.164 150.127V149.282ZM304.411 149.282H305.204V150.127C305.204 150.526 305.282 150.924 305.438 151.323C305.594 151.713 305.828 152.073 306.14 152.402C306.46 152.723 306.855 152.983 307.323 153.182L306.855 153.988C306.291 153.763 305.828 153.446 305.464 153.039C305.1 152.632 304.831 152.177 304.658 151.674C304.493 151.163 304.411 150.647 304.411 150.127V149.282ZM308.519 149.282H309.312V150.127C309.312 150.586 309.225 151.072 309.052 151.583C308.878 152.086 308.61 152.554 308.246 152.987C307.882 153.412 307.418 153.745 306.855 153.988L306.4 153.182C306.868 152.957 307.258 152.671 307.57 152.324C307.882 151.977 308.116 151.609 308.272 151.219C308.436 150.829 308.519 150.465 308.519 150.127V149.282ZM308.727 149.282H309.559V150.127C309.559 150.534 309.654 150.933 309.845 151.323C310.035 151.713 310.304 152.06 310.651 152.363C311.006 152.666 311.431 152.905 311.925 153.078L311.379 153.884C310.815 153.676 310.334 153.381 309.936 153C309.537 152.619 309.234 152.181 309.026 151.687C308.826 151.193 308.727 150.673 308.727 150.127V149.282ZM33.757 165.939H34.641V167.837C34.641 168.461 34.5543 169.076 34.381 169.683C34.2077 170.281 33.965 170.849 33.653 171.386C33.3497 171.915 32.9943 172.383 32.587 172.79C32.1797 173.197 31.742 173.518 31.274 173.752L30.65 172.894C31.0747 172.686 31.4733 172.404 31.846 172.049C32.2273 171.694 32.561 171.286 32.847 170.827C33.133 170.368 33.354 169.882 33.51 169.371C33.6747 168.86 33.757 168.348 33.757 167.837V165.939ZM33.978 165.939H34.849V167.837C34.849 168.331 34.927 168.825 35.083 169.319C35.2477 169.804 35.473 170.264 35.759 170.697C36.0537 171.122 36.3873 171.499 36.76 171.828C37.1413 172.157 37.5487 172.417 37.982 172.608L37.384 173.466C36.9073 173.241 36.461 172.937 36.045 172.556C35.629 172.175 35.265 171.737 34.953 171.243C34.6497 170.74 34.4113 170.203 34.238 169.631C34.0647 169.05 33.978 168.452 33.978 167.837V165.939ZM31.027 165.458H37.592V166.355H31.027V165.458ZM39.191 164.249H40.27V176.014H39.191V164.249ZM42.8096 174.238C42.8096 174.001 42.89 173.802 43.0508 173.642C43.2116 173.477 43.4295 173.394 43.7046 173.394C43.9839 173.394 44.2018 173.477 44.3584 173.642C44.5192 173.802 44.5996 174.001 44.5996 174.238C44.5996 174.475 44.5192 174.674 44.3584 174.835C44.2018 174.996 43.9839 175.076 43.7046 175.076C43.4295 175.076 43.2116 174.996 43.0508 174.835C42.89 174.674 42.8096 174.475 42.8096 174.238ZM31.7139 231.25V232.12L31.4917 234.551H30.6094V232.189V231.25H31.7139ZM33.6182 231.25V232.12L33.396 234.551H32.5137V232.139V231.25H33.6182ZM43.3944 230.249H44.4734V242.027H43.3944V230.249ZM40.8724 234.526H43.7064V235.41H40.8724V234.526ZM37.7784 231.926H38.6494V233.694C38.6494 234.327 38.5627 234.951 38.3894 235.566C38.2247 236.173 37.9907 236.745 37.6874 237.282C37.3927 237.819 37.0417 238.296 36.6344 238.712C36.2357 239.128 35.8067 239.457 35.3474 239.7L34.6974 238.842C35.122 238.634 35.5207 238.348 35.8934 237.984C36.266 237.62 36.591 237.208 36.8684 236.749C37.1544 236.281 37.3754 235.787 37.5314 235.267C37.696 234.738 37.7784 234.214 37.7784 233.694V231.926ZM38.0124 231.926H38.8704V233.694C38.8704 234.179 38.9484 234.673 39.1044 235.176C39.2604 235.67 39.477 236.138 39.7544 236.58C40.0404 237.022 40.3697 237.421 40.7424 237.776C41.115 238.123 41.5137 238.396 41.9384 238.595L41.3014 239.453C40.8334 239.219 40.4 238.903 40.0014 238.504C39.6027 238.105 39.2517 237.65 38.9484 237.139C38.6537 236.619 38.424 236.064 38.2594 235.475C38.0947 234.886 38.0124 234.292 38.0124 233.694V231.926ZM35.1394 231.458H41.5224V232.342H35.1394V231.458ZM55.5487 231.926H58.8507V232.758H55.5487V231.926ZM55.5487 234.058H58.8507V234.903H55.5487V234.058ZM58.5907 230.249H59.6567V236.385H58.5907V230.249ZM52.0907 236.957H59.6567V239.752H53.1827V241.559H52.1167V238.933H58.5907V237.815H52.0907V236.957ZM52.1167 240.987H60.0987V241.858H52.1167V240.987ZM50.5697 230.795H51.6487V232.472H54.8207V230.795H55.8867V235.917H50.5697V230.795ZM51.6487 233.317V235.046H54.8207V233.317H51.6487ZM67.2606 230.457C68.5606 230.457 69.5746 230.635 70.3026 230.99C71.0306 231.337 71.3946 231.835 71.3946 232.485C71.3946 233.144 71.0306 233.651 70.3026 234.006C69.5746 234.353 68.5606 234.526 67.2606 234.526C65.9693 234.526 64.9553 234.353 64.2186 234.006C63.4906 233.651 63.1266 233.144 63.1266 232.485C63.1266 231.835 63.4906 231.337 64.2186 230.99C64.9553 230.635 65.9693 230.457 67.2606 230.457ZM67.2606 231.263C66.628 231.263 66.0863 231.311 65.6356 231.406C65.185 231.501 64.8383 231.64 64.5956 231.822C64.3616 232.004 64.2446 232.225 64.2446 232.485C64.2446 232.745 64.3616 232.97 64.5956 233.161C64.8383 233.343 65.185 233.482 65.6356 233.577C66.0863 233.664 66.628 233.707 67.2606 233.707C67.902 233.707 68.448 233.664 68.8986 233.577C69.3493 233.482 69.6916 233.343 69.9256 233.161C70.1683 232.97 70.2896 232.745 70.2896 232.485C70.2896 232.225 70.1683 232.004 69.9256 231.822C69.6916 231.64 69.3493 231.501 68.8986 231.406C68.448 231.311 67.902 231.263 67.2606 231.263ZM61.9566 235.319H72.5776V236.19H61.9566V235.319ZM63.2436 237.191H71.2126V239.843H64.3226V241.26H63.2696V239.05H70.1596V238.023H63.2436V237.191ZM63.2696 241.039H71.5636V241.884H63.2696V241.039ZM80.0389 231.341H80.9099V232.303C80.9099 232.996 80.7756 233.646 80.5069 234.253C80.2383 234.851 79.8526 235.371 79.3499 235.813C78.8559 236.255 78.2796 236.593 77.6209 236.827L77.0749 235.969C77.6643 235.77 78.1799 235.488 78.6219 235.124C79.0726 234.76 79.4193 234.335 79.6619 233.85C79.9133 233.356 80.0389 232.84 80.0389 232.303V231.341ZM80.2209 231.341H81.1179V232.29C81.1179 232.784 81.2349 233.261 81.4689 233.72C81.7029 234.179 82.0323 234.582 82.4569 234.929C82.8903 235.276 83.3973 235.544 83.9779 235.735L83.4709 236.58C82.8123 236.363 82.2403 236.047 81.7549 235.631C81.2696 235.206 80.8926 234.708 80.6239 234.136C80.3553 233.555 80.2209 232.94 80.2209 232.29V231.341ZM77.4129 231.029H83.7049V231.913H77.4129V231.029ZM85.1999 230.249H86.2789V236.697H85.1999V230.249ZM85.9799 232.966H88.0079V233.863H85.9799V232.966ZM78.8689 237.256H79.9349V238.673H85.1999V237.256H86.2789V241.858H78.8689V237.256ZM79.9349 239.531V240.974H85.1999V239.531H79.9349ZM94.4159 230.457C95.7159 230.457 96.7299 230.635 97.4579 230.99C98.1859 231.337 98.5499 231.835 98.5499 232.485C98.5499 233.144 98.1859 233.651 97.4579 234.006C96.7299 234.353 95.7159 234.526 94.4159 234.526C93.1246 234.526 92.1106 234.353 91.3739 234.006C90.6459 233.651 90.2819 233.144 90.2819 232.485C90.2819 231.835 90.6459 231.337 91.3739 230.99C92.1106 230.635 93.1246 230.457 94.4159 230.457ZM94.4159 231.263C93.7832 231.263 93.2416 231.311 92.7909 231.406C92.3402 231.501 91.9936 231.64 91.7509 231.822C91.5169 232.004 91.3999 232.225 91.3999 232.485C91.3999 232.745 91.5169 232.97 91.7509 233.161C91.9936 233.343 92.3402 233.482 92.7909 233.577C93.2416 233.664 93.7832 233.707 94.4159 233.707C95.0572 233.707 95.6032 233.664 96.0539 233.577C96.5046 233.482 96.8469 233.343 97.0809 233.161C97.3236 232.97 97.4449 232.745 97.4449 232.485C97.4449 232.225 97.3236 232.004 97.0809 231.822C96.8469 231.64 96.5046 231.501 96.0539 231.406C95.6032 231.311 95.0572 231.263 94.4159 231.263ZM89.1119 235.319H99.7329V236.19H89.1119V235.319ZM90.3989 237.191H98.3679V239.843H91.4779V241.26H90.4249V239.05H97.3149V238.023H90.3989V237.191ZM90.4249 241.039H98.7189V241.884H90.4249V241.039ZM109.066 230.665H110.015V231.328C110.015 231.779 109.929 232.203 109.755 232.602C109.582 232.992 109.344 233.352 109.04 233.681C108.746 234.01 108.399 234.305 108 234.565C107.602 234.825 107.168 235.042 106.7 235.215C106.241 235.388 105.769 235.514 105.283 235.592L104.841 234.721C105.275 234.66 105.695 234.556 106.102 234.409C106.518 234.262 106.904 234.084 107.259 233.876C107.615 233.659 107.927 233.417 108.195 233.148C108.473 232.879 108.685 232.593 108.832 232.29C108.988 231.978 109.066 231.657 109.066 231.328V230.665ZM109.248 230.665H110.184V231.328C110.184 231.657 110.262 231.974 110.418 232.277C110.574 232.58 110.787 232.866 111.055 233.135C111.333 233.404 111.649 233.646 112.004 233.863C112.36 234.08 112.741 234.262 113.148 234.409C113.564 234.556 113.985 234.66 114.409 234.721L113.98 235.592C113.495 235.514 113.023 235.388 112.563 235.215C112.104 235.033 111.671 234.812 111.263 234.552C110.865 234.292 110.514 233.997 110.21 233.668C109.916 233.339 109.682 232.979 109.508 232.589C109.335 232.19 109.248 231.77 109.248 231.328V230.665ZM109.066 237.542H110.132V242.014H109.066V237.542ZM104.308 236.866H114.929V237.763H104.308V236.866ZM122.429 237.49H123.274V238.114C123.274 238.625 123.17 239.128 122.962 239.622C122.754 240.116 122.451 240.558 122.052 240.948C121.662 241.338 121.181 241.637 120.609 241.845L120.076 241.052C120.57 240.87 120.991 240.619 121.337 240.298C121.693 239.977 121.961 239.631 122.143 239.258C122.334 238.877 122.429 238.495 122.429 238.114V237.49ZM122.676 237.49H123.469V238.114C123.469 238.513 123.547 238.907 123.703 239.297C123.859 239.687 124.093 240.042 124.405 240.363C124.726 240.684 125.116 240.939 125.575 241.13L125.133 241.949C124.561 241.724 124.093 241.412 123.729 241.013C123.374 240.614 123.11 240.164 122.936 239.661C122.763 239.15 122.676 238.634 122.676 238.114V237.49ZM126.784 237.49H127.577V238.114C127.577 238.573 127.486 239.054 127.304 239.557C127.131 240.06 126.862 240.528 126.498 240.961C126.143 241.386 125.688 241.715 125.133 241.949L124.665 241.13C125.133 240.913 125.523 240.636 125.835 240.298C126.147 239.951 126.381 239.587 126.537 239.206C126.702 238.816 126.784 238.452 126.784 238.114V237.49ZM126.992 237.49H127.837V238.114C127.837 238.521 127.928 238.916 128.11 239.297C128.301 239.678 128.57 240.025 128.916 240.337C129.272 240.64 129.696 240.879 130.19 241.052L129.657 241.845C129.085 241.637 128.6 241.347 128.201 240.974C127.803 240.593 127.499 240.159 127.291 239.674C127.092 239.18 126.992 238.66 126.992 238.114V237.49ZM128.058 230.262H129.137V236.97H128.058V230.262ZM122.832 230.938C123.43 230.938 123.959 231.055 124.418 231.289C124.878 231.523 125.237 231.848 125.497 232.264C125.766 232.671 125.9 233.148 125.9 233.694C125.9 234.231 125.766 234.704 125.497 235.111C125.237 235.518 124.878 235.839 124.418 236.073C123.959 236.307 123.43 236.424 122.832 236.424C122.243 236.424 121.714 236.307 121.246 236.073C120.787 235.839 120.423 235.518 120.154 235.111C119.894 234.704 119.764 234.231 119.764 233.694C119.764 233.148 119.894 232.671 120.154 232.264C120.423 231.848 120.787 231.523 121.246 231.289C121.714 231.055 122.243 230.938 122.832 230.938ZM122.832 231.848C122.451 231.848 122.109 231.926 121.805 232.082C121.502 232.238 121.259 232.455 121.077 232.732C120.904 233.001 120.817 233.321 120.817 233.694C120.817 234.058 120.904 234.379 121.077 234.656C121.259 234.925 121.502 235.137 121.805 235.293C122.109 235.449 122.451 235.527 122.832 235.527C123.222 235.527 123.569 235.449 123.872 235.293C124.176 235.137 124.414 234.925 124.587 234.656C124.761 234.379 124.847 234.058 124.847 233.694C124.847 233.321 124.761 233.001 124.587 232.732C124.414 232.455 124.176 232.238 123.872 232.082C123.569 231.926 123.222 231.848 122.832 231.848ZM136.767 230.457C138.067 230.457 139.081 230.635 139.809 230.99C140.537 231.337 140.901 231.835 140.901 232.485C140.901 233.144 140.537 233.651 139.809 234.006C139.081 234.353 138.067 234.526 136.767 234.526C135.476 234.526 134.462 234.353 133.725 234.006C132.997 233.651 132.633 233.144 132.633 232.485C132.633 231.835 132.997 231.337 133.725 230.99C134.462 230.635 135.476 230.457 136.767 230.457ZM136.767 231.263C136.135 231.263 135.593 231.311 135.142 231.406C134.692 231.501 134.345 231.64 134.102 231.822C133.868 232.004 133.751 232.225 133.751 232.485C133.751 232.745 133.868 232.97 134.102 233.161C134.345 233.343 134.692 233.482 135.142 233.577C135.593 233.664 136.135 233.707 136.767 233.707C137.409 233.707 137.955 233.664 138.405 233.577C138.856 233.482 139.198 233.343 139.432 233.161C139.675 232.97 139.796 232.745 139.796 232.485C139.796 232.225 139.675 232.004 139.432 231.822C139.198 231.64 138.856 231.501 138.405 231.406C137.955 231.311 137.409 231.263 136.767 231.263ZM131.463 235.319H142.084V236.19H131.463V235.319ZM132.75 237.191H140.719V239.843H133.829V241.26H132.776V239.05H139.666V238.023H132.75V237.191ZM132.776 241.039H141.07V241.884H132.776V241.039ZM151.573 230.249H152.652V242.014H151.573V230.249ZM152.301 235.098H154.407V235.995H152.301V235.098ZM145.944 231.523H146.945C146.945 232.225 146.902 232.923 146.815 233.616C146.729 234.309 146.581 234.99 146.373 235.657C146.174 236.324 145.897 236.97 145.541 237.594C145.195 238.209 144.757 238.799 144.228 239.362L143.37 238.751C143.847 238.248 144.25 237.72 144.579 237.165C144.917 236.61 145.186 236.034 145.385 235.436C145.585 234.838 145.728 234.223 145.814 233.59C145.901 232.949 145.944 232.299 145.944 231.64V231.523ZM143.747 231.523H146.347V232.42H143.747V231.523ZM149.155 231.523H150.156C150.156 232.234 150.122 232.962 150.052 233.707C149.992 234.452 149.866 235.198 149.675 235.943C149.493 236.688 149.233 237.416 148.895 238.127C148.566 238.838 148.128 239.509 147.582 240.142L146.711 239.544C147.214 238.972 147.621 238.365 147.933 237.724C148.254 237.083 148.501 236.424 148.674 235.748C148.848 235.063 148.969 234.374 149.038 233.681C149.116 232.988 149.155 232.303 149.155 231.627V231.523ZM147.322 231.523H149.584V232.42H147.322V231.523ZM158.381 238.277H156.966C156.97 237.883 157.004 237.553 157.067 237.287C157.131 237.016 157.237 236.77 157.385 236.55C157.537 236.33 157.738 236.097 157.988 235.852C158.182 235.666 158.358 235.49 158.515 235.325C158.671 235.156 158.796 234.978 158.889 234.792C158.982 234.602 159.029 234.384 159.029 234.138C159.029 233.872 158.984 233.645 158.896 233.459C158.807 233.273 158.675 233.131 158.502 233.034C158.333 232.936 158.121 232.888 157.867 232.888C157.656 232.888 157.457 232.93 157.271 233.015C157.084 233.095 156.934 233.222 156.82 233.396C156.706 233.565 156.644 233.789 156.636 234.068H155.106C155.114 233.535 155.241 233.087 155.487 232.723C155.732 232.359 156.062 232.086 156.477 231.904C156.892 231.722 157.355 231.631 157.867 231.631C158.434 231.631 158.919 231.728 159.321 231.923C159.723 232.113 160.03 232.393 160.241 232.761C160.457 233.125 160.565 233.565 160.565 234.081C160.565 234.453 160.491 234.792 160.343 235.097C160.195 235.397 160.002 235.679 159.765 235.941C159.528 236.199 159.272 236.457 158.997 236.715C158.76 236.931 158.599 237.166 158.515 237.42C158.43 237.67 158.386 237.955 158.381 238.277ZM156.839 240.257C156.839 240.029 156.917 239.836 157.074 239.68C157.23 239.519 157.444 239.438 157.715 239.438C157.986 239.438 158.199 239.519 158.356 239.68C158.513 239.836 158.591 240.029 158.591 240.257C158.591 240.486 158.513 240.681 158.356 240.841C158.199 240.998 157.986 241.076 157.715 241.076C157.444 241.076 157.23 240.998 157.074 240.841C156.917 240.681 156.839 240.486 156.839 240.257ZM162.768 231.25V232.12L162.545 234.551H161.663V232.189V231.25H162.768ZM164.672 231.25V232.12L164.45 234.551H163.567V232.139V231.25H164.672ZM170.223 231.432H177.789V232.316H170.223V231.432ZM169.092 239.466H179.713V240.363H169.092V239.466ZM173.226 235.267H174.292V239.921H173.226V235.267ZM177.373 231.432H178.452V232.589C178.452 233.074 178.444 233.586 178.426 234.123C178.418 234.66 178.383 235.25 178.322 235.891C178.27 236.532 178.171 237.247 178.023 238.036L176.931 237.906C177.157 236.779 177.287 235.791 177.321 234.942C177.356 234.084 177.373 233.3 177.373 232.589V231.432ZM189.852 232.004H191.88V232.901H189.852V232.004ZM189.852 234.513H191.88V235.41H189.852V234.513ZM184.327 230.951C184.925 230.951 185.454 231.068 185.913 231.302C186.373 231.536 186.732 231.861 186.992 232.277C187.261 232.693 187.395 233.174 187.395 233.72C187.395 234.275 187.261 234.76 186.992 235.176C186.732 235.583 186.373 235.904 185.913 236.138C185.454 236.372 184.925 236.489 184.327 236.489C183.747 236.489 183.222 236.372 182.754 236.138C182.295 235.904 181.931 235.583 181.662 235.176C181.394 234.76 181.259 234.275 181.259 233.72C181.259 233.174 181.394 232.693 181.662 232.277C181.931 231.861 182.295 231.536 182.754 231.302C183.222 231.068 183.747 230.951 184.327 230.951ZM184.327 231.861C183.946 231.861 183.604 231.943 183.3 232.108C182.997 232.264 182.754 232.481 182.572 232.758C182.399 233.035 182.312 233.356 182.312 233.72C182.312 234.093 182.399 234.418 182.572 234.695C182.754 234.972 182.997 235.189 183.3 235.345C183.604 235.501 183.946 235.579 184.327 235.579C184.717 235.579 185.064 235.501 185.367 235.345C185.671 235.189 185.909 234.972 186.082 234.695C186.264 234.418 186.355 234.093 186.355 233.72C186.355 233.356 186.264 233.035 186.082 232.758C185.909 232.481 185.671 232.264 185.367 232.108C185.064 231.943 184.717 231.861 184.327 231.861ZM189.098 230.249H190.177V237.217H189.098V230.249ZM186.433 237.581C187.222 237.581 187.907 237.672 188.487 237.854C189.068 238.027 189.514 238.279 189.826 238.608C190.138 238.929 190.294 239.323 190.294 239.791C190.294 240.25 190.138 240.645 189.826 240.974C189.514 241.295 189.068 241.542 188.487 241.715C187.907 241.897 187.222 241.988 186.433 241.988C185.636 241.988 184.947 241.897 184.366 241.715C183.786 241.542 183.339 241.295 183.027 240.974C182.715 240.645 182.559 240.25 182.559 239.791C182.559 239.323 182.715 238.929 183.027 238.608C183.339 238.279 183.786 238.027 184.366 237.854C184.947 237.672 185.636 237.581 186.433 237.581ZM186.433 238.452C185.853 238.452 185.35 238.504 184.925 238.608C184.509 238.712 184.189 238.864 183.963 239.063C183.738 239.262 183.625 239.505 183.625 239.791C183.625 240.068 183.738 240.307 183.963 240.506C184.189 240.705 184.509 240.857 184.925 240.961C185.35 241.065 185.853 241.117 186.433 241.117C187.014 241.117 187.512 241.065 187.928 240.961C188.344 240.857 188.665 240.705 188.89 240.506C189.116 240.307 189.228 240.068 189.228 239.791C189.228 239.505 189.116 239.262 188.89 239.063C188.665 238.864 188.344 238.712 187.928 238.608C187.512 238.504 187.014 238.452 186.433 238.452ZM201.551 230.249H202.63V242.027H201.551V230.249ZM196.429 231.159C197.01 231.159 197.521 231.328 197.963 231.666C198.414 231.995 198.765 232.468 199.016 233.083C199.276 233.698 199.406 234.422 199.406 235.254C199.406 236.086 199.276 236.81 199.016 237.425C198.765 238.04 198.414 238.517 197.963 238.855C197.521 239.193 197.01 239.362 196.429 239.362C195.849 239.362 195.333 239.193 194.882 238.855C194.432 238.517 194.076 238.04 193.816 237.425C193.565 236.81 193.439 236.086 193.439 235.254C193.439 234.422 193.565 233.698 193.816 233.083C194.076 232.468 194.432 231.995 194.882 231.666C195.333 231.328 195.849 231.159 196.429 231.159ZM196.429 232.121C196.039 232.121 195.697 232.251 195.402 232.511C195.116 232.762 194.891 233.126 194.726 233.603C194.562 234.071 194.479 234.621 194.479 235.254C194.479 235.887 194.562 236.441 194.726 236.918C194.891 237.386 195.116 237.75 195.402 238.01C195.697 238.27 196.039 238.4 196.429 238.4C196.811 238.4 197.144 238.27 197.43 238.01C197.725 237.75 197.955 237.386 198.119 236.918C198.284 236.441 198.366 235.887 198.366 235.254C198.366 234.621 198.284 234.071 198.119 233.603C197.955 233.126 197.725 232.762 197.43 232.511C197.144 232.251 196.811 232.121 196.429 232.121ZM206.399 233.785H214.394V234.656H206.399V233.785ZM204.956 236.229H215.616V237.113H204.956V236.229ZM206.399 230.678H207.465V234.227H206.399V230.678ZM206.321 240.844H214.459V241.728H206.321V240.844ZM206.321 238.296H207.4V241.078H206.321V238.296ZM221.518 230.756H229.084V231.627H221.518V230.756ZM220.166 234.955H230.826V235.839H220.166V234.955ZM224.937 235.579H226.003V238.01H224.937V235.579ZM228.382 230.756H229.448V231.601C229.448 232.086 229.43 232.632 229.396 233.239C229.361 233.846 229.248 234.548 229.058 235.345L228.005 235.228C228.195 234.439 228.304 233.759 228.33 233.187C228.364 232.606 228.382 232.078 228.382 231.601V230.756ZM225.47 237.646C226.735 237.646 227.727 237.837 228.447 238.218C229.175 238.591 229.539 239.124 229.539 239.817C229.539 240.51 229.175 241.043 228.447 241.416C227.727 241.797 226.735 241.988 225.47 241.988C224.196 241.988 223.195 241.797 222.467 241.416C221.747 241.043 221.388 240.51 221.388 239.817C221.388 239.124 221.747 238.591 222.467 238.218C223.195 237.837 224.196 237.646 225.47 237.646ZM225.47 238.517C224.846 238.517 224.308 238.569 223.858 238.673C223.407 238.777 223.06 238.924 222.818 239.115C222.584 239.306 222.467 239.54 222.467 239.817C222.467 240.094 222.584 240.328 222.818 240.519C223.06 240.71 223.407 240.857 223.858 240.961C224.308 241.065 224.846 241.117 225.47 241.117C226.094 241.117 226.627 241.065 227.069 240.961C227.519 240.857 227.862 240.71 228.096 240.519C228.338 240.328 228.46 240.094 228.46 239.817C228.46 239.54 228.338 239.306 228.096 239.115C227.862 238.924 227.519 238.777 227.069 238.673C226.627 238.569 226.094 238.517 225.47 238.517ZM233.477 230.873H241.043V231.757H233.477V230.873ZM232.125 235.202H242.785V236.086H232.125V235.202ZM240.341 230.873H241.407V231.744C241.407 232.238 241.389 232.784 241.355 233.382C241.32 233.98 241.207 234.691 241.017 235.514L239.951 235.449C240.141 234.652 240.254 233.958 240.289 233.369C240.323 232.771 240.341 232.229 240.341 231.744V230.873ZM233.438 237.685H241.446V241.858H233.438V237.685ZM240.38 238.543H234.491V240.974H240.38V238.543ZM252.963 230.262H253.99V237.542H252.963V230.262ZM251.039 233.486H253.262V234.37H251.039V233.486ZM250.467 230.444H251.481V237.36H250.467V230.444ZM244.019 231.588H249.973V232.459H244.019V231.588ZM247.009 233.044C247.503 233.044 247.936 233.131 248.309 233.304C248.69 233.469 248.985 233.703 249.193 234.006C249.409 234.301 249.518 234.652 249.518 235.059C249.518 235.458 249.409 235.809 249.193 236.112C248.985 236.415 248.69 236.654 248.309 236.827C247.936 236.992 247.503 237.074 247.009 237.074C246.523 237.074 246.09 236.992 245.709 236.827C245.327 236.654 245.033 236.415 244.825 236.112C244.617 235.809 244.513 235.458 244.513 235.059C244.513 234.652 244.617 234.301 244.825 234.006C245.033 233.703 245.327 233.469 245.709 233.304C246.09 233.131 246.523 233.044 247.009 233.044ZM247.009 233.85C246.558 233.85 246.19 233.958 245.904 234.175C245.618 234.392 245.475 234.686 245.475 235.059C245.475 235.423 245.618 235.718 245.904 235.943C246.19 236.16 246.558 236.268 247.009 236.268C247.468 236.268 247.836 236.16 248.114 235.943C248.4 235.718 248.543 235.423 248.543 235.059C248.543 234.686 248.4 234.392 248.114 234.175C247.836 233.958 247.468 233.85 247.009 233.85ZM246.476 230.301H247.542V232.108H246.476V230.301ZM247.178 237.893H248.023V238.283C248.023 238.777 247.914 239.262 247.698 239.739C247.49 240.207 247.186 240.627 246.788 241C246.389 241.373 245.904 241.663 245.332 241.871L244.825 241.052C245.319 240.887 245.739 240.658 246.086 240.363C246.441 240.06 246.71 239.726 246.892 239.362C247.082 238.998 247.178 238.638 247.178 238.283V237.893ZM247.425 237.893H248.231V238.283C248.231 238.656 248.304 239.033 248.452 239.414C248.608 239.787 248.842 240.125 249.154 240.428C249.466 240.731 249.851 240.974 250.311 241.156L249.869 241.975C249.305 241.758 248.842 241.455 248.478 241.065C248.122 240.684 247.858 240.25 247.685 239.765C247.511 239.28 247.425 238.786 247.425 238.283V237.893ZM251.494 237.893H252.3V238.283C252.3 238.725 252.213 239.189 252.04 239.674C251.866 240.159 251.598 240.606 251.234 241.013C250.878 241.429 250.423 241.75 249.869 241.975L249.414 241.156C249.873 240.948 250.254 240.684 250.558 240.363C250.87 240.042 251.104 239.696 251.26 239.323C251.416 238.95 251.494 238.604 251.494 238.283V237.893ZM251.728 237.893H252.56V238.283C252.56 238.664 252.651 239.041 252.833 239.414C253.023 239.778 253.296 240.103 253.652 240.389C254.007 240.675 254.427 240.896 254.913 241.052L254.406 241.871C253.834 241.672 253.348 241.39 252.95 241.026C252.551 240.671 252.248 240.255 252.04 239.778C251.832 239.301 251.728 238.803 251.728 238.283V237.893ZM259.176 231.159C259.748 231.159 260.255 231.328 260.697 231.666C261.139 231.995 261.481 232.468 261.724 233.083C261.975 233.698 262.101 234.422 262.101 235.254C262.101 236.086 261.975 236.81 261.724 237.425C261.481 238.04 261.139 238.517 260.697 238.855C260.255 239.193 259.748 239.362 259.176 239.362C258.612 239.362 258.105 239.193 257.655 238.855C257.213 238.517 256.866 238.04 256.615 237.425C256.372 236.81 256.251 236.086 256.251 235.254C256.251 234.422 256.372 233.698 256.615 233.083C256.866 232.468 257.213 231.995 257.655 231.666C258.105 231.328 258.612 231.159 259.176 231.159ZM259.176 232.121C258.803 232.121 258.474 232.251 258.188 232.511C257.902 232.762 257.676 233.126 257.512 233.603C257.356 234.071 257.278 234.621 257.278 235.254C257.278 235.887 257.356 236.441 257.512 236.918C257.676 237.386 257.902 237.75 258.188 238.01C258.474 238.27 258.803 238.4 259.176 238.4C259.557 238.4 259.891 238.27 260.177 238.01C260.463 237.75 260.684 237.386 260.84 236.918C261.004 236.441 261.087 235.887 261.087 235.254C261.087 234.621 261.004 234.071 260.84 233.603C260.684 233.126 260.463 232.762 260.177 232.511C259.891 232.251 259.557 232.121 259.176 232.121ZM264.649 230.249H265.715V242.027H264.649V230.249ZM261.75 234.734H265.13V235.605H261.75V234.734ZM268.202 240.238C268.202 240.001 268.283 239.802 268.443 239.642C268.604 239.477 268.822 239.394 269.097 239.394C269.376 239.394 269.594 239.477 269.751 239.642C269.912 239.802 269.992 240.001 269.992 240.238C269.992 240.475 269.912 240.674 269.751 240.835C269.594 240.996 269.376 241.076 269.097 241.076C268.822 241.076 268.604 240.996 268.443 240.835C268.283 240.674 268.202 240.475 268.202 240.238ZM31.807 253.497H39.373V254.381H31.807V253.497ZM30.65 261.401H41.271V262.298H30.65V261.401ZM38.788 253.497H39.854V254.68C39.854 255.174 39.8453 255.703 39.828 256.266C39.8193 256.821 39.7847 257.436 39.724 258.112C39.6633 258.788 39.5593 259.551 39.412 260.4L38.32 260.283C38.476 259.486 38.5843 258.753 38.645 258.086C38.7143 257.419 38.7533 256.803 38.762 256.24C38.7793 255.677 38.788 255.157 38.788 254.68V253.497ZM42.999 260.296H43.766C44.4853 260.296 45.1873 260.279 45.872 260.244C46.5567 260.201 47.2933 260.114 48.082 259.984L48.186 260.868C47.3713 261.015 46.613 261.111 45.911 261.154C45.2177 261.189 44.5027 261.206 43.766 261.206H42.999V260.296ZM42.973 253.523H47.367V257.657H44.039V260.634H42.999V256.773H46.327V254.42H42.973V253.523ZM51.553 252.249H52.58V264.014H51.553V252.249ZM49.564 256.89H51.826V257.774H49.564V256.89ZM48.888 252.509H49.889V263.403H48.888V252.509ZM60.444 256.24H63.707V257.124H60.444V256.24ZM57.597 253.263H58.481V255.369C58.481 256.019 58.3986 256.66 58.234 257.293C58.078 257.926 57.8526 258.515 57.558 259.061C57.2633 259.607 56.9166 260.092 56.518 260.517C56.128 260.942 55.699 261.28 55.231 261.531L54.555 260.66C54.9883 260.452 55.387 260.162 55.751 259.789C56.1236 259.416 56.4486 258.992 56.726 258.515C57.0033 258.03 57.2156 257.523 57.363 256.994C57.519 256.457 57.597 255.915 57.597 255.369V253.263ZM57.818 253.263H58.689V255.369C58.689 255.898 58.7626 256.422 58.91 256.942C59.066 257.462 59.2826 257.952 59.56 258.411C59.8373 258.862 60.158 259.265 60.522 259.62C60.8946 259.975 61.2933 260.253 61.718 260.452L61.068 261.323C60.6 261.08 60.1666 260.755 59.768 260.348C59.3693 259.941 59.0226 259.473 58.728 258.944C58.442 258.415 58.2166 257.848 58.052 257.241C57.896 256.634 57.818 256.01 57.818 255.369V253.263ZM63.174 252.249H64.24V264.027H63.174V252.249ZM71.2073 255.252H79.2023V256.136H71.2073V255.252ZM71.2073 252.509H72.2733V255.824H71.2073V252.509ZM69.7643 257.605H80.3853V258.476H69.7643V257.605ZM74.5353 255.837H75.6143V258.19H74.5353V255.837ZM70.9473 259.646H79.2153V260.517H70.9473V259.646ZM70.8433 262.974H79.3193V263.858H70.8433V262.974ZM72.7283 259.893H73.7943V263.377H72.7283V259.893ZM76.3683 259.893H77.4343V263.377H76.3683V259.893ZM81.7232 258.437H92.3442V259.308H81.7232V258.437ZM83.0882 262.87H91.1612V263.754H83.0882V262.87ZM83.0882 260.348H84.1672V263.13H83.0882V260.348ZM87.0272 252.652C87.8679 252.652 88.5959 252.747 89.2112 252.938C89.8352 253.12 90.3162 253.389 90.6542 253.744C90.9922 254.091 91.1612 254.507 91.1612 254.992C91.1612 255.477 90.9922 255.898 90.6542 256.253C90.3162 256.608 89.8352 256.881 89.2112 257.072C88.5959 257.254 87.8679 257.345 87.0272 257.345C86.1866 257.345 85.4542 257.254 84.8302 257.072C84.2149 256.881 83.7382 256.608 83.4002 256.253C83.0622 255.898 82.8932 255.477 82.8932 254.992C82.8932 254.507 83.0622 254.091 83.4002 253.744C83.7382 253.389 84.2149 253.12 84.8302 252.938C85.4542 252.747 86.1866 252.652 87.0272 252.652ZM87.0272 253.523C86.4206 253.523 85.8876 253.584 85.4282 253.705C84.9776 253.818 84.6266 253.987 84.3752 254.212C84.1239 254.429 83.9982 254.689 83.9982 254.992C83.9982 255.295 84.1239 255.56 84.3752 255.785C84.6266 256.002 84.9776 256.171 85.4282 256.292C85.8876 256.405 86.4206 256.461 87.0272 256.461C87.6512 256.461 88.1886 256.405 88.6392 256.292C89.0899 256.171 89.4366 256.002 89.6792 255.785C89.9306 255.56 90.0562 255.295 90.0562 254.992C90.0562 254.689 89.9306 254.429 89.6792 254.212C89.4366 253.987 89.0899 253.818 88.6392 253.705C88.1886 253.584 87.6512 253.523 87.0272 253.523ZM100.027 253.939H100.911V255.837C100.911 256.461 100.824 257.076 100.651 257.683C100.477 258.281 100.235 258.849 99.9225 259.386C99.6192 259.915 99.2639 260.383 98.8565 260.79C98.4492 261.197 98.0115 261.518 97.5435 261.752L96.9195 260.894C97.3442 260.686 97.7429 260.404 98.1155 260.049C98.4969 259.694 98.8305 259.286 99.1165 258.827C99.4025 258.368 99.6235 257.882 99.7795 257.371C99.9442 256.86 100.027 256.348 100.027 255.837V253.939ZM100.248 253.939H101.119V255.837C101.119 256.331 101.197 256.825 101.353 257.319C101.517 257.804 101.743 258.264 102.029 258.697C102.323 259.122 102.657 259.499 103.03 259.828C103.411 260.157 103.818 260.417 104.252 260.608L103.654 261.466C103.177 261.241 102.731 260.937 102.315 260.556C101.899 260.175 101.535 259.737 101.223 259.243C100.919 258.74 100.681 258.203 100.508 257.631C100.334 257.05 100.248 256.452 100.248 255.837V253.939ZM97.2965 253.458H103.862V254.355H97.2965V253.458ZM105.461 252.249H106.54V264.014H105.461V252.249ZM113.637 258.333H114.716V260.231H113.637V258.333ZM108.879 257.917H119.5V258.788H108.879V257.917ZM114.17 259.893C115.435 259.893 116.423 260.071 117.134 260.426C117.844 260.781 118.2 261.288 118.2 261.947C118.2 262.606 117.844 263.108 117.134 263.455C116.423 263.81 115.435 263.988 114.17 263.988C112.922 263.988 111.942 263.81 111.232 263.455C110.521 263.108 110.166 262.606 110.166 261.947C110.166 261.288 110.521 260.781 111.232 260.426C111.942 260.071 112.922 259.893 114.17 259.893ZM114.183 260.725C113.567 260.725 113.039 260.773 112.597 260.868C112.163 260.963 111.83 261.102 111.596 261.284C111.362 261.457 111.245 261.678 111.245 261.947C111.245 262.207 111.362 262.428 111.596 262.61C111.83 262.792 112.163 262.931 112.597 263.026C113.039 263.121 113.567 263.169 114.183 263.169C114.798 263.169 115.322 263.121 115.756 263.026C116.189 262.931 116.523 262.792 116.757 262.61C116.991 262.428 117.108 262.207 117.108 261.947C117.108 261.678 116.991 261.457 116.757 261.284C116.523 261.102 116.189 260.963 115.756 260.868C115.322 260.773 114.798 260.725 114.183 260.725ZM110.283 252.548H111.349V253.848H117.043V252.548H118.109V256.877H110.283V252.548ZM111.349 254.693V256.019H117.043V254.693H111.349ZM127.91 252.808C128.499 252.808 129.019 252.912 129.47 253.12C129.92 253.319 130.271 253.601 130.523 253.965C130.783 254.32 130.913 254.741 130.913 255.226C130.913 255.694 130.783 256.114 130.523 256.487C130.271 256.851 129.92 257.137 129.47 257.345C129.019 257.544 128.499 257.644 127.91 257.644C127.338 257.644 126.826 257.544 126.376 257.345C125.925 257.137 125.57 256.851 125.31 256.487C125.05 256.114 124.92 255.694 124.92 255.226C124.92 254.741 125.05 254.32 125.31 253.965C125.57 253.601 125.925 253.319 126.376 253.12C126.826 252.912 127.338 252.808 127.91 252.808ZM127.91 253.692C127.537 253.692 127.203 253.757 126.909 253.887C126.614 254.017 126.38 254.199 126.207 254.433C126.042 254.658 125.96 254.923 125.96 255.226C125.96 255.521 126.042 255.785 126.207 256.019C126.38 256.244 126.614 256.422 126.909 256.552C127.203 256.682 127.537 256.747 127.91 256.747C128.3 256.747 128.642 256.682 128.937 256.552C129.231 256.422 129.461 256.244 129.626 256.019C129.799 255.785 129.886 255.521 129.886 255.226C129.886 254.923 129.799 254.658 129.626 254.433C129.461 254.199 129.231 254.017 128.937 253.887C128.642 253.757 128.3 253.692 127.91 253.692ZM127.442 258.957H128.521V263.65H127.442V258.957ZM132.642 252.262H133.708V264.014H132.642V252.262ZM124.192 259.542L124.049 258.632C124.777 258.632 125.574 258.623 126.441 258.606C127.316 258.589 128.213 258.55 129.132 258.489C130.059 258.428 130.947 258.333 131.797 258.203L131.875 259.009C130.999 259.174 130.107 259.295 129.197 259.373C128.287 259.442 127.403 259.486 126.545 259.503C125.695 259.52 124.911 259.533 124.192 259.542ZM136.034 261.661H146.694V262.558H136.034V261.661ZM140.805 259.152H141.871V262.038H140.805V259.152ZM137.334 253.12H145.368V256.682H138.426V259.035H137.36V255.824H144.302V254.004H137.334V253.12ZM137.36 258.58H145.641V259.464H137.36V258.58ZM159.784 252.249H160.863V259.373H159.784V252.249ZM153.271 259.997H160.863V263.858H153.271V259.997ZM159.81 260.868H154.324V262.974H159.81V260.868ZM151.399 253.497H158.536V254.381H151.399V253.497ZM154.974 254.953C155.555 254.953 156.057 255.04 156.482 255.213C156.907 255.378 157.236 255.62 157.47 255.941C157.713 256.253 157.834 256.621 157.834 257.046C157.834 257.479 157.713 257.852 157.47 258.164C157.236 258.467 156.907 258.706 156.482 258.879C156.057 259.052 155.555 259.139 154.974 259.139C154.402 259.139 153.899 259.052 153.466 258.879C153.033 258.706 152.695 258.467 152.452 258.164C152.218 257.852 152.101 257.479 152.101 257.046C152.101 256.621 152.218 256.253 152.452 255.941C152.695 255.62 153.033 255.378 153.466 255.213C153.899 255.04 154.402 254.953 154.974 254.953ZM154.974 255.772C154.419 255.772 153.973 255.889 153.635 256.123C153.297 256.348 153.128 256.656 153.128 257.046C153.128 257.436 153.297 257.748 153.635 257.982C153.973 258.207 154.419 258.32 154.974 258.32C155.529 258.32 155.971 258.207 156.3 257.982C156.638 257.748 156.807 257.436 156.807 257.046C156.807 256.656 156.638 256.348 156.3 256.123C155.971 255.889 155.529 255.772 154.974 255.772ZM154.428 252.158H155.52V253.978H154.428V252.158ZM171.73 252.262H172.822V260.296H171.73V252.262ZM169.195 255.616H171.938V256.5H169.195V255.616ZM165.659 253.159H166.66C166.66 253.939 166.569 254.65 166.387 255.291C166.214 255.932 165.928 256.522 165.529 257.059C165.139 257.596 164.615 258.099 163.956 258.567L163.254 257.878C163.826 257.497 164.285 257.089 164.632 256.656C164.987 256.214 165.247 255.724 165.412 255.187C165.577 254.641 165.659 254.017 165.659 253.315V253.159ZM163.579 253.159H166.205V254.043H163.579V253.159ZM168.909 253.159H169.91C169.91 253.956 169.832 254.71 169.676 255.421C169.52 256.132 169.256 256.799 168.883 257.423C168.51 258.047 167.999 258.632 167.349 259.178L166.569 258.541C167.158 258.073 167.622 257.575 167.96 257.046C168.307 256.509 168.549 255.932 168.688 255.317C168.835 254.693 168.909 254.017 168.909 253.289V253.159ZM167.102 253.159H169.39V254.043H167.102V253.159ZM168.48 259.295H169.403V259.763C169.403 260.318 169.286 260.829 169.052 261.297C168.818 261.765 168.493 262.181 168.077 262.545C167.67 262.9 167.197 263.195 166.66 263.429C166.131 263.672 165.572 263.854 164.983 263.975L164.554 263.117C165.083 263.03 165.581 262.887 166.049 262.688C166.517 262.48 166.933 262.233 167.297 261.947C167.661 261.652 167.947 261.319 168.155 260.946C168.372 260.573 168.48 260.179 168.48 259.763V259.295ZM168.623 259.295H169.559V259.763C169.559 260.179 169.663 260.569 169.871 260.933C170.079 261.297 170.361 261.626 170.716 261.921C171.08 262.207 171.496 262.45 171.964 262.649C172.432 262.848 172.926 262.996 173.446 263.091L173.017 263.949C172.428 263.836 171.869 263.659 171.34 263.416C170.811 263.173 170.343 262.874 169.936 262.519C169.529 262.155 169.208 261.743 168.974 261.284C168.74 260.816 168.623 260.309 168.623 259.763V259.295ZM181.83 259.1H182.909V263.637H181.83V259.1ZM187.056 252.262H188.135V264.014H187.056V252.262ZM178.45 259.659L178.307 258.749C179.105 258.749 179.95 258.745 180.842 258.736C181.744 258.727 182.662 258.701 183.598 258.658C184.543 258.606 185.462 258.528 186.354 258.424L186.419 259.23C185.501 259.369 184.573 259.468 183.637 259.529C182.71 259.59 181.809 259.629 180.933 259.646C180.058 259.655 179.23 259.659 178.45 259.659ZM182.701 256.448H185.873V257.332H182.701V256.448ZM182.701 253.107H185.782V253.991H183.754V256.851H182.701V253.107ZM179.061 253.107H182.077V253.991H180.127V256.89H179.061V253.107ZM179.061 256.461H179.581C179.98 256.461 180.392 256.448 180.816 256.422C181.241 256.396 181.705 256.327 182.207 256.214L182.298 257.085C181.778 257.198 181.302 257.267 180.868 257.293C180.435 257.319 180.006 257.332 179.581 257.332H179.061V256.461ZM193.477 253.159C194.049 253.159 194.556 253.328 194.998 253.666C195.44 253.995 195.783 254.468 196.025 255.083C196.277 255.698 196.402 256.422 196.402 257.254C196.402 258.086 196.277 258.81 196.025 259.425C195.783 260.04 195.44 260.517 194.998 260.855C194.556 261.193 194.049 261.362 193.477 261.362C192.914 261.362 192.407 261.193 191.956 260.855C191.514 260.517 191.168 260.04 190.916 259.425C190.674 258.81 190.552 258.086 190.552 257.254C190.552 256.422 190.674 255.698 190.916 255.083C191.168 254.468 191.514 253.995 191.956 253.666C192.407 253.328 192.914 253.159 193.477 253.159ZM193.477 254.121C193.105 254.121 192.775 254.251 192.489 254.511C192.203 254.762 191.978 255.126 191.813 255.603C191.657 256.071 191.579 256.621 191.579 257.254C191.579 257.887 191.657 258.441 191.813 258.918C191.978 259.386 192.203 259.75 192.489 260.01C192.775 260.27 193.105 260.4 193.477 260.4C193.859 260.4 194.192 260.27 194.478 260.01C194.764 259.75 194.985 259.386 195.141 258.918C195.306 258.441 195.388 257.887 195.388 257.254C195.388 256.621 195.306 256.071 195.141 255.603C194.985 255.126 194.764 254.762 194.478 254.511C194.192 254.251 193.859 254.121 193.477 254.121ZM198.95 252.249H200.016V264.027H198.95V252.249ZM196.051 256.734H199.431V257.605H196.051V256.734Z" fill="black"/>
<path fill-rule="evenodd" clip-rule="evenodd" d="M296.25 335.761C297.779 333.895 299.137 332.835 300.324 332.584C301.51 332.332 302.64 332.294 303.713 332.47V335.812L308.75 330.358L303.713 325.188V328.365C301.729 328.38 300.042 329.092 298.653 330.5C297.264 331.908 296.463 333.662 296.25 335.761Z" fill="#ACACAC" stroke="#ACACAC" stroke-width="2" stroke-linejoin="round"/>
</svg>
